G75*
%MOIN*%
%OFA0B0*%
%FSLAX25Y25*%
%IPPOS*%
%LPD*%
%AMOC8*
5,1,8,0,0,1.08239X$1,22.5*
%
%ADD10C,0.01300*%
%ADD11C,0.00800*%
%ADD12C,0.00500*%
D10*
X0092325Y0177150D02*
X0091107Y0178368D01*
X0091107Y0180803D01*
X0092325Y0182021D01*
X0095978Y0182021D01*
X0095978Y0184456D02*
X0095978Y0177150D01*
X0092325Y0177150D01*
X0099026Y0177150D02*
X0099026Y0180803D01*
X0100244Y0182021D01*
X0102679Y0182021D01*
X0102679Y0179585D02*
X0099026Y0179585D01*
X0099026Y0177150D02*
X0102679Y0177150D01*
X0103897Y0178368D01*
X0102679Y0179585D01*
X0106945Y0177150D02*
X0111816Y0177150D01*
X0111816Y0184456D01*
X0114864Y0180803D02*
X0116081Y0182021D01*
X0119734Y0182021D01*
X0119734Y0177150D01*
X0122782Y0179585D02*
X0127653Y0179585D01*
X0127653Y0178368D02*
X0127653Y0180803D01*
X0126435Y0182021D01*
X0124000Y0182021D01*
X0122782Y0180803D01*
X0122782Y0179585D01*
X0124000Y0177150D02*
X0126435Y0177150D01*
X0127653Y0178368D01*
X0130701Y0177150D02*
X0135572Y0177150D01*
X0130701Y0182021D01*
X0135572Y0182021D01*
X0138416Y0182021D02*
X0140851Y0182021D01*
X0139633Y0183239D02*
X0139633Y0178368D01*
X0138416Y0177150D01*
X0143695Y0177150D02*
X0146130Y0177150D01*
X0144913Y0177150D02*
X0144913Y0182021D01*
X0146130Y0182021D01*
X0144913Y0184456D02*
X0144913Y0185674D01*
X0149076Y0182021D02*
X0150294Y0182021D01*
X0152729Y0179585D01*
X0152729Y0177150D02*
X0152729Y0182021D01*
X0155777Y0184456D02*
X0160648Y0184456D01*
X0160648Y0177150D01*
X0160648Y0180803D02*
X0158213Y0180803D01*
X0114864Y0180803D02*
X0114864Y0177150D01*
X0263607Y0177150D02*
X0263607Y0184456D01*
X0266043Y0182021D01*
X0268478Y0184456D01*
X0268478Y0177150D01*
X0271526Y0178368D02*
X0271526Y0184456D01*
X0276397Y0184456D02*
X0276397Y0178368D01*
X0275179Y0177150D01*
X0272744Y0177150D01*
X0271526Y0178368D01*
X0287364Y0177150D02*
X0287364Y0180803D01*
X0288581Y0182021D01*
X0292234Y0182021D01*
X0292234Y0177150D01*
X0295282Y0179585D02*
X0300153Y0179585D01*
X0300153Y0178368D02*
X0300153Y0180803D01*
X0298935Y0182021D01*
X0296500Y0182021D01*
X0295282Y0180803D01*
X0295282Y0179585D01*
X0296500Y0177150D02*
X0298935Y0177150D01*
X0300153Y0178368D01*
X0303201Y0177150D02*
X0308072Y0177150D01*
X0303201Y0182021D01*
X0308072Y0182021D01*
X0310916Y0182021D02*
X0313351Y0182021D01*
X0312133Y0183239D02*
X0312133Y0178368D01*
X0310916Y0177150D01*
X0316195Y0177150D02*
X0318630Y0177150D01*
X0317413Y0177150D02*
X0317413Y0182021D01*
X0318630Y0182021D01*
X0317413Y0184456D02*
X0317413Y0185674D01*
X0321576Y0182021D02*
X0322794Y0182021D01*
X0325229Y0179585D01*
X0325229Y0177150D02*
X0325229Y0182021D01*
X0328277Y0184456D02*
X0333148Y0184456D01*
X0333148Y0177150D01*
X0333148Y0180803D02*
X0330713Y0180803D01*
D11*
X0295898Y0169903D02*
X0295898Y0169202D01*
X0295197Y0168502D01*
X0293796Y0168502D01*
X0293096Y0167801D01*
X0293096Y0167101D01*
X0293796Y0166400D01*
X0295197Y0166400D01*
X0295898Y0167101D01*
X0295898Y0167801D01*
X0295197Y0168502D01*
X0293796Y0168502D02*
X0293096Y0169202D01*
X0293096Y0169903D01*
X0293796Y0170604D01*
X0295197Y0170604D01*
X0295898Y0169903D01*
X0291294Y0168502D02*
X0288492Y0168502D01*
X0286690Y0169202D02*
X0284588Y0169202D01*
X0283888Y0168502D01*
X0283888Y0167101D01*
X0284588Y0166400D01*
X0286690Y0166400D01*
X0286690Y0170604D01*
X0282086Y0169202D02*
X0281386Y0169202D01*
X0281386Y0166400D01*
X0282086Y0166400D02*
X0280685Y0166400D01*
X0278316Y0167101D02*
X0277616Y0166400D01*
X0278316Y0167101D02*
X0278316Y0169903D01*
X0277616Y0169202D02*
X0279017Y0169202D01*
X0281386Y0170604D02*
X0281386Y0171304D01*
X0271344Y0169202D02*
X0271344Y0167101D01*
X0270643Y0166400D01*
X0268541Y0166400D01*
X0268541Y0169202D01*
X0266740Y0169903D02*
X0266740Y0167101D01*
X0266039Y0166400D01*
X0264638Y0166400D01*
X0263937Y0167101D01*
X0263937Y0169903D02*
X0264638Y0170604D01*
X0266039Y0170604D01*
X0266740Y0169903D01*
D12*
X0095826Y0169253D02*
X0095826Y0166250D01*
X0095826Y0167751D02*
X0094324Y0169253D01*
X0093574Y0169253D01*
X0097427Y0168502D02*
X0097427Y0167001D01*
X0098178Y0166250D01*
X0100430Y0166250D01*
X0100430Y0170754D01*
X0100430Y0169253D02*
X0098178Y0169253D01*
X0097427Y0168502D01*
X0101981Y0167001D02*
X0101981Y0166250D01*
X0102732Y0166250D01*
X0102732Y0167001D01*
X0101981Y0167001D01*
X0104333Y0166250D02*
X0104333Y0168502D01*
X0105084Y0169253D01*
X0105834Y0168502D01*
X0105834Y0166250D01*
X0107336Y0166250D02*
X0107336Y0169253D01*
X0106585Y0169253D01*
X0105834Y0168502D01*
X0108937Y0168502D02*
X0108937Y0167001D01*
X0109688Y0166250D01*
X0111189Y0166250D01*
X0111939Y0167001D01*
X0111939Y0168502D01*
X0111189Y0169253D01*
X0109688Y0169253D01*
X0108937Y0168502D01*
X0113541Y0169253D02*
X0115793Y0169253D01*
X0116543Y0168502D01*
X0116543Y0167001D01*
X0115793Y0166250D01*
X0113541Y0166250D01*
X0118095Y0166250D02*
X0118845Y0166250D01*
X0118845Y0167001D01*
X0118095Y0167001D01*
X0118095Y0166250D01*
X0120447Y0167001D02*
X0120447Y0168502D01*
X0121197Y0169253D01*
X0123449Y0169253D01*
X0123449Y0170754D02*
X0123449Y0166250D01*
X0121197Y0166250D01*
X0120447Y0167001D01*
X0125051Y0167751D02*
X0127303Y0167751D01*
X0128053Y0167001D01*
X0127303Y0166250D01*
X0125051Y0166250D01*
X0125051Y0168502D01*
X0125801Y0169253D01*
X0127303Y0169253D01*
X0129655Y0166250D02*
X0132657Y0166250D01*
X0132657Y0170754D01*
X0134259Y0168502D02*
X0134259Y0166250D01*
X0134259Y0168502D02*
X0135009Y0169253D01*
X0137261Y0169253D01*
X0137261Y0166250D01*
X0138862Y0167751D02*
X0141865Y0167751D01*
X0141865Y0167001D02*
X0141865Y0168502D01*
X0141114Y0169253D01*
X0139613Y0169253D01*
X0138862Y0168502D01*
X0138862Y0167751D01*
X0139613Y0166250D02*
X0141114Y0166250D01*
X0141865Y0167001D01*
X0143466Y0166250D02*
X0146469Y0166250D01*
X0143466Y0169253D01*
X0146469Y0169253D01*
X0148037Y0169253D02*
X0149538Y0169253D01*
X0148788Y0170003D02*
X0148788Y0167001D01*
X0148037Y0166250D01*
X0151106Y0166250D02*
X0152607Y0166250D01*
X0151857Y0166250D02*
X0151857Y0169253D01*
X0152607Y0169253D01*
X0154192Y0169253D02*
X0154943Y0169253D01*
X0156444Y0167751D01*
X0156444Y0166250D02*
X0156444Y0169253D01*
X0158045Y0170754D02*
X0161048Y0170754D01*
X0161048Y0166250D01*
X0161048Y0168502D02*
X0159547Y0168502D01*
X0151857Y0170754D02*
X0151857Y0171504D01*
M02*
