G75*
%MOIN*%
%OFA0B0*%
%FSLAX25Y25*%
%IPPOS*%
%LPD*%
%AMOC8*
5,1,8,0,0,1.08239X$1,22.5*
%
%ADD10C,0.12998*%
%ADD11R,0.46000X0.55000*%
%ADD12C,0.06000*%
%ADD13OC8,0.06502*%
%ADD14OC8,0.16148*%
%ADD15C,0.08077*%
%ADD16C,0.07000*%
%ADD17C,0.07000*%
%ADD18C,0.13400*%
%ADD19OC8,0.05600*%
%ADD20C,0.06400*%
%ADD21C,0.05600*%
%ADD22OC8,0.06700*%
%ADD23C,0.06700*%
%ADD24C,0.06337*%
D10*
X0136798Y0015500D03*
X0341798Y0035500D03*
X0341798Y0145500D03*
X0141798Y0205500D03*
D11*
X0114298Y0114000D03*
D12*
X0199298Y0086400D02*
X0199298Y0083600D01*
X0209298Y0083600D02*
X0209298Y0086400D01*
X0219298Y0086400D02*
X0219298Y0083600D01*
X0229298Y0083600D02*
X0229298Y0086400D01*
X0239298Y0086400D02*
X0239298Y0083600D01*
X0249298Y0083600D02*
X0249298Y0086400D01*
X0259298Y0086400D02*
X0259298Y0083600D01*
X0269298Y0083600D02*
X0269298Y0086400D01*
X0279298Y0086400D02*
X0279298Y0083600D01*
X0289298Y0083600D02*
X0289298Y0086400D01*
X0299298Y0086400D02*
X0299298Y0083600D01*
X0309298Y0083600D02*
X0309298Y0086400D01*
X0319298Y0086400D02*
X0319298Y0083600D01*
X0329298Y0083600D02*
X0329298Y0086400D01*
X0329298Y0056400D02*
X0329298Y0053600D01*
X0319298Y0053600D02*
X0319298Y0056400D01*
X0309298Y0056400D02*
X0309298Y0053600D01*
X0299298Y0053600D02*
X0299298Y0056400D01*
X0289298Y0056400D02*
X0289298Y0053600D01*
X0279298Y0053600D02*
X0279298Y0056400D01*
X0269298Y0056400D02*
X0269298Y0053600D01*
X0259298Y0053600D02*
X0259298Y0056400D01*
X0249298Y0056400D02*
X0249298Y0053600D01*
X0239298Y0053600D02*
X0239298Y0056400D01*
X0229298Y0056400D02*
X0229298Y0053600D01*
X0219298Y0053600D02*
X0219298Y0056400D01*
X0209298Y0056400D02*
X0209298Y0053600D01*
X0199298Y0053600D02*
X0199298Y0056400D01*
X0201798Y0016900D02*
X0201798Y0014100D01*
X0191798Y0014100D02*
X0191798Y0016900D01*
X0211798Y0016900D02*
X0211798Y0014100D01*
X0221798Y0014100D02*
X0221798Y0016900D01*
X0231798Y0016900D02*
X0231798Y0014100D01*
X0241798Y0014100D02*
X0241798Y0016900D01*
X0251798Y0016900D02*
X0251798Y0014100D01*
X0261798Y0014100D02*
X0261798Y0016900D01*
X0281798Y0016900D02*
X0281798Y0014100D01*
X0291798Y0014100D02*
X0291798Y0016900D01*
X0301798Y0016900D02*
X0301798Y0014100D01*
X0311798Y0014100D02*
X0311798Y0016900D01*
X0321798Y0016900D02*
X0321798Y0014100D01*
X0331798Y0014100D02*
X0331798Y0016900D01*
X0331798Y0204100D02*
X0331798Y0206900D01*
X0321798Y0206900D02*
X0321798Y0204100D01*
X0311798Y0204100D02*
X0311798Y0206900D01*
X0301798Y0206900D02*
X0301798Y0204100D01*
X0291798Y0204100D02*
X0291798Y0206900D01*
X0281798Y0206900D02*
X0281798Y0204100D01*
X0271798Y0204100D02*
X0271798Y0206900D01*
X0261798Y0206900D02*
X0261798Y0204100D01*
X0245798Y0204100D02*
X0245798Y0206900D01*
X0235798Y0206900D02*
X0235798Y0204100D01*
X0225798Y0204100D02*
X0225798Y0206900D01*
X0215798Y0206900D02*
X0215798Y0204100D01*
X0205798Y0204100D02*
X0205798Y0206900D01*
X0195798Y0206900D02*
X0195798Y0204100D01*
X0185798Y0204100D02*
X0185798Y0206900D01*
X0175798Y0206900D02*
X0175798Y0204100D01*
X0165798Y0204100D02*
X0165798Y0206900D01*
X0155798Y0206900D02*
X0155798Y0204100D01*
D13*
X0332298Y0125500D03*
X0342298Y0125500D03*
X0342298Y0115500D03*
X0332298Y0115500D03*
X0332298Y0105500D03*
X0342298Y0105500D03*
D14*
X0127798Y0038200D03*
X0104198Y0038200D03*
X0115998Y0018500D03*
D15*
X0104198Y0035200D03*
X0104198Y0041200D03*
X0127798Y0041200D03*
X0127798Y0035200D03*
X0118998Y0018500D03*
X0112998Y0018500D03*
D16*
X0147798Y0025500D03*
X0187798Y0025500D03*
D17*
X0124298Y0061350D02*
X0124298Y0064650D01*
X0114298Y0064650D02*
X0114298Y0061350D01*
X0104298Y0061350D02*
X0104298Y0064650D01*
D18*
X0114298Y0122000D03*
D19*
X0145798Y0106000D03*
X0175798Y0087500D03*
X0185798Y0087500D03*
X0185798Y0106000D03*
X0215798Y0156000D03*
X0215798Y0166000D03*
X0215798Y0176000D03*
X0255798Y0176000D03*
X0255798Y0166000D03*
X0255798Y0156000D03*
X0283298Y0136500D03*
X0298298Y0115000D03*
X0308298Y0115000D03*
X0283298Y0096500D03*
X0239798Y0039000D03*
X0199798Y0039000D03*
D20*
X0124598Y0191100D02*
X0121598Y0191100D01*
X0098998Y0191100D02*
X0095998Y0191100D01*
X0095998Y0208900D02*
X0098998Y0208900D01*
X0121598Y0208900D02*
X0124598Y0208900D01*
D21*
X0234798Y0103000D03*
X0253798Y0103000D03*
D22*
X0253798Y0118500D03*
X0253798Y0128500D03*
X0234798Y0128500D03*
X0234798Y0118500D03*
X0228298Y0143500D03*
X0218298Y0143500D03*
X0148298Y0082500D03*
X0181798Y0063500D03*
X0181798Y0053500D03*
X0162798Y0049000D03*
X0249798Y0040500D03*
X0262798Y0040500D03*
X0262798Y0030500D03*
X0249798Y0030500D03*
D23*
X0148798Y0049000D03*
X0162298Y0082500D03*
D24*
X0198314Y0126000D02*
X0201282Y0126000D01*
X0201282Y0136000D02*
X0198314Y0136000D01*
X0198314Y0146000D02*
X0201282Y0146000D01*
X0201282Y0156000D02*
X0198314Y0156000D01*
X0198314Y0166000D02*
X0201282Y0166000D01*
X0201282Y0176000D02*
X0198314Y0176000D01*
M02*
