G75*
%MOIN*%
%OFA0B0*%
%FSLAX25Y25*%
%IPPOS*%
%LPD*%
%AMOC8*
5,1,8,0,0,1.08239X$1,22.5*
%
%ADD10C,0.01000*%
%ADD11C,0.00000*%
%ADD12C,0.05600*%
%ADD13OC8,0.06102*%
%ADD14OC8,0.15748*%
%ADD15R,0.15748X0.15748*%
%ADD16C,0.07677*%
%ADD17C,0.06600*%
%ADD18OC8,0.04800*%
%ADD19C,0.04800*%
%ADD20C,0.04500*%
%ADD21OC8,0.06300*%
%ADD22C,0.06300*%
%ADD23C,0.05906*%
%ADD24C,0.07500*%
%ADD25R,0.04800X0.04800*%
%ADD26C,0.06000*%
%ADD27C,0.02000*%
%ADD28C,0.02400*%
%ADD29C,0.01200*%
%ADD30C,0.03562*%
%ADD31C,0.03200*%
%ADD32C,0.01600*%
%ADD33C,0.03600*%
%ADD34C,0.03400*%
D10*
X0008350Y0007187D02*
X0008350Y0209313D01*
X0008352Y0209437D01*
X0008358Y0209560D01*
X0008367Y0209684D01*
X0008381Y0209806D01*
X0008398Y0209929D01*
X0008420Y0210051D01*
X0008445Y0210172D01*
X0008474Y0210292D01*
X0008506Y0210411D01*
X0008543Y0210530D01*
X0008583Y0210647D01*
X0008626Y0210762D01*
X0008674Y0210877D01*
X0008725Y0210989D01*
X0008779Y0211100D01*
X0008837Y0211210D01*
X0008898Y0211317D01*
X0008963Y0211423D01*
X0009031Y0211526D01*
X0009102Y0211627D01*
X0009176Y0211726D01*
X0009253Y0211823D01*
X0009334Y0211917D01*
X0009417Y0212008D01*
X0009503Y0212097D01*
X0009592Y0212183D01*
X0009683Y0212266D01*
X0009777Y0212347D01*
X0009874Y0212424D01*
X0009973Y0212498D01*
X0010074Y0212569D01*
X0010177Y0212637D01*
X0010283Y0212702D01*
X0010390Y0212763D01*
X0010500Y0212821D01*
X0010611Y0212875D01*
X0010723Y0212926D01*
X0010838Y0212974D01*
X0010953Y0213017D01*
X0011070Y0213057D01*
X0011189Y0213094D01*
X0011308Y0213126D01*
X0011428Y0213155D01*
X0011549Y0213180D01*
X0011671Y0213202D01*
X0011794Y0213219D01*
X0011916Y0213233D01*
X0012040Y0213242D01*
X0012163Y0213248D01*
X0012287Y0213250D01*
X0262350Y0213250D01*
X0268350Y0207250D01*
X0268350Y0162250D01*
X0278350Y0152250D01*
X0278350Y0023250D01*
X0268350Y0013250D01*
X0268350Y0007187D01*
X0268348Y0007063D01*
X0268342Y0006940D01*
X0268333Y0006816D01*
X0268319Y0006694D01*
X0268302Y0006571D01*
X0268280Y0006449D01*
X0268255Y0006328D01*
X0268226Y0006208D01*
X0268194Y0006089D01*
X0268157Y0005970D01*
X0268117Y0005853D01*
X0268074Y0005738D01*
X0268026Y0005623D01*
X0267975Y0005511D01*
X0267921Y0005400D01*
X0267863Y0005290D01*
X0267802Y0005183D01*
X0267737Y0005077D01*
X0267669Y0004974D01*
X0267598Y0004873D01*
X0267524Y0004774D01*
X0267447Y0004677D01*
X0267366Y0004583D01*
X0267283Y0004492D01*
X0267197Y0004403D01*
X0267108Y0004317D01*
X0267017Y0004234D01*
X0266923Y0004153D01*
X0266826Y0004076D01*
X0266727Y0004002D01*
X0266626Y0003931D01*
X0266523Y0003863D01*
X0266417Y0003798D01*
X0266310Y0003737D01*
X0266200Y0003679D01*
X0266089Y0003625D01*
X0265977Y0003574D01*
X0265862Y0003526D01*
X0265747Y0003483D01*
X0265630Y0003443D01*
X0265511Y0003406D01*
X0265392Y0003374D01*
X0265272Y0003345D01*
X0265151Y0003320D01*
X0265029Y0003298D01*
X0264906Y0003281D01*
X0264784Y0003267D01*
X0264660Y0003258D01*
X0264537Y0003252D01*
X0264413Y0003250D01*
X0012287Y0003250D01*
X0012163Y0003252D01*
X0012040Y0003258D01*
X0011916Y0003267D01*
X0011794Y0003281D01*
X0011671Y0003298D01*
X0011549Y0003320D01*
X0011428Y0003345D01*
X0011308Y0003374D01*
X0011189Y0003406D01*
X0011070Y0003443D01*
X0010953Y0003483D01*
X0010838Y0003526D01*
X0010723Y0003574D01*
X0010611Y0003625D01*
X0010500Y0003679D01*
X0010390Y0003737D01*
X0010283Y0003798D01*
X0010177Y0003863D01*
X0010074Y0003931D01*
X0009973Y0004002D01*
X0009874Y0004076D01*
X0009777Y0004153D01*
X0009683Y0004234D01*
X0009592Y0004317D01*
X0009503Y0004403D01*
X0009417Y0004492D01*
X0009334Y0004583D01*
X0009253Y0004677D01*
X0009176Y0004774D01*
X0009102Y0004873D01*
X0009031Y0004974D01*
X0008963Y0005077D01*
X0008898Y0005183D01*
X0008837Y0005290D01*
X0008779Y0005400D01*
X0008725Y0005511D01*
X0008674Y0005623D01*
X0008626Y0005738D01*
X0008583Y0005853D01*
X0008543Y0005970D01*
X0008506Y0006089D01*
X0008474Y0006208D01*
X0008445Y0006328D01*
X0008420Y0006449D01*
X0008398Y0006571D01*
X0008381Y0006694D01*
X0008367Y0006816D01*
X0008358Y0006940D01*
X0008352Y0007063D01*
X0008350Y0007187D01*
X0110850Y0070750D02*
X0120850Y0060750D01*
X0124600Y0060750D02*
X0125850Y0059500D01*
X0125850Y0052750D01*
X0124600Y0060750D02*
X0124600Y0070750D01*
X0140850Y0060750D02*
X0150850Y0070750D01*
X0153400Y0074500D02*
X0146250Y0074500D01*
X0145850Y0074100D01*
X0153400Y0074500D02*
X0154450Y0075550D01*
X0171050Y0075550D01*
X0172550Y0074050D01*
X0172550Y0062450D01*
X0170600Y0060900D01*
X0190350Y0061100D01*
X0191650Y0063000D01*
X0198750Y0065450D02*
X0190750Y0073450D01*
X0183450Y0073450D01*
X0181450Y0075450D01*
X0180850Y0088250D02*
X0177100Y0092000D01*
X0162100Y0092000D01*
X0155850Y0085750D01*
X0155850Y0082750D01*
X0162100Y0072150D02*
X0162100Y0067000D01*
X0155850Y0060750D01*
X0165850Y0055750D02*
X0165850Y0052750D01*
X0165850Y0055750D02*
X0170600Y0060900D01*
X0170850Y0044500D02*
X0169600Y0043250D01*
X0167100Y0043250D01*
X0165850Y0044500D01*
X0165800Y0044450D01*
X0153150Y0044450D01*
X0145850Y0051750D01*
X0145850Y0052750D01*
X0126850Y0036750D02*
X0126350Y0035250D01*
X0138350Y0023250D01*
X0138350Y0013250D01*
X0164600Y0028250D02*
X0165850Y0029500D01*
X0170850Y0029500D01*
X0174600Y0033250D01*
X0237350Y0033250D01*
X0248650Y0021950D01*
X0248650Y0013550D01*
X0248350Y0013250D01*
X0207250Y0065450D02*
X0198750Y0065450D01*
X0205850Y0082750D02*
X0205850Y0085750D01*
X0199600Y0092000D01*
X0192100Y0092000D01*
X0190850Y0090750D01*
X0203350Y0094500D02*
X0189600Y0108250D01*
X0157100Y0108250D01*
X0144600Y0095750D01*
X0109600Y0095750D01*
X0062100Y0143250D01*
X0109600Y0134500D02*
X0109600Y0193250D01*
X0145850Y0193250D01*
X0152100Y0199500D01*
X0152100Y0203250D01*
X0152350Y0203250D01*
X0157100Y0193250D02*
X0163850Y0189000D01*
X0157100Y0188000D02*
X0157100Y0160750D01*
X0138350Y0142000D01*
X0135850Y0142000D01*
X0135850Y0119500D01*
X0132100Y0115750D01*
X0122100Y0115750D01*
X0115850Y0109500D01*
X0135850Y0107000D02*
X0135850Y0115750D01*
X0137100Y0115750D01*
X0159600Y0138250D01*
X0159600Y0145750D01*
X0174600Y0160750D01*
X0174600Y0190750D01*
X0178350Y0190750D01*
X0179600Y0198250D02*
X0205850Y0172000D01*
X0225850Y0172000D01*
X0253350Y0144500D01*
X0253350Y0122000D01*
X0257100Y0118250D01*
X0263350Y0118250D01*
X0268350Y0113250D01*
X0268850Y0113250D01*
X0249600Y0109500D02*
X0249600Y0142000D01*
X0254000Y0153900D02*
X0254000Y0177700D01*
X0238450Y0193250D01*
X0238450Y0203150D01*
X0238350Y0203250D01*
X0215750Y0186350D02*
X0208150Y0193950D01*
X0208150Y0203050D01*
X0208350Y0203250D01*
X0215750Y0186350D02*
X0215750Y0179750D01*
X0215850Y0168250D02*
X0180850Y0133250D01*
X0179600Y0144500D02*
X0164600Y0144500D01*
X0150850Y0148250D02*
X0150850Y0150750D01*
X0170850Y0170750D01*
X0170850Y0198250D01*
X0172100Y0199500D01*
X0172100Y0203250D01*
X0172350Y0203250D01*
X0150100Y0190750D02*
X0129600Y0190750D01*
X0122850Y0184000D01*
X0122850Y0181750D01*
X0118350Y0177250D01*
X0118350Y0168250D01*
X0114600Y0179500D02*
X0114600Y0138250D01*
X0139600Y0112000D02*
X0145850Y0105750D01*
X0140850Y0102000D02*
X0135850Y0107000D01*
X0179600Y0144500D02*
X0180850Y0145750D01*
X0208350Y0134500D02*
X0208350Y0133250D01*
X0210850Y0130750D01*
X0210850Y0127000D01*
X0224600Y0113250D01*
X0222100Y0102000D02*
X0209600Y0114500D01*
X0205850Y0109500D02*
X0212100Y0103250D01*
X0217100Y0103250D01*
X0217100Y0097000D01*
X0225850Y0085750D02*
X0249600Y0109500D01*
X0252100Y0092000D02*
X0270850Y0092000D01*
X0274600Y0095750D01*
X0274600Y0129500D01*
X0272100Y0129500D01*
X0228350Y0127000D02*
X0218350Y0137000D01*
X0209850Y0134750D02*
X0209600Y0134500D01*
X0208350Y0134500D01*
X0252100Y0092000D02*
X0245850Y0085750D01*
X0245850Y0082750D01*
X0225850Y0082750D02*
X0225850Y0085750D01*
X0179600Y0044500D02*
X0170850Y0044500D01*
X0153350Y0177000D02*
X0147100Y0183250D01*
X0147100Y0187000D01*
X0117100Y0189500D02*
X0117100Y0182000D01*
X0114600Y0179500D01*
X0095850Y0190750D02*
X0089600Y0184500D01*
X0049550Y0188850D02*
X0023950Y0188850D01*
D11*
X0062051Y0203250D02*
X0062053Y0203408D01*
X0062059Y0203566D01*
X0062069Y0203724D01*
X0062083Y0203882D01*
X0062101Y0204039D01*
X0062122Y0204196D01*
X0062148Y0204352D01*
X0062178Y0204508D01*
X0062211Y0204663D01*
X0062249Y0204816D01*
X0062290Y0204969D01*
X0062335Y0205121D01*
X0062384Y0205272D01*
X0062437Y0205421D01*
X0062493Y0205569D01*
X0062553Y0205715D01*
X0062617Y0205860D01*
X0062685Y0206003D01*
X0062756Y0206145D01*
X0062830Y0206285D01*
X0062908Y0206422D01*
X0062990Y0206558D01*
X0063074Y0206692D01*
X0063163Y0206823D01*
X0063254Y0206952D01*
X0063349Y0207079D01*
X0063446Y0207204D01*
X0063547Y0207326D01*
X0063651Y0207445D01*
X0063758Y0207562D01*
X0063868Y0207676D01*
X0063981Y0207787D01*
X0064096Y0207896D01*
X0064214Y0208001D01*
X0064335Y0208103D01*
X0064458Y0208203D01*
X0064584Y0208299D01*
X0064712Y0208392D01*
X0064842Y0208482D01*
X0064975Y0208568D01*
X0065110Y0208652D01*
X0065246Y0208731D01*
X0065385Y0208808D01*
X0065526Y0208880D01*
X0065668Y0208950D01*
X0065812Y0209015D01*
X0065958Y0209077D01*
X0066105Y0209135D01*
X0066254Y0209190D01*
X0066404Y0209241D01*
X0066555Y0209288D01*
X0066707Y0209331D01*
X0066860Y0209370D01*
X0067015Y0209406D01*
X0067170Y0209437D01*
X0067326Y0209465D01*
X0067482Y0209489D01*
X0067639Y0209509D01*
X0067797Y0209525D01*
X0067954Y0209537D01*
X0068113Y0209545D01*
X0068271Y0209549D01*
X0068429Y0209549D01*
X0068587Y0209545D01*
X0068746Y0209537D01*
X0068903Y0209525D01*
X0069061Y0209509D01*
X0069218Y0209489D01*
X0069374Y0209465D01*
X0069530Y0209437D01*
X0069685Y0209406D01*
X0069840Y0209370D01*
X0069993Y0209331D01*
X0070145Y0209288D01*
X0070296Y0209241D01*
X0070446Y0209190D01*
X0070595Y0209135D01*
X0070742Y0209077D01*
X0070888Y0209015D01*
X0071032Y0208950D01*
X0071174Y0208880D01*
X0071315Y0208808D01*
X0071454Y0208731D01*
X0071590Y0208652D01*
X0071725Y0208568D01*
X0071858Y0208482D01*
X0071988Y0208392D01*
X0072116Y0208299D01*
X0072242Y0208203D01*
X0072365Y0208103D01*
X0072486Y0208001D01*
X0072604Y0207896D01*
X0072719Y0207787D01*
X0072832Y0207676D01*
X0072942Y0207562D01*
X0073049Y0207445D01*
X0073153Y0207326D01*
X0073254Y0207204D01*
X0073351Y0207079D01*
X0073446Y0206952D01*
X0073537Y0206823D01*
X0073626Y0206692D01*
X0073710Y0206558D01*
X0073792Y0206422D01*
X0073870Y0206285D01*
X0073944Y0206145D01*
X0074015Y0206003D01*
X0074083Y0205860D01*
X0074147Y0205715D01*
X0074207Y0205569D01*
X0074263Y0205421D01*
X0074316Y0205272D01*
X0074365Y0205121D01*
X0074410Y0204969D01*
X0074451Y0204816D01*
X0074489Y0204663D01*
X0074522Y0204508D01*
X0074552Y0204352D01*
X0074578Y0204196D01*
X0074599Y0204039D01*
X0074617Y0203882D01*
X0074631Y0203724D01*
X0074641Y0203566D01*
X0074647Y0203408D01*
X0074649Y0203250D01*
X0074647Y0203092D01*
X0074641Y0202934D01*
X0074631Y0202776D01*
X0074617Y0202618D01*
X0074599Y0202461D01*
X0074578Y0202304D01*
X0074552Y0202148D01*
X0074522Y0201992D01*
X0074489Y0201837D01*
X0074451Y0201684D01*
X0074410Y0201531D01*
X0074365Y0201379D01*
X0074316Y0201228D01*
X0074263Y0201079D01*
X0074207Y0200931D01*
X0074147Y0200785D01*
X0074083Y0200640D01*
X0074015Y0200497D01*
X0073944Y0200355D01*
X0073870Y0200215D01*
X0073792Y0200078D01*
X0073710Y0199942D01*
X0073626Y0199808D01*
X0073537Y0199677D01*
X0073446Y0199548D01*
X0073351Y0199421D01*
X0073254Y0199296D01*
X0073153Y0199174D01*
X0073049Y0199055D01*
X0072942Y0198938D01*
X0072832Y0198824D01*
X0072719Y0198713D01*
X0072604Y0198604D01*
X0072486Y0198499D01*
X0072365Y0198397D01*
X0072242Y0198297D01*
X0072116Y0198201D01*
X0071988Y0198108D01*
X0071858Y0198018D01*
X0071725Y0197932D01*
X0071590Y0197848D01*
X0071454Y0197769D01*
X0071315Y0197692D01*
X0071174Y0197620D01*
X0071032Y0197550D01*
X0070888Y0197485D01*
X0070742Y0197423D01*
X0070595Y0197365D01*
X0070446Y0197310D01*
X0070296Y0197259D01*
X0070145Y0197212D01*
X0069993Y0197169D01*
X0069840Y0197130D01*
X0069685Y0197094D01*
X0069530Y0197063D01*
X0069374Y0197035D01*
X0069218Y0197011D01*
X0069061Y0196991D01*
X0068903Y0196975D01*
X0068746Y0196963D01*
X0068587Y0196955D01*
X0068429Y0196951D01*
X0068271Y0196951D01*
X0068113Y0196955D01*
X0067954Y0196963D01*
X0067797Y0196975D01*
X0067639Y0196991D01*
X0067482Y0197011D01*
X0067326Y0197035D01*
X0067170Y0197063D01*
X0067015Y0197094D01*
X0066860Y0197130D01*
X0066707Y0197169D01*
X0066555Y0197212D01*
X0066404Y0197259D01*
X0066254Y0197310D01*
X0066105Y0197365D01*
X0065958Y0197423D01*
X0065812Y0197485D01*
X0065668Y0197550D01*
X0065526Y0197620D01*
X0065385Y0197692D01*
X0065246Y0197769D01*
X0065110Y0197848D01*
X0064975Y0197932D01*
X0064842Y0198018D01*
X0064712Y0198108D01*
X0064584Y0198201D01*
X0064458Y0198297D01*
X0064335Y0198397D01*
X0064214Y0198499D01*
X0064096Y0198604D01*
X0063981Y0198713D01*
X0063868Y0198824D01*
X0063758Y0198938D01*
X0063651Y0199055D01*
X0063547Y0199174D01*
X0063446Y0199296D01*
X0063349Y0199421D01*
X0063254Y0199548D01*
X0063163Y0199677D01*
X0063074Y0199808D01*
X0062990Y0199942D01*
X0062908Y0200078D01*
X0062830Y0200215D01*
X0062756Y0200355D01*
X0062685Y0200497D01*
X0062617Y0200640D01*
X0062553Y0200785D01*
X0062493Y0200931D01*
X0062437Y0201079D01*
X0062384Y0201228D01*
X0062335Y0201379D01*
X0062290Y0201531D01*
X0062249Y0201684D01*
X0062211Y0201837D01*
X0062178Y0201992D01*
X0062148Y0202148D01*
X0062122Y0202304D01*
X0062101Y0202461D01*
X0062083Y0202618D01*
X0062069Y0202776D01*
X0062059Y0202934D01*
X0062053Y0203092D01*
X0062051Y0203250D01*
X0034350Y0119750D02*
X0034352Y0119911D01*
X0034358Y0120071D01*
X0034368Y0120232D01*
X0034382Y0120392D01*
X0034400Y0120552D01*
X0034421Y0120711D01*
X0034447Y0120870D01*
X0034477Y0121028D01*
X0034510Y0121185D01*
X0034548Y0121342D01*
X0034589Y0121497D01*
X0034634Y0121651D01*
X0034683Y0121804D01*
X0034736Y0121956D01*
X0034792Y0122107D01*
X0034853Y0122256D01*
X0034916Y0122404D01*
X0034984Y0122550D01*
X0035055Y0122694D01*
X0035129Y0122836D01*
X0035207Y0122977D01*
X0035289Y0123115D01*
X0035374Y0123252D01*
X0035462Y0123386D01*
X0035554Y0123518D01*
X0035649Y0123648D01*
X0035747Y0123776D01*
X0035848Y0123901D01*
X0035952Y0124023D01*
X0036059Y0124143D01*
X0036169Y0124260D01*
X0036282Y0124375D01*
X0036398Y0124486D01*
X0036517Y0124595D01*
X0036638Y0124700D01*
X0036762Y0124803D01*
X0036888Y0124903D01*
X0037016Y0124999D01*
X0037147Y0125092D01*
X0037281Y0125182D01*
X0037416Y0125269D01*
X0037554Y0125352D01*
X0037693Y0125432D01*
X0037835Y0125508D01*
X0037978Y0125581D01*
X0038123Y0125650D01*
X0038270Y0125716D01*
X0038418Y0125778D01*
X0038568Y0125836D01*
X0038719Y0125891D01*
X0038872Y0125942D01*
X0039026Y0125989D01*
X0039181Y0126032D01*
X0039337Y0126071D01*
X0039493Y0126107D01*
X0039651Y0126138D01*
X0039809Y0126166D01*
X0039968Y0126190D01*
X0040128Y0126210D01*
X0040288Y0126226D01*
X0040448Y0126238D01*
X0040609Y0126246D01*
X0040770Y0126250D01*
X0040930Y0126250D01*
X0041091Y0126246D01*
X0041252Y0126238D01*
X0041412Y0126226D01*
X0041572Y0126210D01*
X0041732Y0126190D01*
X0041891Y0126166D01*
X0042049Y0126138D01*
X0042207Y0126107D01*
X0042363Y0126071D01*
X0042519Y0126032D01*
X0042674Y0125989D01*
X0042828Y0125942D01*
X0042981Y0125891D01*
X0043132Y0125836D01*
X0043282Y0125778D01*
X0043430Y0125716D01*
X0043577Y0125650D01*
X0043722Y0125581D01*
X0043865Y0125508D01*
X0044007Y0125432D01*
X0044146Y0125352D01*
X0044284Y0125269D01*
X0044419Y0125182D01*
X0044553Y0125092D01*
X0044684Y0124999D01*
X0044812Y0124903D01*
X0044938Y0124803D01*
X0045062Y0124700D01*
X0045183Y0124595D01*
X0045302Y0124486D01*
X0045418Y0124375D01*
X0045531Y0124260D01*
X0045641Y0124143D01*
X0045748Y0124023D01*
X0045852Y0123901D01*
X0045953Y0123776D01*
X0046051Y0123648D01*
X0046146Y0123518D01*
X0046238Y0123386D01*
X0046326Y0123252D01*
X0046411Y0123115D01*
X0046493Y0122977D01*
X0046571Y0122836D01*
X0046645Y0122694D01*
X0046716Y0122550D01*
X0046784Y0122404D01*
X0046847Y0122256D01*
X0046908Y0122107D01*
X0046964Y0121956D01*
X0047017Y0121804D01*
X0047066Y0121651D01*
X0047111Y0121497D01*
X0047152Y0121342D01*
X0047190Y0121185D01*
X0047223Y0121028D01*
X0047253Y0120870D01*
X0047279Y0120711D01*
X0047300Y0120552D01*
X0047318Y0120392D01*
X0047332Y0120232D01*
X0047342Y0120071D01*
X0047348Y0119911D01*
X0047350Y0119750D01*
X0047348Y0119589D01*
X0047342Y0119429D01*
X0047332Y0119268D01*
X0047318Y0119108D01*
X0047300Y0118948D01*
X0047279Y0118789D01*
X0047253Y0118630D01*
X0047223Y0118472D01*
X0047190Y0118315D01*
X0047152Y0118158D01*
X0047111Y0118003D01*
X0047066Y0117849D01*
X0047017Y0117696D01*
X0046964Y0117544D01*
X0046908Y0117393D01*
X0046847Y0117244D01*
X0046784Y0117096D01*
X0046716Y0116950D01*
X0046645Y0116806D01*
X0046571Y0116664D01*
X0046493Y0116523D01*
X0046411Y0116385D01*
X0046326Y0116248D01*
X0046238Y0116114D01*
X0046146Y0115982D01*
X0046051Y0115852D01*
X0045953Y0115724D01*
X0045852Y0115599D01*
X0045748Y0115477D01*
X0045641Y0115357D01*
X0045531Y0115240D01*
X0045418Y0115125D01*
X0045302Y0115014D01*
X0045183Y0114905D01*
X0045062Y0114800D01*
X0044938Y0114697D01*
X0044812Y0114597D01*
X0044684Y0114501D01*
X0044553Y0114408D01*
X0044419Y0114318D01*
X0044284Y0114231D01*
X0044146Y0114148D01*
X0044007Y0114068D01*
X0043865Y0113992D01*
X0043722Y0113919D01*
X0043577Y0113850D01*
X0043430Y0113784D01*
X0043282Y0113722D01*
X0043132Y0113664D01*
X0042981Y0113609D01*
X0042828Y0113558D01*
X0042674Y0113511D01*
X0042519Y0113468D01*
X0042363Y0113429D01*
X0042207Y0113393D01*
X0042049Y0113362D01*
X0041891Y0113334D01*
X0041732Y0113310D01*
X0041572Y0113290D01*
X0041412Y0113274D01*
X0041252Y0113262D01*
X0041091Y0113254D01*
X0040930Y0113250D01*
X0040770Y0113250D01*
X0040609Y0113254D01*
X0040448Y0113262D01*
X0040288Y0113274D01*
X0040128Y0113290D01*
X0039968Y0113310D01*
X0039809Y0113334D01*
X0039651Y0113362D01*
X0039493Y0113393D01*
X0039337Y0113429D01*
X0039181Y0113468D01*
X0039026Y0113511D01*
X0038872Y0113558D01*
X0038719Y0113609D01*
X0038568Y0113664D01*
X0038418Y0113722D01*
X0038270Y0113784D01*
X0038123Y0113850D01*
X0037978Y0113919D01*
X0037835Y0113992D01*
X0037693Y0114068D01*
X0037554Y0114148D01*
X0037416Y0114231D01*
X0037281Y0114318D01*
X0037147Y0114408D01*
X0037016Y0114501D01*
X0036888Y0114597D01*
X0036762Y0114697D01*
X0036638Y0114800D01*
X0036517Y0114905D01*
X0036398Y0115014D01*
X0036282Y0115125D01*
X0036169Y0115240D01*
X0036059Y0115357D01*
X0035952Y0115477D01*
X0035848Y0115599D01*
X0035747Y0115724D01*
X0035649Y0115852D01*
X0035554Y0115982D01*
X0035462Y0116114D01*
X0035374Y0116248D01*
X0035289Y0116385D01*
X0035207Y0116523D01*
X0035129Y0116664D01*
X0035055Y0116806D01*
X0034984Y0116950D01*
X0034916Y0117096D01*
X0034853Y0117244D01*
X0034792Y0117393D01*
X0034736Y0117544D01*
X0034683Y0117696D01*
X0034634Y0117849D01*
X0034589Y0118003D01*
X0034548Y0118158D01*
X0034510Y0118315D01*
X0034477Y0118472D01*
X0034447Y0118630D01*
X0034421Y0118789D01*
X0034400Y0118948D01*
X0034382Y0119108D01*
X0034368Y0119268D01*
X0034358Y0119429D01*
X0034352Y0119589D01*
X0034350Y0119750D01*
X0057051Y0013250D02*
X0057053Y0013408D01*
X0057059Y0013566D01*
X0057069Y0013724D01*
X0057083Y0013882D01*
X0057101Y0014039D01*
X0057122Y0014196D01*
X0057148Y0014352D01*
X0057178Y0014508D01*
X0057211Y0014663D01*
X0057249Y0014816D01*
X0057290Y0014969D01*
X0057335Y0015121D01*
X0057384Y0015272D01*
X0057437Y0015421D01*
X0057493Y0015569D01*
X0057553Y0015715D01*
X0057617Y0015860D01*
X0057685Y0016003D01*
X0057756Y0016145D01*
X0057830Y0016285D01*
X0057908Y0016422D01*
X0057990Y0016558D01*
X0058074Y0016692D01*
X0058163Y0016823D01*
X0058254Y0016952D01*
X0058349Y0017079D01*
X0058446Y0017204D01*
X0058547Y0017326D01*
X0058651Y0017445D01*
X0058758Y0017562D01*
X0058868Y0017676D01*
X0058981Y0017787D01*
X0059096Y0017896D01*
X0059214Y0018001D01*
X0059335Y0018103D01*
X0059458Y0018203D01*
X0059584Y0018299D01*
X0059712Y0018392D01*
X0059842Y0018482D01*
X0059975Y0018568D01*
X0060110Y0018652D01*
X0060246Y0018731D01*
X0060385Y0018808D01*
X0060526Y0018880D01*
X0060668Y0018950D01*
X0060812Y0019015D01*
X0060958Y0019077D01*
X0061105Y0019135D01*
X0061254Y0019190D01*
X0061404Y0019241D01*
X0061555Y0019288D01*
X0061707Y0019331D01*
X0061860Y0019370D01*
X0062015Y0019406D01*
X0062170Y0019437D01*
X0062326Y0019465D01*
X0062482Y0019489D01*
X0062639Y0019509D01*
X0062797Y0019525D01*
X0062954Y0019537D01*
X0063113Y0019545D01*
X0063271Y0019549D01*
X0063429Y0019549D01*
X0063587Y0019545D01*
X0063746Y0019537D01*
X0063903Y0019525D01*
X0064061Y0019509D01*
X0064218Y0019489D01*
X0064374Y0019465D01*
X0064530Y0019437D01*
X0064685Y0019406D01*
X0064840Y0019370D01*
X0064993Y0019331D01*
X0065145Y0019288D01*
X0065296Y0019241D01*
X0065446Y0019190D01*
X0065595Y0019135D01*
X0065742Y0019077D01*
X0065888Y0019015D01*
X0066032Y0018950D01*
X0066174Y0018880D01*
X0066315Y0018808D01*
X0066454Y0018731D01*
X0066590Y0018652D01*
X0066725Y0018568D01*
X0066858Y0018482D01*
X0066988Y0018392D01*
X0067116Y0018299D01*
X0067242Y0018203D01*
X0067365Y0018103D01*
X0067486Y0018001D01*
X0067604Y0017896D01*
X0067719Y0017787D01*
X0067832Y0017676D01*
X0067942Y0017562D01*
X0068049Y0017445D01*
X0068153Y0017326D01*
X0068254Y0017204D01*
X0068351Y0017079D01*
X0068446Y0016952D01*
X0068537Y0016823D01*
X0068626Y0016692D01*
X0068710Y0016558D01*
X0068792Y0016422D01*
X0068870Y0016285D01*
X0068944Y0016145D01*
X0069015Y0016003D01*
X0069083Y0015860D01*
X0069147Y0015715D01*
X0069207Y0015569D01*
X0069263Y0015421D01*
X0069316Y0015272D01*
X0069365Y0015121D01*
X0069410Y0014969D01*
X0069451Y0014816D01*
X0069489Y0014663D01*
X0069522Y0014508D01*
X0069552Y0014352D01*
X0069578Y0014196D01*
X0069599Y0014039D01*
X0069617Y0013882D01*
X0069631Y0013724D01*
X0069641Y0013566D01*
X0069647Y0013408D01*
X0069649Y0013250D01*
X0069647Y0013092D01*
X0069641Y0012934D01*
X0069631Y0012776D01*
X0069617Y0012618D01*
X0069599Y0012461D01*
X0069578Y0012304D01*
X0069552Y0012148D01*
X0069522Y0011992D01*
X0069489Y0011837D01*
X0069451Y0011684D01*
X0069410Y0011531D01*
X0069365Y0011379D01*
X0069316Y0011228D01*
X0069263Y0011079D01*
X0069207Y0010931D01*
X0069147Y0010785D01*
X0069083Y0010640D01*
X0069015Y0010497D01*
X0068944Y0010355D01*
X0068870Y0010215D01*
X0068792Y0010078D01*
X0068710Y0009942D01*
X0068626Y0009808D01*
X0068537Y0009677D01*
X0068446Y0009548D01*
X0068351Y0009421D01*
X0068254Y0009296D01*
X0068153Y0009174D01*
X0068049Y0009055D01*
X0067942Y0008938D01*
X0067832Y0008824D01*
X0067719Y0008713D01*
X0067604Y0008604D01*
X0067486Y0008499D01*
X0067365Y0008397D01*
X0067242Y0008297D01*
X0067116Y0008201D01*
X0066988Y0008108D01*
X0066858Y0008018D01*
X0066725Y0007932D01*
X0066590Y0007848D01*
X0066454Y0007769D01*
X0066315Y0007692D01*
X0066174Y0007620D01*
X0066032Y0007550D01*
X0065888Y0007485D01*
X0065742Y0007423D01*
X0065595Y0007365D01*
X0065446Y0007310D01*
X0065296Y0007259D01*
X0065145Y0007212D01*
X0064993Y0007169D01*
X0064840Y0007130D01*
X0064685Y0007094D01*
X0064530Y0007063D01*
X0064374Y0007035D01*
X0064218Y0007011D01*
X0064061Y0006991D01*
X0063903Y0006975D01*
X0063746Y0006963D01*
X0063587Y0006955D01*
X0063429Y0006951D01*
X0063271Y0006951D01*
X0063113Y0006955D01*
X0062954Y0006963D01*
X0062797Y0006975D01*
X0062639Y0006991D01*
X0062482Y0007011D01*
X0062326Y0007035D01*
X0062170Y0007063D01*
X0062015Y0007094D01*
X0061860Y0007130D01*
X0061707Y0007169D01*
X0061555Y0007212D01*
X0061404Y0007259D01*
X0061254Y0007310D01*
X0061105Y0007365D01*
X0060958Y0007423D01*
X0060812Y0007485D01*
X0060668Y0007550D01*
X0060526Y0007620D01*
X0060385Y0007692D01*
X0060246Y0007769D01*
X0060110Y0007848D01*
X0059975Y0007932D01*
X0059842Y0008018D01*
X0059712Y0008108D01*
X0059584Y0008201D01*
X0059458Y0008297D01*
X0059335Y0008397D01*
X0059214Y0008499D01*
X0059096Y0008604D01*
X0058981Y0008713D01*
X0058868Y0008824D01*
X0058758Y0008938D01*
X0058651Y0009055D01*
X0058547Y0009174D01*
X0058446Y0009296D01*
X0058349Y0009421D01*
X0058254Y0009548D01*
X0058163Y0009677D01*
X0058074Y0009808D01*
X0057990Y0009942D01*
X0057908Y0010078D01*
X0057830Y0010215D01*
X0057756Y0010355D01*
X0057685Y0010497D01*
X0057617Y0010640D01*
X0057553Y0010785D01*
X0057493Y0010931D01*
X0057437Y0011079D01*
X0057384Y0011228D01*
X0057335Y0011379D01*
X0057290Y0011531D01*
X0057249Y0011684D01*
X0057211Y0011837D01*
X0057178Y0011992D01*
X0057148Y0012148D01*
X0057122Y0012304D01*
X0057101Y0012461D01*
X0057083Y0012618D01*
X0057069Y0012776D01*
X0057059Y0012934D01*
X0057053Y0013092D01*
X0057051Y0013250D01*
X0262051Y0033250D02*
X0262053Y0033408D01*
X0262059Y0033566D01*
X0262069Y0033724D01*
X0262083Y0033882D01*
X0262101Y0034039D01*
X0262122Y0034196D01*
X0262148Y0034352D01*
X0262178Y0034508D01*
X0262211Y0034663D01*
X0262249Y0034816D01*
X0262290Y0034969D01*
X0262335Y0035121D01*
X0262384Y0035272D01*
X0262437Y0035421D01*
X0262493Y0035569D01*
X0262553Y0035715D01*
X0262617Y0035860D01*
X0262685Y0036003D01*
X0262756Y0036145D01*
X0262830Y0036285D01*
X0262908Y0036422D01*
X0262990Y0036558D01*
X0263074Y0036692D01*
X0263163Y0036823D01*
X0263254Y0036952D01*
X0263349Y0037079D01*
X0263446Y0037204D01*
X0263547Y0037326D01*
X0263651Y0037445D01*
X0263758Y0037562D01*
X0263868Y0037676D01*
X0263981Y0037787D01*
X0264096Y0037896D01*
X0264214Y0038001D01*
X0264335Y0038103D01*
X0264458Y0038203D01*
X0264584Y0038299D01*
X0264712Y0038392D01*
X0264842Y0038482D01*
X0264975Y0038568D01*
X0265110Y0038652D01*
X0265246Y0038731D01*
X0265385Y0038808D01*
X0265526Y0038880D01*
X0265668Y0038950D01*
X0265812Y0039015D01*
X0265958Y0039077D01*
X0266105Y0039135D01*
X0266254Y0039190D01*
X0266404Y0039241D01*
X0266555Y0039288D01*
X0266707Y0039331D01*
X0266860Y0039370D01*
X0267015Y0039406D01*
X0267170Y0039437D01*
X0267326Y0039465D01*
X0267482Y0039489D01*
X0267639Y0039509D01*
X0267797Y0039525D01*
X0267954Y0039537D01*
X0268113Y0039545D01*
X0268271Y0039549D01*
X0268429Y0039549D01*
X0268587Y0039545D01*
X0268746Y0039537D01*
X0268903Y0039525D01*
X0269061Y0039509D01*
X0269218Y0039489D01*
X0269374Y0039465D01*
X0269530Y0039437D01*
X0269685Y0039406D01*
X0269840Y0039370D01*
X0269993Y0039331D01*
X0270145Y0039288D01*
X0270296Y0039241D01*
X0270446Y0039190D01*
X0270595Y0039135D01*
X0270742Y0039077D01*
X0270888Y0039015D01*
X0271032Y0038950D01*
X0271174Y0038880D01*
X0271315Y0038808D01*
X0271454Y0038731D01*
X0271590Y0038652D01*
X0271725Y0038568D01*
X0271858Y0038482D01*
X0271988Y0038392D01*
X0272116Y0038299D01*
X0272242Y0038203D01*
X0272365Y0038103D01*
X0272486Y0038001D01*
X0272604Y0037896D01*
X0272719Y0037787D01*
X0272832Y0037676D01*
X0272942Y0037562D01*
X0273049Y0037445D01*
X0273153Y0037326D01*
X0273254Y0037204D01*
X0273351Y0037079D01*
X0273446Y0036952D01*
X0273537Y0036823D01*
X0273626Y0036692D01*
X0273710Y0036558D01*
X0273792Y0036422D01*
X0273870Y0036285D01*
X0273944Y0036145D01*
X0274015Y0036003D01*
X0274083Y0035860D01*
X0274147Y0035715D01*
X0274207Y0035569D01*
X0274263Y0035421D01*
X0274316Y0035272D01*
X0274365Y0035121D01*
X0274410Y0034969D01*
X0274451Y0034816D01*
X0274489Y0034663D01*
X0274522Y0034508D01*
X0274552Y0034352D01*
X0274578Y0034196D01*
X0274599Y0034039D01*
X0274617Y0033882D01*
X0274631Y0033724D01*
X0274641Y0033566D01*
X0274647Y0033408D01*
X0274649Y0033250D01*
X0274647Y0033092D01*
X0274641Y0032934D01*
X0274631Y0032776D01*
X0274617Y0032618D01*
X0274599Y0032461D01*
X0274578Y0032304D01*
X0274552Y0032148D01*
X0274522Y0031992D01*
X0274489Y0031837D01*
X0274451Y0031684D01*
X0274410Y0031531D01*
X0274365Y0031379D01*
X0274316Y0031228D01*
X0274263Y0031079D01*
X0274207Y0030931D01*
X0274147Y0030785D01*
X0274083Y0030640D01*
X0274015Y0030497D01*
X0273944Y0030355D01*
X0273870Y0030215D01*
X0273792Y0030078D01*
X0273710Y0029942D01*
X0273626Y0029808D01*
X0273537Y0029677D01*
X0273446Y0029548D01*
X0273351Y0029421D01*
X0273254Y0029296D01*
X0273153Y0029174D01*
X0273049Y0029055D01*
X0272942Y0028938D01*
X0272832Y0028824D01*
X0272719Y0028713D01*
X0272604Y0028604D01*
X0272486Y0028499D01*
X0272365Y0028397D01*
X0272242Y0028297D01*
X0272116Y0028201D01*
X0271988Y0028108D01*
X0271858Y0028018D01*
X0271725Y0027932D01*
X0271590Y0027848D01*
X0271454Y0027769D01*
X0271315Y0027692D01*
X0271174Y0027620D01*
X0271032Y0027550D01*
X0270888Y0027485D01*
X0270742Y0027423D01*
X0270595Y0027365D01*
X0270446Y0027310D01*
X0270296Y0027259D01*
X0270145Y0027212D01*
X0269993Y0027169D01*
X0269840Y0027130D01*
X0269685Y0027094D01*
X0269530Y0027063D01*
X0269374Y0027035D01*
X0269218Y0027011D01*
X0269061Y0026991D01*
X0268903Y0026975D01*
X0268746Y0026963D01*
X0268587Y0026955D01*
X0268429Y0026951D01*
X0268271Y0026951D01*
X0268113Y0026955D01*
X0267954Y0026963D01*
X0267797Y0026975D01*
X0267639Y0026991D01*
X0267482Y0027011D01*
X0267326Y0027035D01*
X0267170Y0027063D01*
X0267015Y0027094D01*
X0266860Y0027130D01*
X0266707Y0027169D01*
X0266555Y0027212D01*
X0266404Y0027259D01*
X0266254Y0027310D01*
X0266105Y0027365D01*
X0265958Y0027423D01*
X0265812Y0027485D01*
X0265668Y0027550D01*
X0265526Y0027620D01*
X0265385Y0027692D01*
X0265246Y0027769D01*
X0265110Y0027848D01*
X0264975Y0027932D01*
X0264842Y0028018D01*
X0264712Y0028108D01*
X0264584Y0028201D01*
X0264458Y0028297D01*
X0264335Y0028397D01*
X0264214Y0028499D01*
X0264096Y0028604D01*
X0263981Y0028713D01*
X0263868Y0028824D01*
X0263758Y0028938D01*
X0263651Y0029055D01*
X0263547Y0029174D01*
X0263446Y0029296D01*
X0263349Y0029421D01*
X0263254Y0029548D01*
X0263163Y0029677D01*
X0263074Y0029808D01*
X0262990Y0029942D01*
X0262908Y0030078D01*
X0262830Y0030215D01*
X0262756Y0030355D01*
X0262685Y0030497D01*
X0262617Y0030640D01*
X0262553Y0030785D01*
X0262493Y0030931D01*
X0262437Y0031079D01*
X0262384Y0031228D01*
X0262335Y0031379D01*
X0262290Y0031531D01*
X0262249Y0031684D01*
X0262211Y0031837D01*
X0262178Y0031992D01*
X0262148Y0032148D01*
X0262122Y0032304D01*
X0262101Y0032461D01*
X0262083Y0032618D01*
X0262069Y0032776D01*
X0262059Y0032934D01*
X0262053Y0033092D01*
X0262051Y0033250D01*
X0262051Y0143250D02*
X0262053Y0143408D01*
X0262059Y0143566D01*
X0262069Y0143724D01*
X0262083Y0143882D01*
X0262101Y0144039D01*
X0262122Y0144196D01*
X0262148Y0144352D01*
X0262178Y0144508D01*
X0262211Y0144663D01*
X0262249Y0144816D01*
X0262290Y0144969D01*
X0262335Y0145121D01*
X0262384Y0145272D01*
X0262437Y0145421D01*
X0262493Y0145569D01*
X0262553Y0145715D01*
X0262617Y0145860D01*
X0262685Y0146003D01*
X0262756Y0146145D01*
X0262830Y0146285D01*
X0262908Y0146422D01*
X0262990Y0146558D01*
X0263074Y0146692D01*
X0263163Y0146823D01*
X0263254Y0146952D01*
X0263349Y0147079D01*
X0263446Y0147204D01*
X0263547Y0147326D01*
X0263651Y0147445D01*
X0263758Y0147562D01*
X0263868Y0147676D01*
X0263981Y0147787D01*
X0264096Y0147896D01*
X0264214Y0148001D01*
X0264335Y0148103D01*
X0264458Y0148203D01*
X0264584Y0148299D01*
X0264712Y0148392D01*
X0264842Y0148482D01*
X0264975Y0148568D01*
X0265110Y0148652D01*
X0265246Y0148731D01*
X0265385Y0148808D01*
X0265526Y0148880D01*
X0265668Y0148950D01*
X0265812Y0149015D01*
X0265958Y0149077D01*
X0266105Y0149135D01*
X0266254Y0149190D01*
X0266404Y0149241D01*
X0266555Y0149288D01*
X0266707Y0149331D01*
X0266860Y0149370D01*
X0267015Y0149406D01*
X0267170Y0149437D01*
X0267326Y0149465D01*
X0267482Y0149489D01*
X0267639Y0149509D01*
X0267797Y0149525D01*
X0267954Y0149537D01*
X0268113Y0149545D01*
X0268271Y0149549D01*
X0268429Y0149549D01*
X0268587Y0149545D01*
X0268746Y0149537D01*
X0268903Y0149525D01*
X0269061Y0149509D01*
X0269218Y0149489D01*
X0269374Y0149465D01*
X0269530Y0149437D01*
X0269685Y0149406D01*
X0269840Y0149370D01*
X0269993Y0149331D01*
X0270145Y0149288D01*
X0270296Y0149241D01*
X0270446Y0149190D01*
X0270595Y0149135D01*
X0270742Y0149077D01*
X0270888Y0149015D01*
X0271032Y0148950D01*
X0271174Y0148880D01*
X0271315Y0148808D01*
X0271454Y0148731D01*
X0271590Y0148652D01*
X0271725Y0148568D01*
X0271858Y0148482D01*
X0271988Y0148392D01*
X0272116Y0148299D01*
X0272242Y0148203D01*
X0272365Y0148103D01*
X0272486Y0148001D01*
X0272604Y0147896D01*
X0272719Y0147787D01*
X0272832Y0147676D01*
X0272942Y0147562D01*
X0273049Y0147445D01*
X0273153Y0147326D01*
X0273254Y0147204D01*
X0273351Y0147079D01*
X0273446Y0146952D01*
X0273537Y0146823D01*
X0273626Y0146692D01*
X0273710Y0146558D01*
X0273792Y0146422D01*
X0273870Y0146285D01*
X0273944Y0146145D01*
X0274015Y0146003D01*
X0274083Y0145860D01*
X0274147Y0145715D01*
X0274207Y0145569D01*
X0274263Y0145421D01*
X0274316Y0145272D01*
X0274365Y0145121D01*
X0274410Y0144969D01*
X0274451Y0144816D01*
X0274489Y0144663D01*
X0274522Y0144508D01*
X0274552Y0144352D01*
X0274578Y0144196D01*
X0274599Y0144039D01*
X0274617Y0143882D01*
X0274631Y0143724D01*
X0274641Y0143566D01*
X0274647Y0143408D01*
X0274649Y0143250D01*
X0274647Y0143092D01*
X0274641Y0142934D01*
X0274631Y0142776D01*
X0274617Y0142618D01*
X0274599Y0142461D01*
X0274578Y0142304D01*
X0274552Y0142148D01*
X0274522Y0141992D01*
X0274489Y0141837D01*
X0274451Y0141684D01*
X0274410Y0141531D01*
X0274365Y0141379D01*
X0274316Y0141228D01*
X0274263Y0141079D01*
X0274207Y0140931D01*
X0274147Y0140785D01*
X0274083Y0140640D01*
X0274015Y0140497D01*
X0273944Y0140355D01*
X0273870Y0140215D01*
X0273792Y0140078D01*
X0273710Y0139942D01*
X0273626Y0139808D01*
X0273537Y0139677D01*
X0273446Y0139548D01*
X0273351Y0139421D01*
X0273254Y0139296D01*
X0273153Y0139174D01*
X0273049Y0139055D01*
X0272942Y0138938D01*
X0272832Y0138824D01*
X0272719Y0138713D01*
X0272604Y0138604D01*
X0272486Y0138499D01*
X0272365Y0138397D01*
X0272242Y0138297D01*
X0272116Y0138201D01*
X0271988Y0138108D01*
X0271858Y0138018D01*
X0271725Y0137932D01*
X0271590Y0137848D01*
X0271454Y0137769D01*
X0271315Y0137692D01*
X0271174Y0137620D01*
X0271032Y0137550D01*
X0270888Y0137485D01*
X0270742Y0137423D01*
X0270595Y0137365D01*
X0270446Y0137310D01*
X0270296Y0137259D01*
X0270145Y0137212D01*
X0269993Y0137169D01*
X0269840Y0137130D01*
X0269685Y0137094D01*
X0269530Y0137063D01*
X0269374Y0137035D01*
X0269218Y0137011D01*
X0269061Y0136991D01*
X0268903Y0136975D01*
X0268746Y0136963D01*
X0268587Y0136955D01*
X0268429Y0136951D01*
X0268271Y0136951D01*
X0268113Y0136955D01*
X0267954Y0136963D01*
X0267797Y0136975D01*
X0267639Y0136991D01*
X0267482Y0137011D01*
X0267326Y0137035D01*
X0267170Y0137063D01*
X0267015Y0137094D01*
X0266860Y0137130D01*
X0266707Y0137169D01*
X0266555Y0137212D01*
X0266404Y0137259D01*
X0266254Y0137310D01*
X0266105Y0137365D01*
X0265958Y0137423D01*
X0265812Y0137485D01*
X0265668Y0137550D01*
X0265526Y0137620D01*
X0265385Y0137692D01*
X0265246Y0137769D01*
X0265110Y0137848D01*
X0264975Y0137932D01*
X0264842Y0138018D01*
X0264712Y0138108D01*
X0264584Y0138201D01*
X0264458Y0138297D01*
X0264335Y0138397D01*
X0264214Y0138499D01*
X0264096Y0138604D01*
X0263981Y0138713D01*
X0263868Y0138824D01*
X0263758Y0138938D01*
X0263651Y0139055D01*
X0263547Y0139174D01*
X0263446Y0139296D01*
X0263349Y0139421D01*
X0263254Y0139548D01*
X0263163Y0139677D01*
X0263074Y0139808D01*
X0262990Y0139942D01*
X0262908Y0140078D01*
X0262830Y0140215D01*
X0262756Y0140355D01*
X0262685Y0140497D01*
X0262617Y0140640D01*
X0262553Y0140785D01*
X0262493Y0140931D01*
X0262437Y0141079D01*
X0262384Y0141228D01*
X0262335Y0141379D01*
X0262290Y0141531D01*
X0262249Y0141684D01*
X0262211Y0141837D01*
X0262178Y0141992D01*
X0262148Y0142148D01*
X0262122Y0142304D01*
X0262101Y0142461D01*
X0262083Y0142618D01*
X0262069Y0142776D01*
X0262059Y0142934D01*
X0262053Y0143092D01*
X0262051Y0143250D01*
D12*
X0258350Y0200450D02*
X0258350Y0206050D01*
X0248350Y0206050D02*
X0248350Y0200450D01*
X0238350Y0200450D02*
X0238350Y0206050D01*
X0228350Y0206050D02*
X0228350Y0200450D01*
X0218350Y0200450D02*
X0218350Y0206050D01*
X0208350Y0206050D02*
X0208350Y0200450D01*
X0198350Y0200450D02*
X0198350Y0206050D01*
X0188350Y0206050D02*
X0188350Y0200450D01*
X0172350Y0200450D02*
X0172350Y0206050D01*
X0162350Y0206050D02*
X0162350Y0200450D01*
X0152350Y0200450D02*
X0152350Y0206050D01*
X0142350Y0206050D02*
X0142350Y0200450D01*
X0132350Y0200450D02*
X0132350Y0206050D01*
X0122350Y0206050D02*
X0122350Y0200450D01*
X0112350Y0200450D02*
X0112350Y0206050D01*
X0102350Y0206050D02*
X0102350Y0200450D01*
X0092350Y0200450D02*
X0092350Y0206050D01*
X0082350Y0206050D02*
X0082350Y0200450D01*
X0125850Y0085550D02*
X0125850Y0079950D01*
X0135850Y0079950D02*
X0135850Y0085550D01*
X0145850Y0085550D02*
X0145850Y0079950D01*
X0155850Y0079950D02*
X0155850Y0085550D01*
X0165850Y0085550D02*
X0165850Y0079950D01*
X0175850Y0079950D02*
X0175850Y0085550D01*
X0185850Y0085550D02*
X0185850Y0079950D01*
X0195850Y0079950D02*
X0195850Y0085550D01*
X0205850Y0085550D02*
X0205850Y0079950D01*
X0215850Y0079950D02*
X0215850Y0085550D01*
X0225850Y0085550D02*
X0225850Y0079950D01*
X0235850Y0079950D02*
X0235850Y0085550D01*
X0245850Y0085550D02*
X0245850Y0079950D01*
X0255850Y0079950D02*
X0255850Y0085550D01*
X0255850Y0055550D02*
X0255850Y0049950D01*
X0245850Y0049950D02*
X0245850Y0055550D01*
X0235850Y0055550D02*
X0235850Y0049950D01*
X0225850Y0049950D02*
X0225850Y0055550D01*
X0215850Y0055550D02*
X0215850Y0049950D01*
X0205850Y0049950D02*
X0205850Y0055550D01*
X0195850Y0055550D02*
X0195850Y0049950D01*
X0185850Y0049950D02*
X0185850Y0055550D01*
X0175850Y0055550D02*
X0175850Y0049950D01*
X0165850Y0049950D02*
X0165850Y0055550D01*
X0155850Y0055550D02*
X0155850Y0049950D01*
X0145850Y0049950D02*
X0145850Y0055550D01*
X0135850Y0055550D02*
X0135850Y0049950D01*
X0125850Y0049950D02*
X0125850Y0055550D01*
X0128350Y0016050D02*
X0128350Y0010450D01*
X0118350Y0010450D02*
X0118350Y0016050D01*
X0138350Y0016050D02*
X0138350Y0010450D01*
X0148350Y0010450D02*
X0148350Y0016050D01*
X0158350Y0016050D02*
X0158350Y0010450D01*
X0168350Y0010450D02*
X0168350Y0016050D01*
X0178350Y0016050D02*
X0178350Y0010450D01*
X0188350Y0010450D02*
X0188350Y0016050D01*
X0208350Y0016050D02*
X0208350Y0010450D01*
X0218350Y0010450D02*
X0218350Y0016050D01*
X0228350Y0016050D02*
X0228350Y0010450D01*
X0238350Y0010450D02*
X0238350Y0016050D01*
X0248350Y0016050D02*
X0248350Y0010450D01*
X0258350Y0010450D02*
X0258350Y0016050D01*
D13*
X0258850Y0103250D03*
X0268850Y0103250D03*
X0268850Y0113250D03*
X0258850Y0113250D03*
X0258850Y0123250D03*
X0268850Y0123250D03*
D14*
X0054350Y0035950D03*
X0042550Y0016250D03*
D15*
X0030750Y0035950D03*
D16*
X0030750Y0032950D03*
X0030750Y0038950D03*
X0054350Y0038950D03*
X0054350Y0032950D03*
X0045550Y0016250D03*
X0039550Y0016250D03*
D17*
X0040850Y0057450D02*
X0040850Y0064050D01*
X0030850Y0064050D02*
X0030850Y0057450D01*
X0050850Y0057450D02*
X0050850Y0064050D01*
D18*
X0072850Y0103750D03*
X0112850Y0103750D03*
X0141850Y0153750D03*
X0141850Y0163750D03*
X0141850Y0173750D03*
X0181850Y0173750D03*
X0181850Y0163750D03*
X0181850Y0153750D03*
X0209850Y0134750D03*
X0209850Y0094750D03*
X0166850Y0036750D03*
X0126850Y0036750D03*
D19*
X0102450Y0085250D03*
X0161350Y0100750D03*
X0180350Y0100750D03*
X0235350Y0113750D03*
D20*
X0180350Y0116250D03*
X0180350Y0126250D03*
X0161350Y0126250D03*
X0161350Y0116250D03*
X0154850Y0141250D03*
X0144850Y0141250D03*
X0108350Y0061250D03*
X0108350Y0051250D03*
X0176350Y0038250D03*
X0176350Y0028250D03*
X0189350Y0028250D03*
X0189350Y0038250D03*
D21*
X0089350Y0046750D03*
X0074850Y0080250D03*
D22*
X0088850Y0080250D03*
X0075350Y0046750D03*
D23*
X0123397Y0123750D02*
X0129303Y0123750D01*
X0129303Y0133750D02*
X0123397Y0133750D01*
X0123397Y0143750D02*
X0129303Y0143750D01*
X0129303Y0153750D02*
X0123397Y0153750D01*
X0123397Y0163750D02*
X0129303Y0163750D01*
X0129303Y0173750D02*
X0123397Y0173750D01*
D24*
X0109350Y0023250D03*
X0074350Y0023250D03*
D25*
X0112450Y0085250D03*
X0225350Y0113750D03*
D26*
X0052550Y0188850D02*
X0046550Y0188850D01*
X0026950Y0188850D02*
X0020950Y0188850D01*
X0020950Y0206650D02*
X0026950Y0206650D01*
X0046550Y0206650D02*
X0052550Y0206650D01*
D27*
X0173350Y0028250D02*
X0176350Y0028250D01*
X0173350Y0028250D02*
X0168350Y0023250D01*
X0163350Y0023250D01*
X0158350Y0018250D01*
X0158350Y0013250D01*
D28*
X0163350Y0013250D02*
X0163350Y0010056D01*
X0163473Y0009279D01*
X0163716Y0008531D01*
X0164074Y0007829D01*
X0164536Y0007193D01*
X0164779Y0006950D01*
X0161921Y0006950D01*
X0162589Y0007618D01*
X0163350Y0009455D01*
X0163350Y0017045D01*
X0162858Y0018232D01*
X0164675Y0020050D01*
X0165349Y0020050D01*
X0165093Y0019864D01*
X0164536Y0019307D01*
X0164074Y0018671D01*
X0163716Y0017969D01*
X0163473Y0017221D01*
X0163350Y0016444D01*
X0163350Y0013250D01*
X0168350Y0013250D01*
X0173350Y0013250D01*
X0173350Y0016444D01*
X0173227Y0017221D01*
X0172984Y0017969D01*
X0172626Y0018671D01*
X0172164Y0019307D01*
X0171607Y0019864D01*
X0170971Y0020326D01*
X0170296Y0020670D01*
X0174023Y0024397D01*
X0175465Y0023800D01*
X0177235Y0023800D01*
X0178871Y0024477D01*
X0180123Y0025729D01*
X0180800Y0027365D01*
X0180800Y0029135D01*
X0180214Y0030550D01*
X0185528Y0030550D01*
X0185226Y0029958D01*
X0185010Y0029292D01*
X0184900Y0028600D01*
X0184900Y0028250D01*
X0189350Y0028250D01*
X0193800Y0028250D01*
X0193800Y0028600D01*
X0193690Y0029292D01*
X0193474Y0029958D01*
X0193172Y0030550D01*
X0236232Y0030550D01*
X0245950Y0020832D01*
X0245950Y0020468D01*
X0245518Y0020289D01*
X0244111Y0018882D01*
X0243350Y0017045D01*
X0242589Y0018882D01*
X0241182Y0020289D01*
X0239345Y0021050D01*
X0237355Y0021050D01*
X0235518Y0020289D01*
X0234111Y0018882D01*
X0233350Y0017045D01*
X0232589Y0018882D01*
X0231182Y0020289D01*
X0229345Y0021050D01*
X0227355Y0021050D01*
X0225518Y0020289D01*
X0224111Y0018882D01*
X0223350Y0017045D01*
X0222589Y0018882D01*
X0221182Y0020289D01*
X0219345Y0021050D01*
X0217355Y0021050D01*
X0215518Y0020289D01*
X0214111Y0018882D01*
X0213350Y0017045D01*
X0212589Y0018882D01*
X0211182Y0020289D01*
X0209345Y0021050D01*
X0207355Y0021050D01*
X0205518Y0020289D01*
X0204111Y0018882D01*
X0203350Y0017045D01*
X0203350Y0009455D01*
X0204111Y0007618D01*
X0204779Y0006950D01*
X0191921Y0006950D01*
X0192589Y0007618D01*
X0193350Y0009455D01*
X0193350Y0017045D01*
X0192589Y0018882D01*
X0191182Y0020289D01*
X0189345Y0021050D01*
X0187355Y0021050D01*
X0185518Y0020289D01*
X0184111Y0018882D01*
X0183350Y0017045D01*
X0183350Y0009455D01*
X0184111Y0007618D01*
X0184779Y0006950D01*
X0181921Y0006950D01*
X0182164Y0007193D01*
X0182626Y0007829D01*
X0182984Y0008531D01*
X0183227Y0009279D01*
X0183350Y0010056D01*
X0183350Y0013250D01*
X0183350Y0016444D01*
X0183227Y0017221D01*
X0182984Y0017969D01*
X0182626Y0018671D01*
X0182164Y0019307D01*
X0181607Y0019864D01*
X0180971Y0020326D01*
X0180269Y0020684D01*
X0179521Y0020927D01*
X0178744Y0021050D01*
X0178350Y0021050D01*
X0178350Y0013250D01*
X0178350Y0013250D01*
X0183350Y0013250D01*
X0178350Y0013250D01*
X0178350Y0013250D01*
X0178350Y0013250D01*
X0173350Y0013250D01*
X0173350Y0016444D01*
X0173473Y0017221D01*
X0173716Y0017969D01*
X0174074Y0018671D01*
X0174536Y0019307D01*
X0175093Y0019864D01*
X0175729Y0020326D01*
X0176431Y0020684D01*
X0177179Y0020927D01*
X0177956Y0021050D01*
X0178350Y0021050D01*
X0178350Y0013250D01*
X0173350Y0013250D01*
X0168350Y0013250D01*
X0168350Y0013250D01*
X0168350Y0013250D01*
X0163350Y0013250D01*
X0163350Y0012844D02*
X0163350Y0012844D01*
X0163350Y0010446D02*
X0163350Y0010446D01*
X0162767Y0008047D02*
X0163963Y0008047D01*
X0171921Y0006950D02*
X0172164Y0007193D01*
X0172626Y0007829D01*
X0172984Y0008531D01*
X0173227Y0009279D01*
X0173350Y0010056D01*
X0173350Y0013250D01*
X0173350Y0010056D01*
X0173473Y0009279D01*
X0173716Y0008531D01*
X0174074Y0007829D01*
X0174536Y0007193D01*
X0174779Y0006950D01*
X0171921Y0006950D01*
X0172737Y0008047D02*
X0173963Y0008047D01*
X0173350Y0010446D02*
X0173350Y0010446D01*
X0173350Y0012844D02*
X0173350Y0012844D01*
X0173350Y0015243D02*
X0173350Y0015243D01*
X0173090Y0017641D02*
X0173610Y0017641D01*
X0175335Y0020040D02*
X0171365Y0020040D01*
X0172064Y0022438D02*
X0244344Y0022438D01*
X0245269Y0020040D02*
X0241431Y0020040D01*
X0243103Y0017641D02*
X0243597Y0017641D01*
X0243350Y0017045D02*
X0243350Y0009455D01*
X0242589Y0007618D01*
X0241921Y0006950D01*
X0244779Y0006950D01*
X0244111Y0007618D01*
X0243350Y0009455D01*
X0243350Y0017045D01*
X0243350Y0015243D02*
X0243350Y0015243D01*
X0243350Y0012844D02*
X0243350Y0012844D01*
X0243350Y0010446D02*
X0243350Y0010446D01*
X0242767Y0008047D02*
X0243933Y0008047D01*
X0251921Y0006950D02*
X0252589Y0007618D01*
X0253350Y0009455D01*
X0253350Y0017045D01*
X0252589Y0018882D01*
X0251350Y0020121D01*
X0251350Y0022487D01*
X0250939Y0023479D01*
X0250179Y0024239D01*
X0238879Y0035539D01*
X0237887Y0035950D01*
X0193214Y0035950D01*
X0193800Y0037365D01*
X0193800Y0039135D01*
X0193123Y0040771D01*
X0191871Y0042023D01*
X0190235Y0042700D01*
X0188465Y0042700D01*
X0186829Y0042023D01*
X0185577Y0040771D01*
X0184900Y0039135D01*
X0184900Y0037365D01*
X0185486Y0035950D01*
X0180172Y0035950D01*
X0180474Y0036542D01*
X0180690Y0037208D01*
X0180800Y0037900D01*
X0180800Y0038250D01*
X0180800Y0038600D01*
X0180690Y0039292D01*
X0180474Y0039958D01*
X0180156Y0040582D01*
X0180143Y0040600D01*
X0180376Y0040600D01*
X0181809Y0041194D01*
X0182906Y0042291D01*
X0183500Y0043724D01*
X0183500Y0045276D01*
X0183382Y0045560D01*
X0184855Y0044950D01*
X0186845Y0044950D01*
X0188682Y0045711D01*
X0190089Y0047118D01*
X0190850Y0048955D01*
X0190850Y0056545D01*
X0190089Y0058382D01*
X0190074Y0058397D01*
X0190083Y0058397D01*
X0190320Y0058347D01*
X0190614Y0058403D01*
X0190914Y0058406D01*
X0191137Y0058501D01*
X0191375Y0058545D01*
X0191627Y0058709D01*
X0191903Y0058827D01*
X0192072Y0059000D01*
X0192226Y0059100D01*
X0192329Y0059100D01*
X0192036Y0058807D01*
X0191574Y0058171D01*
X0191216Y0057469D01*
X0190973Y0056721D01*
X0190850Y0055944D01*
X0190850Y0052750D01*
X0195850Y0052750D01*
X0195850Y0052750D01*
X0195850Y0060550D01*
X0196244Y0060550D01*
X0197021Y0060427D01*
X0197769Y0060184D01*
X0198471Y0059826D01*
X0199107Y0059364D01*
X0199664Y0058807D01*
X0200126Y0058171D01*
X0200484Y0057469D01*
X0200727Y0056721D01*
X0200850Y0055944D01*
X0200850Y0052750D01*
X0195850Y0052750D01*
X0195850Y0052750D01*
X0195850Y0060550D01*
X0195456Y0060550D01*
X0194679Y0060427D01*
X0194550Y0060385D01*
X0194956Y0060791D01*
X0195550Y0062224D01*
X0195550Y0063776D01*
X0194956Y0065209D01*
X0193859Y0066306D01*
X0192426Y0066900D01*
X0190874Y0066900D01*
X0189557Y0066354D01*
X0189241Y0067116D01*
X0188116Y0068241D01*
X0186646Y0068850D01*
X0185791Y0068850D01*
X0183983Y0070750D01*
X0189632Y0070750D01*
X0197221Y0063161D01*
X0198213Y0062750D01*
X0204576Y0062750D01*
X0205097Y0062229D01*
X0206494Y0061650D01*
X0208006Y0061650D01*
X0209403Y0062229D01*
X0210471Y0063297D01*
X0211050Y0064694D01*
X0211050Y0066206D01*
X0210471Y0067603D01*
X0209403Y0068671D01*
X0208006Y0069250D01*
X0206494Y0069250D01*
X0205097Y0068671D01*
X0204576Y0068150D01*
X0199868Y0068150D01*
X0193039Y0074979D01*
X0192279Y0075739D01*
X0191287Y0076150D01*
X0189121Y0076150D01*
X0189664Y0076693D01*
X0190126Y0077329D01*
X0190484Y0078031D01*
X0190727Y0078779D01*
X0190850Y0079556D01*
X0190850Y0082750D01*
X0190850Y0085944D01*
X0190727Y0086721D01*
X0190685Y0086850D01*
X0190977Y0086850D01*
X0190850Y0086545D01*
X0190850Y0078955D01*
X0191611Y0077118D01*
X0193018Y0075711D01*
X0194855Y0074950D01*
X0196845Y0074950D01*
X0198682Y0075711D01*
X0200089Y0077118D01*
X0200850Y0078955D01*
X0201611Y0077118D01*
X0203018Y0075711D01*
X0204855Y0074950D01*
X0206845Y0074950D01*
X0208682Y0075711D01*
X0210089Y0077118D01*
X0210850Y0078955D01*
X0211611Y0077118D01*
X0213018Y0075711D01*
X0214855Y0074950D01*
X0216845Y0074950D01*
X0218682Y0075711D01*
X0220089Y0077118D01*
X0220850Y0078955D01*
X0220850Y0086545D01*
X0220089Y0088382D01*
X0218682Y0089789D01*
X0216845Y0090550D01*
X0214855Y0090550D01*
X0213018Y0089789D01*
X0211611Y0088382D01*
X0210850Y0086545D01*
X0210850Y0078955D01*
X0210850Y0086545D01*
X0210089Y0088382D01*
X0208682Y0089789D01*
X0206845Y0090550D01*
X0204868Y0090550D01*
X0204615Y0090803D01*
X0205559Y0091194D01*
X0206230Y0091865D01*
X0207945Y0090150D01*
X0211755Y0090150D01*
X0214450Y0092845D01*
X0214450Y0094135D01*
X0214891Y0093694D01*
X0216324Y0093100D01*
X0217876Y0093100D01*
X0219309Y0093694D01*
X0220406Y0094791D01*
X0221000Y0096224D01*
X0221000Y0097776D01*
X0220771Y0098329D01*
X0221324Y0098100D01*
X0222876Y0098100D01*
X0224309Y0098694D01*
X0225406Y0099791D01*
X0226000Y0101224D01*
X0226000Y0102776D01*
X0225406Y0104209D01*
X0224309Y0105306D01*
X0222876Y0105900D01*
X0222018Y0105900D01*
X0213500Y0114418D01*
X0213500Y0115276D01*
X0212906Y0116709D01*
X0211809Y0117806D01*
X0210376Y0118400D01*
X0208824Y0118400D01*
X0207391Y0117806D01*
X0206294Y0116709D01*
X0205700Y0115276D01*
X0205700Y0113724D01*
X0205834Y0113400D01*
X0205074Y0113400D01*
X0203641Y0112806D01*
X0202544Y0111709D01*
X0201950Y0110276D01*
X0201950Y0108724D01*
X0202544Y0107291D01*
X0203641Y0106194D01*
X0205074Y0105600D01*
X0205932Y0105600D01*
X0210571Y0100961D01*
X0211563Y0100550D01*
X0214400Y0100550D01*
X0214400Y0099815D01*
X0213794Y0099209D01*
X0213238Y0097867D01*
X0211755Y0099350D01*
X0207945Y0099350D01*
X0205980Y0097385D01*
X0205559Y0097806D01*
X0204126Y0098400D01*
X0203268Y0098400D01*
X0191129Y0110539D01*
X0190137Y0110950D01*
X0156563Y0110950D01*
X0155571Y0110539D01*
X0154811Y0109779D01*
X0149569Y0104537D01*
X0149750Y0104974D01*
X0149750Y0106526D01*
X0149156Y0107959D01*
X0148059Y0109056D01*
X0146626Y0109650D01*
X0145768Y0109650D01*
X0143500Y0111918D01*
X0143500Y0112776D01*
X0142906Y0114209D01*
X0141809Y0115306D01*
X0140865Y0115697D01*
X0161129Y0135961D01*
X0161889Y0136721D01*
X0162300Y0137713D01*
X0162300Y0141285D01*
X0162391Y0141194D01*
X0163824Y0140600D01*
X0165376Y0140600D01*
X0166809Y0141194D01*
X0167415Y0141800D01*
X0180137Y0141800D01*
X0180258Y0141850D01*
X0181626Y0141850D01*
X0183059Y0142444D01*
X0184156Y0143541D01*
X0184750Y0144974D01*
X0184750Y0146526D01*
X0184156Y0147959D01*
X0183059Y0149056D01*
X0182833Y0149150D01*
X0183755Y0149150D01*
X0186450Y0151845D01*
X0186450Y0155655D01*
X0183755Y0158350D01*
X0179945Y0158350D01*
X0177250Y0155655D01*
X0177250Y0151845D01*
X0179629Y0149466D01*
X0178641Y0149056D01*
X0177544Y0147959D01*
X0177229Y0147200D01*
X0167415Y0147200D01*
X0166809Y0147806D01*
X0165865Y0148197D01*
X0176129Y0158461D01*
X0176889Y0159221D01*
X0177300Y0160213D01*
X0177300Y0161795D01*
X0179945Y0159150D01*
X0183755Y0159150D01*
X0186450Y0161845D01*
X0186450Y0165655D01*
X0183755Y0168350D01*
X0179945Y0168350D01*
X0177300Y0165705D01*
X0177300Y0171795D01*
X0179945Y0169150D01*
X0181850Y0169150D01*
X0183755Y0169150D01*
X0186450Y0171845D01*
X0186450Y0173750D01*
X0186450Y0175655D01*
X0183755Y0178350D01*
X0181850Y0178350D01*
X0181850Y0173750D01*
X0186450Y0173750D01*
X0181850Y0173750D01*
X0181850Y0173750D01*
X0181850Y0173750D01*
X0181850Y0169150D01*
X0181850Y0173750D01*
X0181850Y0173750D01*
X0181850Y0178350D01*
X0179945Y0178350D01*
X0177300Y0175705D01*
X0177300Y0186964D01*
X0177574Y0186850D01*
X0179126Y0186850D01*
X0180559Y0187444D01*
X0181656Y0188541D01*
X0182250Y0189974D01*
X0182250Y0191526D01*
X0182069Y0191963D01*
X0203561Y0170471D01*
X0204321Y0169711D01*
X0205313Y0169300D01*
X0212064Y0169300D01*
X0211950Y0169026D01*
X0211950Y0168168D01*
X0180932Y0137150D01*
X0180074Y0137150D01*
X0178641Y0136556D01*
X0177544Y0135459D01*
X0176950Y0134026D01*
X0176950Y0132474D01*
X0177544Y0131041D01*
X0178356Y0130228D01*
X0178018Y0130056D01*
X0177451Y0129644D01*
X0176956Y0129149D01*
X0176544Y0128582D01*
X0176226Y0127958D01*
X0176010Y0127292D01*
X0175900Y0126600D01*
X0175900Y0126250D01*
X0180350Y0126250D01*
X0184800Y0126250D01*
X0184800Y0126600D01*
X0184690Y0127292D01*
X0184474Y0127958D01*
X0184156Y0128582D01*
X0183744Y0129149D01*
X0183249Y0129644D01*
X0182918Y0129885D01*
X0183059Y0129944D01*
X0184156Y0131041D01*
X0184750Y0132474D01*
X0184750Y0133332D01*
X0215768Y0164350D01*
X0216626Y0164350D01*
X0218059Y0164944D01*
X0219156Y0166041D01*
X0219750Y0167474D01*
X0219750Y0169026D01*
X0219636Y0169300D01*
X0224732Y0169300D01*
X0248334Y0145697D01*
X0247391Y0145306D01*
X0246294Y0144209D01*
X0245700Y0142776D01*
X0245700Y0141224D01*
X0246294Y0139791D01*
X0246900Y0139185D01*
X0246900Y0110618D01*
X0226832Y0090550D01*
X0224855Y0090550D01*
X0223018Y0089789D01*
X0221611Y0088382D01*
X0220850Y0086545D01*
X0220850Y0078955D01*
X0221611Y0077118D01*
X0223018Y0075711D01*
X0224855Y0074950D01*
X0226845Y0074950D01*
X0228682Y0075711D01*
X0230089Y0077118D01*
X0230850Y0078955D01*
X0231611Y0077118D01*
X0233018Y0075711D01*
X0234855Y0074950D01*
X0236845Y0074950D01*
X0238682Y0075711D01*
X0240089Y0077118D01*
X0240850Y0078955D01*
X0241611Y0077118D01*
X0243018Y0075711D01*
X0244855Y0074950D01*
X0246845Y0074950D01*
X0248682Y0075711D01*
X0250089Y0077118D01*
X0250850Y0078955D01*
X0251611Y0077118D01*
X0253018Y0075711D01*
X0254855Y0074950D01*
X0256845Y0074950D01*
X0258682Y0075711D01*
X0260089Y0077118D01*
X0260850Y0078955D01*
X0260850Y0086545D01*
X0260089Y0088382D01*
X0259171Y0089300D01*
X0268350Y0089300D01*
X0268350Y0042749D01*
X0266460Y0042749D01*
X0262969Y0041303D01*
X0260297Y0038631D01*
X0258851Y0035140D01*
X0258851Y0031360D01*
X0260297Y0027869D01*
X0262969Y0025197D01*
X0266460Y0023751D01*
X0268350Y0023751D01*
X0268350Y0018483D01*
X0266254Y0016387D01*
X0265213Y0015346D01*
X0264650Y0013986D01*
X0264650Y0007187D01*
X0264645Y0007141D01*
X0264610Y0007055D01*
X0264545Y0006990D01*
X0264459Y0006955D01*
X0264413Y0006950D01*
X0261921Y0006950D01*
X0262589Y0007618D01*
X0263350Y0009455D01*
X0263350Y0017045D01*
X0262589Y0018882D01*
X0261182Y0020289D01*
X0259345Y0021050D01*
X0257355Y0021050D01*
X0255518Y0020289D01*
X0254111Y0018882D01*
X0253350Y0017045D01*
X0253350Y0009455D01*
X0254111Y0007618D01*
X0254779Y0006950D01*
X0251921Y0006950D01*
X0252767Y0008047D02*
X0253933Y0008047D01*
X0253350Y0010446D02*
X0253350Y0010446D01*
X0253350Y0012844D02*
X0253350Y0012844D01*
X0253350Y0015243D02*
X0253350Y0015243D01*
X0253103Y0017641D02*
X0253597Y0017641D01*
X0255269Y0020040D02*
X0251431Y0020040D01*
X0251350Y0022438D02*
X0268350Y0022438D01*
X0268350Y0020040D02*
X0261431Y0020040D01*
X0263103Y0017641D02*
X0267508Y0017641D01*
X0266254Y0016387D02*
X0266254Y0016387D01*
X0265170Y0015243D02*
X0263350Y0015243D01*
X0263350Y0012844D02*
X0264650Y0012844D01*
X0264650Y0010446D02*
X0263350Y0010446D01*
X0262767Y0008047D02*
X0264650Y0008047D01*
X0263839Y0024837D02*
X0249582Y0024837D01*
X0247183Y0027235D02*
X0260931Y0027235D01*
X0259566Y0029634D02*
X0244785Y0029634D01*
X0242386Y0032032D02*
X0258851Y0032032D01*
X0258851Y0034431D02*
X0239988Y0034431D01*
X0237148Y0029634D02*
X0193579Y0029634D01*
X0193800Y0028250D02*
X0189350Y0028250D01*
X0189350Y0028250D01*
X0189350Y0028250D01*
X0189350Y0023800D01*
X0189700Y0023800D01*
X0190392Y0023910D01*
X0191058Y0024126D01*
X0191682Y0024444D01*
X0192249Y0024856D01*
X0192744Y0025351D01*
X0193156Y0025918D01*
X0193474Y0026542D01*
X0193690Y0027208D01*
X0193800Y0027900D01*
X0193800Y0028250D01*
X0193695Y0027235D02*
X0239547Y0027235D01*
X0241945Y0024837D02*
X0192223Y0024837D01*
X0189350Y0024837D02*
X0189350Y0024837D01*
X0189350Y0023800D02*
X0189350Y0028250D01*
X0189350Y0028250D01*
X0184900Y0028250D01*
X0184900Y0027900D01*
X0185010Y0027208D01*
X0185226Y0026542D01*
X0185544Y0025918D01*
X0185956Y0025351D01*
X0186451Y0024856D01*
X0187018Y0024444D01*
X0187642Y0024126D01*
X0188308Y0023910D01*
X0189000Y0023800D01*
X0189350Y0023800D01*
X0186477Y0024837D02*
X0179230Y0024837D01*
X0180746Y0027235D02*
X0185005Y0027235D01*
X0185121Y0029634D02*
X0180594Y0029634D01*
X0189350Y0027235D02*
X0189350Y0027235D01*
X0191431Y0020040D02*
X0205269Y0020040D01*
X0203597Y0017641D02*
X0193103Y0017641D01*
X0193350Y0015243D02*
X0203350Y0015243D01*
X0203350Y0012844D02*
X0193350Y0012844D01*
X0193350Y0010446D02*
X0203350Y0010446D01*
X0203933Y0008047D02*
X0192767Y0008047D01*
X0183933Y0008047D02*
X0182737Y0008047D01*
X0183350Y0010446D02*
X0183350Y0010446D01*
X0183350Y0012844D02*
X0183350Y0012844D01*
X0183350Y0015243D02*
X0183350Y0015243D01*
X0183597Y0017641D02*
X0183090Y0017641D01*
X0181365Y0020040D02*
X0185269Y0020040D01*
X0178350Y0020040D02*
X0178350Y0020040D01*
X0178350Y0017641D02*
X0178350Y0017641D01*
X0178350Y0015243D02*
X0178350Y0015243D01*
X0165335Y0020040D02*
X0164665Y0020040D01*
X0163610Y0017641D02*
X0163103Y0017641D01*
X0163350Y0015243D02*
X0163350Y0015243D01*
X0158013Y0022438D02*
X0141050Y0022438D01*
X0141050Y0023787D02*
X0141050Y0020344D01*
X0141182Y0020289D01*
X0142589Y0018882D01*
X0143350Y0017045D01*
X0143350Y0009455D01*
X0142589Y0007618D01*
X0141921Y0006950D01*
X0144779Y0006950D01*
X0144111Y0007618D01*
X0143350Y0009455D01*
X0143350Y0017045D01*
X0144111Y0018882D01*
X0145518Y0020289D01*
X0147355Y0021050D01*
X0149345Y0021050D01*
X0151182Y0020289D01*
X0152589Y0018882D01*
X0153350Y0017045D01*
X0153350Y0009455D01*
X0152589Y0007618D01*
X0151921Y0006950D01*
X0154779Y0006950D01*
X0154111Y0007618D01*
X0153350Y0009455D01*
X0153350Y0017045D01*
X0154111Y0018882D01*
X0155518Y0020289D01*
X0156108Y0020533D01*
X0160637Y0025063D01*
X0161455Y0025880D01*
X0161294Y0026041D01*
X0160700Y0027474D01*
X0160700Y0029026D01*
X0161294Y0030459D01*
X0162391Y0031556D01*
X0163824Y0032150D01*
X0165192Y0032150D01*
X0165192Y0032150D01*
X0164945Y0032150D01*
X0162250Y0034845D01*
X0162250Y0038655D01*
X0164945Y0041350D01*
X0165182Y0041350D01*
X0164811Y0041721D01*
X0164782Y0041750D01*
X0152613Y0041750D01*
X0151621Y0042161D01*
X0148250Y0045532D01*
X0146845Y0044950D01*
X0144855Y0044950D01*
X0143018Y0045711D01*
X0141611Y0047118D01*
X0140850Y0048955D01*
X0140850Y0056545D01*
X0140977Y0056850D01*
X0140723Y0056850D01*
X0140850Y0056545D01*
X0140850Y0048955D01*
X0140089Y0047118D01*
X0138682Y0045711D01*
X0136845Y0044950D01*
X0134855Y0044950D01*
X0133018Y0045711D01*
X0131611Y0047118D01*
X0130850Y0048955D01*
X0130089Y0047118D01*
X0128682Y0045711D01*
X0126845Y0044950D01*
X0124855Y0044950D01*
X0123018Y0045711D01*
X0121611Y0047118D01*
X0120850Y0048955D01*
X0120850Y0056545D01*
X0120977Y0056850D01*
X0120074Y0056850D01*
X0118641Y0057444D01*
X0117544Y0058541D01*
X0116950Y0059974D01*
X0116950Y0060832D01*
X0110932Y0066850D01*
X0110074Y0066850D01*
X0108641Y0067444D01*
X0107544Y0068541D01*
X0106950Y0069974D01*
X0106950Y0071526D01*
X0107544Y0072959D01*
X0108641Y0074056D01*
X0110074Y0074650D01*
X0111626Y0074650D01*
X0113059Y0074056D01*
X0114156Y0072959D01*
X0114750Y0071526D01*
X0114750Y0070668D01*
X0120768Y0064650D01*
X0121626Y0064650D01*
X0121900Y0064536D01*
X0121900Y0067935D01*
X0121294Y0068541D01*
X0120700Y0069974D01*
X0120700Y0071526D01*
X0121294Y0072959D01*
X0122391Y0074056D01*
X0123824Y0074650D01*
X0125376Y0074650D01*
X0126809Y0074056D01*
X0127906Y0072959D01*
X0128500Y0071526D01*
X0128500Y0069974D01*
X0127906Y0068541D01*
X0127300Y0067935D01*
X0127300Y0061868D01*
X0128139Y0061029D01*
X0128550Y0060037D01*
X0128550Y0059844D01*
X0128682Y0059789D01*
X0130089Y0058382D01*
X0130850Y0056545D01*
X0130850Y0048955D01*
X0130850Y0056545D01*
X0131611Y0058382D01*
X0133018Y0059789D01*
X0134855Y0060550D01*
X0136845Y0060550D01*
X0136950Y0060506D01*
X0136950Y0061526D01*
X0137544Y0062959D01*
X0138641Y0064056D01*
X0140074Y0064650D01*
X0140932Y0064650D01*
X0146482Y0070200D01*
X0145074Y0070200D01*
X0143641Y0070794D01*
X0142544Y0071891D01*
X0141950Y0073324D01*
X0141950Y0074876D01*
X0142507Y0076222D01*
X0141611Y0077118D01*
X0140850Y0078955D01*
X0140089Y0077118D01*
X0138682Y0075711D01*
X0136845Y0074950D01*
X0134855Y0074950D01*
X0133018Y0075711D01*
X0131611Y0077118D01*
X0130850Y0078955D01*
X0130089Y0077118D01*
X0128682Y0075711D01*
X0126845Y0074950D01*
X0124855Y0074950D01*
X0123018Y0075711D01*
X0121611Y0077118D01*
X0120850Y0078955D01*
X0120850Y0086545D01*
X0121611Y0088382D01*
X0123018Y0089789D01*
X0124855Y0090550D01*
X0126845Y0090550D01*
X0128682Y0089789D01*
X0130089Y0088382D01*
X0130850Y0086545D01*
X0130850Y0078955D01*
X0130850Y0086545D01*
X0131611Y0088382D01*
X0133018Y0089789D01*
X0134855Y0090550D01*
X0136845Y0090550D01*
X0138682Y0089789D01*
X0140089Y0088382D01*
X0140850Y0086545D01*
X0140850Y0078955D01*
X0140850Y0086545D01*
X0141611Y0088382D01*
X0143018Y0089789D01*
X0144855Y0090550D01*
X0146845Y0090550D01*
X0148682Y0089789D01*
X0150089Y0088382D01*
X0150850Y0086545D01*
X0150850Y0078955D01*
X0150123Y0077200D01*
X0151577Y0077200D01*
X0150850Y0078955D01*
X0150850Y0086545D01*
X0151611Y0088382D01*
X0153018Y0089789D01*
X0154855Y0090550D01*
X0156832Y0090550D01*
X0159811Y0093529D01*
X0160571Y0094289D01*
X0161563Y0094700D01*
X0177637Y0094700D01*
X0178629Y0094289D01*
X0180768Y0092150D01*
X0181626Y0092150D01*
X0183059Y0091556D01*
X0184156Y0090459D01*
X0184230Y0090281D01*
X0184679Y0090427D01*
X0185456Y0090550D01*
X0185850Y0090550D01*
X0185850Y0082750D01*
X0185850Y0082750D01*
X0190850Y0082750D01*
X0185850Y0082750D01*
X0185850Y0082750D01*
X0185850Y0090550D01*
X0186244Y0090550D01*
X0186950Y0090438D01*
X0186950Y0091526D01*
X0187544Y0092959D01*
X0188641Y0094056D01*
X0190074Y0094650D01*
X0191442Y0094650D01*
X0191563Y0094700D01*
X0199332Y0094700D01*
X0188482Y0105550D01*
X0158218Y0105550D01*
X0146129Y0093461D01*
X0145137Y0093050D01*
X0109063Y0093050D01*
X0108071Y0093461D01*
X0107311Y0094221D01*
X0062182Y0139350D01*
X0061324Y0139350D01*
X0059891Y0139944D01*
X0058794Y0141041D01*
X0058200Y0142474D01*
X0058200Y0144026D01*
X0058794Y0145459D01*
X0059891Y0146556D01*
X0061324Y0147150D01*
X0062876Y0147150D01*
X0064309Y0146556D01*
X0065406Y0145459D01*
X0066000Y0144026D01*
X0066000Y0143168D01*
X0110718Y0098450D01*
X0139229Y0098450D01*
X0138641Y0098694D01*
X0137544Y0099791D01*
X0136950Y0101224D01*
X0136950Y0102082D01*
X0134321Y0104711D01*
X0133561Y0105471D01*
X0133150Y0106463D01*
X0133150Y0113262D01*
X0132637Y0113050D01*
X0123218Y0113050D01*
X0119750Y0109582D01*
X0119750Y0108724D01*
X0119156Y0107291D01*
X0118059Y0106194D01*
X0117248Y0105858D01*
X0117450Y0105655D01*
X0117450Y0101845D01*
X0114755Y0099150D01*
X0110945Y0099150D01*
X0108250Y0101845D01*
X0108250Y0105655D01*
X0110945Y0108350D01*
X0112105Y0108350D01*
X0111950Y0108724D01*
X0111950Y0110276D01*
X0112544Y0111709D01*
X0113641Y0112806D01*
X0115074Y0113400D01*
X0115932Y0113400D01*
X0119811Y0117279D01*
X0120571Y0118039D01*
X0121563Y0118450D01*
X0130982Y0118450D01*
X0131741Y0119209D01*
X0131281Y0118975D01*
X0130509Y0118724D01*
X0129708Y0118597D01*
X0126350Y0118597D01*
X0126350Y0123750D01*
X0126350Y0118597D01*
X0122992Y0118597D01*
X0122191Y0118724D01*
X0121419Y0118975D01*
X0120697Y0119343D01*
X0120040Y0119820D01*
X0119467Y0120393D01*
X0118990Y0121049D01*
X0118622Y0121772D01*
X0118371Y0122543D01*
X0118244Y0123344D01*
X0118244Y0123750D01*
X0126350Y0123750D01*
X0126350Y0123750D01*
X0126350Y0123750D01*
X0118244Y0123750D01*
X0118244Y0124156D01*
X0118371Y0124957D01*
X0118622Y0125728D01*
X0118990Y0126451D01*
X0119467Y0127107D01*
X0120040Y0127680D01*
X0120697Y0128157D01*
X0121419Y0128525D01*
X0122051Y0128730D01*
X0120478Y0129382D01*
X0119029Y0130831D01*
X0118244Y0132725D01*
X0118244Y0134775D01*
X0119029Y0136669D01*
X0120478Y0138118D01*
X0122004Y0138750D01*
X0120478Y0139382D01*
X0119029Y0140831D01*
X0118244Y0142725D01*
X0118244Y0144775D01*
X0119029Y0146669D01*
X0120478Y0148118D01*
X0122004Y0148750D01*
X0120478Y0149382D01*
X0119029Y0150831D01*
X0118244Y0152725D01*
X0118244Y0154775D01*
X0119029Y0156669D01*
X0120478Y0158118D01*
X0122004Y0158750D01*
X0120478Y0159382D01*
X0119029Y0160831D01*
X0118244Y0162725D01*
X0118244Y0164350D01*
X0117574Y0164350D01*
X0117300Y0164464D01*
X0117300Y0141065D01*
X0117906Y0140459D01*
X0118500Y0139026D01*
X0118500Y0137474D01*
X0117906Y0136041D01*
X0116809Y0134944D01*
X0115376Y0134350D01*
X0113824Y0134350D01*
X0113500Y0134484D01*
X0113500Y0133724D01*
X0112906Y0132291D01*
X0111809Y0131194D01*
X0110376Y0130600D01*
X0108824Y0130600D01*
X0107391Y0131194D01*
X0106294Y0132291D01*
X0105700Y0133724D01*
X0105700Y0135276D01*
X0106294Y0136709D01*
X0106900Y0137315D01*
X0106900Y0193787D01*
X0107311Y0194779D01*
X0108071Y0195539D01*
X0109063Y0195950D01*
X0110168Y0195950D01*
X0109729Y0196174D01*
X0109093Y0196636D01*
X0108536Y0197193D01*
X0108074Y0197829D01*
X0107716Y0198531D01*
X0107473Y0199279D01*
X0107350Y0200056D01*
X0107350Y0203250D01*
X0112350Y0203250D01*
X0117350Y0203250D01*
X0117350Y0206444D01*
X0117227Y0207221D01*
X0116984Y0207969D01*
X0116626Y0208671D01*
X0116164Y0209307D01*
X0115921Y0209550D01*
X0118779Y0209550D01*
X0118111Y0208882D01*
X0117350Y0207045D01*
X0117350Y0199455D01*
X0118111Y0197618D01*
X0119518Y0196211D01*
X0120148Y0195950D01*
X0114532Y0195950D01*
X0114971Y0196174D01*
X0115607Y0196636D01*
X0116164Y0197193D01*
X0116626Y0197829D01*
X0116984Y0198531D01*
X0117227Y0199279D01*
X0117350Y0200056D01*
X0117350Y0203250D01*
X0112350Y0203250D01*
X0112350Y0203250D01*
X0112350Y0203250D01*
X0107350Y0203250D01*
X0107350Y0206444D01*
X0107473Y0207221D01*
X0107716Y0207969D01*
X0108074Y0208671D01*
X0108536Y0209307D01*
X0108779Y0209550D01*
X0105921Y0209550D01*
X0106589Y0208882D01*
X0107350Y0207045D01*
X0107350Y0199455D01*
X0106589Y0197618D01*
X0105182Y0196211D01*
X0103345Y0195450D01*
X0101355Y0195450D01*
X0099518Y0196211D01*
X0098111Y0197618D01*
X0097350Y0199455D01*
X0097350Y0207045D01*
X0098111Y0208882D01*
X0098779Y0209550D01*
X0095921Y0209550D01*
X0096589Y0208882D01*
X0097350Y0207045D01*
X0097350Y0199455D01*
X0096589Y0197618D01*
X0095182Y0196211D01*
X0093345Y0195450D01*
X0091355Y0195450D01*
X0089518Y0196211D01*
X0088111Y0197618D01*
X0087350Y0199455D01*
X0087350Y0207045D01*
X0088111Y0208882D01*
X0088779Y0209550D01*
X0085921Y0209550D01*
X0086589Y0208882D01*
X0087350Y0207045D01*
X0087350Y0199455D01*
X0086589Y0197618D01*
X0085182Y0196211D01*
X0083345Y0195450D01*
X0081355Y0195450D01*
X0079518Y0196211D01*
X0078111Y0197618D01*
X0077350Y0199455D01*
X0077350Y0200155D01*
X0076403Y0197869D01*
X0073731Y0195197D01*
X0070240Y0193751D01*
X0066460Y0193751D01*
X0062969Y0195197D01*
X0060297Y0197869D01*
X0058851Y0201360D01*
X0058851Y0205140D01*
X0060297Y0208631D01*
X0061216Y0209550D01*
X0056871Y0209550D01*
X0056997Y0209375D01*
X0057369Y0208646D01*
X0057622Y0207868D01*
X0057750Y0207059D01*
X0057750Y0206650D01*
X0049550Y0206650D01*
X0049550Y0206650D01*
X0057750Y0206650D01*
X0057750Y0206241D01*
X0057622Y0205432D01*
X0057369Y0204654D01*
X0056997Y0203925D01*
X0056516Y0203262D01*
X0055938Y0202684D01*
X0055275Y0202203D01*
X0054546Y0201831D01*
X0053768Y0201578D01*
X0052959Y0201450D01*
X0049550Y0201450D01*
X0049550Y0206650D01*
X0049550Y0206650D01*
X0049550Y0206650D01*
X0041350Y0206650D01*
X0041350Y0207059D01*
X0041478Y0207868D01*
X0041731Y0208646D01*
X0042103Y0209375D01*
X0042229Y0209550D01*
X0031271Y0209550D01*
X0031397Y0209375D01*
X0031769Y0208646D01*
X0032022Y0207868D01*
X0032150Y0207059D01*
X0032150Y0206650D01*
X0023950Y0206650D01*
X0023950Y0206650D01*
X0032150Y0206650D01*
X0032150Y0206241D01*
X0032022Y0205432D01*
X0031769Y0204654D01*
X0031397Y0203925D01*
X0030916Y0203262D01*
X0030338Y0202684D01*
X0029675Y0202203D01*
X0028946Y0201831D01*
X0028168Y0201578D01*
X0027359Y0201450D01*
X0023950Y0201450D01*
X0023950Y0206650D01*
X0023950Y0206650D01*
X0023950Y0206650D01*
X0015750Y0206650D01*
X0015750Y0207059D01*
X0015878Y0207868D01*
X0016131Y0208646D01*
X0016503Y0209375D01*
X0016629Y0209550D01*
X0012287Y0209550D01*
X0012241Y0209545D01*
X0012155Y0209510D01*
X0012090Y0209445D01*
X0012055Y0209359D01*
X0012050Y0209313D01*
X0012050Y0007187D01*
X0012055Y0007141D01*
X0012090Y0007055D01*
X0012155Y0006990D01*
X0012241Y0006955D01*
X0012287Y0006950D01*
X0037603Y0006950D01*
X0032476Y0012077D01*
X0032476Y0016170D01*
X0033511Y0016170D01*
X0033511Y0016330D01*
X0032476Y0016330D01*
X0032476Y0020423D01*
X0037929Y0025876D01*
X0030830Y0025876D01*
X0030830Y0026911D01*
X0030670Y0026911D01*
X0030670Y0025876D01*
X0022586Y0025876D01*
X0022027Y0026026D01*
X0021525Y0026316D01*
X0021116Y0026725D01*
X0020826Y0027227D01*
X0020676Y0027786D01*
X0020676Y0035870D01*
X0025424Y0035870D01*
X0025457Y0035950D01*
X0025424Y0036030D01*
X0020676Y0036030D01*
X0020676Y0044114D01*
X0020826Y0044673D01*
X0021116Y0045175D01*
X0021525Y0045584D01*
X0022027Y0045874D01*
X0022586Y0046024D01*
X0030670Y0046024D01*
X0030670Y0044989D01*
X0030830Y0044989D01*
X0030830Y0046024D01*
X0038914Y0046024D01*
X0039473Y0045874D01*
X0039975Y0045584D01*
X0040384Y0045175D01*
X0040674Y0044673D01*
X0040824Y0044114D01*
X0040824Y0036030D01*
X0036076Y0036030D01*
X0036043Y0035950D01*
X0036076Y0035870D01*
X0040824Y0035870D01*
X0040824Y0027786D01*
X0040674Y0027227D01*
X0040384Y0026725D01*
X0039983Y0026324D01*
X0042470Y0026324D01*
X0042470Y0021576D01*
X0042550Y0021543D01*
X0042630Y0021576D01*
X0042630Y0026324D01*
X0046723Y0026324D01*
X0052624Y0020423D01*
X0052624Y0016330D01*
X0051589Y0016330D01*
X0051589Y0016170D01*
X0052624Y0016170D01*
X0052624Y0012077D01*
X0047497Y0006950D01*
X0056216Y0006950D01*
X0055297Y0007869D01*
X0053851Y0011360D01*
X0053851Y0015140D01*
X0055297Y0018631D01*
X0057969Y0021303D01*
X0061460Y0022749D01*
X0065240Y0022749D01*
X0068713Y0021310D01*
X0068400Y0022066D01*
X0068400Y0024434D01*
X0069306Y0026620D01*
X0070980Y0028294D01*
X0073166Y0029200D01*
X0075534Y0029200D01*
X0077720Y0028294D01*
X0079394Y0026620D01*
X0080300Y0024434D01*
X0080300Y0022066D01*
X0079394Y0019880D01*
X0077720Y0018206D01*
X0075534Y0017300D01*
X0073166Y0017300D01*
X0071703Y0017906D01*
X0072849Y0015140D01*
X0072849Y0011360D01*
X0071403Y0007869D01*
X0070484Y0006950D01*
X0114779Y0006950D01*
X0114111Y0007618D01*
X0113350Y0009455D01*
X0113350Y0017045D01*
X0114111Y0018882D01*
X0115518Y0020289D01*
X0117355Y0021050D01*
X0119345Y0021050D01*
X0121182Y0020289D01*
X0122589Y0018882D01*
X0123350Y0017045D01*
X0123350Y0009455D01*
X0122589Y0007618D01*
X0121921Y0006950D01*
X0124779Y0006950D01*
X0124111Y0007618D01*
X0123350Y0009455D01*
X0123350Y0017045D01*
X0124111Y0018882D01*
X0125518Y0020289D01*
X0127355Y0021050D01*
X0129345Y0021050D01*
X0131182Y0020289D01*
X0132589Y0018882D01*
X0133350Y0017045D01*
X0133350Y0009455D01*
X0132589Y0007618D01*
X0131921Y0006950D01*
X0134779Y0006950D01*
X0134111Y0007618D01*
X0133350Y0009455D01*
X0133350Y0017045D01*
X0134111Y0018882D01*
X0135518Y0020289D01*
X0135650Y0020344D01*
X0135650Y0022132D01*
X0125632Y0032150D01*
X0124945Y0032150D01*
X0122250Y0034845D01*
X0122250Y0038655D01*
X0124945Y0041350D01*
X0128755Y0041350D01*
X0131450Y0038655D01*
X0131450Y0034845D01*
X0131012Y0034406D01*
X0140639Y0024779D01*
X0141050Y0023787D01*
X0140582Y0024837D02*
X0160411Y0024837D01*
X0160799Y0027235D02*
X0138183Y0027235D01*
X0135785Y0029634D02*
X0160952Y0029634D01*
X0163540Y0032032D02*
X0133386Y0032032D01*
X0131036Y0034431D02*
X0162664Y0034431D01*
X0162250Y0036829D02*
X0131450Y0036829D01*
X0130878Y0039228D02*
X0162822Y0039228D01*
X0164905Y0041626D02*
X0091792Y0041626D01*
X0091566Y0041400D02*
X0094700Y0044534D01*
X0094700Y0046750D01*
X0094700Y0048966D01*
X0091566Y0052100D01*
X0089350Y0052100D01*
X0089350Y0046750D01*
X0094700Y0046750D01*
X0089350Y0046750D01*
X0089350Y0046750D01*
X0089350Y0046750D01*
X0089350Y0041400D01*
X0091566Y0041400D01*
X0089350Y0041400D02*
X0089350Y0046750D01*
X0089350Y0046750D01*
X0089350Y0046750D01*
X0084000Y0046750D01*
X0084000Y0048966D01*
X0087134Y0052100D01*
X0089350Y0052100D01*
X0089350Y0046750D01*
X0084000Y0046750D01*
X0084000Y0044534D01*
X0087134Y0041400D01*
X0089350Y0041400D01*
X0089350Y0041626D02*
X0089350Y0041626D01*
X0089350Y0044025D02*
X0089350Y0044025D01*
X0089350Y0046423D02*
X0089350Y0046423D01*
X0089350Y0048822D02*
X0089350Y0048822D01*
X0089350Y0051220D02*
X0089350Y0051220D01*
X0086254Y0051220D02*
X0078446Y0051220D01*
X0078381Y0051285D02*
X0076414Y0052100D01*
X0074286Y0052100D01*
X0072319Y0051285D01*
X0070814Y0049781D01*
X0070000Y0047814D01*
X0070000Y0045686D01*
X0070814Y0043719D01*
X0072319Y0042214D01*
X0074286Y0041400D01*
X0076414Y0041400D01*
X0078381Y0042214D01*
X0079885Y0043719D01*
X0080700Y0045686D01*
X0080700Y0047814D01*
X0079885Y0049781D01*
X0078381Y0051285D01*
X0080283Y0048822D02*
X0084000Y0048822D01*
X0084000Y0046423D02*
X0080700Y0046423D01*
X0080012Y0044025D02*
X0084509Y0044025D01*
X0086908Y0041626D02*
X0076960Y0041626D01*
X0073740Y0041626D02*
X0062921Y0041626D01*
X0064424Y0040123D02*
X0058523Y0046024D01*
X0050177Y0046024D01*
X0044276Y0040123D01*
X0044276Y0031777D01*
X0050177Y0025876D01*
X0058523Y0025876D01*
X0064424Y0031777D01*
X0064424Y0040123D01*
X0064424Y0039228D02*
X0122822Y0039228D01*
X0122250Y0036829D02*
X0064424Y0036829D01*
X0064424Y0034431D02*
X0122664Y0034431D01*
X0125749Y0032032D02*
X0064424Y0032032D01*
X0062280Y0029634D02*
X0128148Y0029634D01*
X0130547Y0027235D02*
X0113779Y0027235D01*
X0114394Y0026620D02*
X0112720Y0028294D01*
X0110534Y0029200D01*
X0108166Y0029200D01*
X0105980Y0028294D01*
X0104306Y0026620D01*
X0103400Y0024434D01*
X0103400Y0022066D01*
X0104306Y0019880D01*
X0105980Y0018206D01*
X0108166Y0017300D01*
X0110534Y0017300D01*
X0112720Y0018206D01*
X0114394Y0019880D01*
X0115300Y0022066D01*
X0115300Y0024434D01*
X0114394Y0026620D01*
X0115133Y0024837D02*
X0132945Y0024837D01*
X0135344Y0022438D02*
X0115300Y0022438D01*
X0115269Y0020040D02*
X0114460Y0020040D01*
X0113597Y0017641D02*
X0111357Y0017641D01*
X0113350Y0015243D02*
X0072807Y0015243D01*
X0072343Y0017641D02*
X0071813Y0017641D01*
X0076357Y0017641D02*
X0107343Y0017641D01*
X0104240Y0020040D02*
X0079460Y0020040D01*
X0080300Y0022438D02*
X0103400Y0022438D01*
X0103567Y0024837D02*
X0080133Y0024837D01*
X0078779Y0027235D02*
X0104921Y0027235D01*
X0121431Y0020040D02*
X0125269Y0020040D01*
X0123597Y0017641D02*
X0123103Y0017641D01*
X0123350Y0015243D02*
X0123350Y0015243D01*
X0123350Y0012844D02*
X0123350Y0012844D01*
X0123350Y0010446D02*
X0123350Y0010446D01*
X0122767Y0008047D02*
X0123933Y0008047D01*
X0132767Y0008047D02*
X0133933Y0008047D01*
X0133350Y0010446D02*
X0133350Y0010446D01*
X0133350Y0012844D02*
X0133350Y0012844D01*
X0133350Y0015243D02*
X0133350Y0015243D01*
X0133103Y0017641D02*
X0133597Y0017641D01*
X0135269Y0020040D02*
X0131431Y0020040D01*
X0141431Y0020040D02*
X0145269Y0020040D01*
X0143597Y0017641D02*
X0143103Y0017641D01*
X0143350Y0015243D02*
X0143350Y0015243D01*
X0143350Y0012844D02*
X0143350Y0012844D01*
X0143350Y0010446D02*
X0143350Y0010446D01*
X0142767Y0008047D02*
X0143933Y0008047D01*
X0152767Y0008047D02*
X0153933Y0008047D01*
X0153350Y0010446D02*
X0153350Y0010446D01*
X0153350Y0012844D02*
X0153350Y0012844D01*
X0153350Y0015243D02*
X0153350Y0015243D01*
X0153103Y0017641D02*
X0153597Y0017641D01*
X0155269Y0020040D02*
X0151431Y0020040D01*
X0168805Y0032200D02*
X0171450Y0034845D01*
X0171450Y0038655D01*
X0169555Y0040550D01*
X0170137Y0040550D01*
X0171129Y0040961D01*
X0171968Y0041800D01*
X0173665Y0041800D01*
X0173451Y0041644D01*
X0172956Y0041149D01*
X0172544Y0040582D01*
X0172226Y0039958D01*
X0172010Y0039292D01*
X0171900Y0038600D01*
X0171900Y0038250D01*
X0176350Y0038250D01*
X0180800Y0038250D01*
X0176350Y0038250D01*
X0176350Y0038250D01*
X0176350Y0038250D01*
X0171900Y0038250D01*
X0171900Y0037900D01*
X0172010Y0037208D01*
X0172226Y0036542D01*
X0172544Y0035918D01*
X0172925Y0035393D01*
X0172311Y0034779D01*
X0169732Y0032200D01*
X0168805Y0032200D01*
X0171036Y0034431D02*
X0171962Y0034431D01*
X0172311Y0034779D02*
X0172311Y0034779D01*
X0172133Y0036829D02*
X0171450Y0036829D01*
X0171999Y0039228D02*
X0170878Y0039228D01*
X0171795Y0041626D02*
X0173433Y0041626D01*
X0180701Y0039228D02*
X0184938Y0039228D01*
X0185122Y0036829D02*
X0180567Y0036829D01*
X0182242Y0041626D02*
X0186433Y0041626D01*
X0183500Y0044025D02*
X0268350Y0044025D01*
X0268350Y0046423D02*
X0259394Y0046423D01*
X0260089Y0047118D02*
X0260850Y0048955D01*
X0260850Y0056545D01*
X0260089Y0058382D01*
X0258682Y0059789D01*
X0256845Y0060550D01*
X0254855Y0060550D01*
X0253018Y0059789D01*
X0251611Y0058382D01*
X0250850Y0056545D01*
X0250089Y0058382D01*
X0248682Y0059789D01*
X0246845Y0060550D01*
X0244855Y0060550D01*
X0243018Y0059789D01*
X0241611Y0058382D01*
X0240850Y0056545D01*
X0240089Y0058382D01*
X0238682Y0059789D01*
X0236845Y0060550D01*
X0234855Y0060550D01*
X0233018Y0059789D01*
X0231611Y0058382D01*
X0230850Y0056545D01*
X0230089Y0058382D01*
X0228682Y0059789D01*
X0226845Y0060550D01*
X0224855Y0060550D01*
X0223018Y0059789D01*
X0221611Y0058382D01*
X0220850Y0056545D01*
X0220089Y0058382D01*
X0218682Y0059789D01*
X0216845Y0060550D01*
X0214855Y0060550D01*
X0213018Y0059789D01*
X0211611Y0058382D01*
X0210850Y0056545D01*
X0210089Y0058382D01*
X0208682Y0059789D01*
X0206845Y0060550D01*
X0204855Y0060550D01*
X0203018Y0059789D01*
X0201611Y0058382D01*
X0200850Y0056545D01*
X0200850Y0048955D01*
X0201611Y0047118D01*
X0203018Y0045711D01*
X0204855Y0044950D01*
X0206845Y0044950D01*
X0208682Y0045711D01*
X0210089Y0047118D01*
X0210850Y0048955D01*
X0210850Y0056545D01*
X0210850Y0048955D01*
X0211611Y0047118D01*
X0213018Y0045711D01*
X0214855Y0044950D01*
X0216845Y0044950D01*
X0218682Y0045711D01*
X0220089Y0047118D01*
X0220850Y0048955D01*
X0220850Y0056545D01*
X0220850Y0048955D01*
X0221611Y0047118D01*
X0223018Y0045711D01*
X0224855Y0044950D01*
X0226845Y0044950D01*
X0228682Y0045711D01*
X0230089Y0047118D01*
X0230850Y0048955D01*
X0230850Y0056545D01*
X0230850Y0048955D01*
X0231611Y0047118D01*
X0233018Y0045711D01*
X0234855Y0044950D01*
X0236845Y0044950D01*
X0238682Y0045711D01*
X0240089Y0047118D01*
X0240850Y0048955D01*
X0240850Y0056545D01*
X0240850Y0048955D01*
X0241611Y0047118D01*
X0243018Y0045711D01*
X0244855Y0044950D01*
X0246845Y0044950D01*
X0248682Y0045711D01*
X0250089Y0047118D01*
X0250850Y0048955D01*
X0250850Y0056545D01*
X0250850Y0048955D01*
X0251611Y0047118D01*
X0253018Y0045711D01*
X0254855Y0044950D01*
X0256845Y0044950D01*
X0258682Y0045711D01*
X0260089Y0047118D01*
X0260795Y0048822D02*
X0268350Y0048822D01*
X0268350Y0051220D02*
X0260850Y0051220D01*
X0260850Y0053619D02*
X0268350Y0053619D01*
X0268350Y0056017D02*
X0260850Y0056017D01*
X0260055Y0058416D02*
X0268350Y0058416D01*
X0268350Y0060814D02*
X0194966Y0060814D01*
X0195550Y0063213D02*
X0197169Y0063213D01*
X0194770Y0065611D02*
X0194554Y0065611D01*
X0192372Y0068010D02*
X0188347Y0068010D01*
X0189973Y0070408D02*
X0184309Y0070408D01*
X0192813Y0075205D02*
X0194239Y0075205D01*
X0195212Y0072807D02*
X0268350Y0072807D01*
X0268350Y0075205D02*
X0257461Y0075205D01*
X0254239Y0075205D02*
X0247461Y0075205D01*
X0244239Y0075205D02*
X0237461Y0075205D01*
X0234239Y0075205D02*
X0227461Y0075205D01*
X0224239Y0075205D02*
X0217461Y0075205D01*
X0214239Y0075205D02*
X0207461Y0075205D01*
X0204239Y0075205D02*
X0197461Y0075205D01*
X0200290Y0077604D02*
X0201410Y0077604D01*
X0200850Y0078955D02*
X0200850Y0086545D01*
X0200963Y0086818D01*
X0200576Y0087205D01*
X0200850Y0086545D01*
X0200850Y0078955D01*
X0200850Y0080002D02*
X0200850Y0080002D01*
X0200850Y0082401D02*
X0200850Y0082401D01*
X0200850Y0084799D02*
X0200850Y0084799D01*
X0200584Y0087198D02*
X0200579Y0087198D01*
X0208875Y0089596D02*
X0212825Y0089596D01*
X0213600Y0091995D02*
X0228277Y0091995D01*
X0230675Y0094393D02*
X0220009Y0094393D01*
X0221000Y0096792D02*
X0233074Y0096792D01*
X0235472Y0099190D02*
X0224806Y0099190D01*
X0226000Y0101589D02*
X0237871Y0101589D01*
X0240269Y0103987D02*
X0225498Y0103987D01*
X0221532Y0106386D02*
X0242668Y0106386D01*
X0245066Y0108784D02*
X0219134Y0108784D01*
X0220750Y0110439D02*
X0222039Y0109150D01*
X0228661Y0109150D01*
X0229950Y0110439D01*
X0229950Y0117061D01*
X0228661Y0118350D01*
X0223318Y0118350D01*
X0213550Y0128118D01*
X0213550Y0131287D01*
X0213357Y0131752D01*
X0214450Y0132845D01*
X0214450Y0136655D01*
X0211755Y0139350D01*
X0207945Y0139350D01*
X0205250Y0136655D01*
X0205250Y0132845D01*
X0205840Y0132255D01*
X0206061Y0131721D01*
X0206821Y0130961D01*
X0208150Y0129632D01*
X0208150Y0126463D01*
X0208561Y0125471D01*
X0209321Y0124711D01*
X0220750Y0113282D01*
X0220750Y0110439D01*
X0220750Y0111183D02*
X0216735Y0111183D01*
X0214337Y0113582D02*
X0220450Y0113582D01*
X0218052Y0115980D02*
X0213208Y0115980D01*
X0215653Y0118379D02*
X0210428Y0118379D01*
X0208772Y0118379D02*
X0184285Y0118379D01*
X0184123Y0118771D02*
X0182871Y0120023D01*
X0181235Y0120700D01*
X0179465Y0120700D01*
X0177829Y0120023D01*
X0176577Y0118771D01*
X0175900Y0117135D01*
X0175900Y0115365D01*
X0176577Y0113729D01*
X0177829Y0112477D01*
X0179465Y0111800D01*
X0181235Y0111800D01*
X0182871Y0112477D01*
X0184123Y0113729D01*
X0184800Y0115365D01*
X0184800Y0117135D01*
X0184123Y0118771D01*
X0182058Y0122126D02*
X0181392Y0121910D01*
X0180700Y0121800D01*
X0180350Y0121800D01*
X0180350Y0126250D01*
X0180350Y0126250D01*
X0184800Y0126250D01*
X0184800Y0125900D01*
X0184690Y0125208D01*
X0184474Y0124542D01*
X0184156Y0123918D01*
X0183744Y0123351D01*
X0183249Y0122856D01*
X0182682Y0122444D01*
X0182058Y0122126D01*
X0180350Y0121800D02*
X0180350Y0126250D01*
X0180350Y0126250D01*
X0180350Y0126250D01*
X0175900Y0126250D01*
X0175900Y0125900D01*
X0176010Y0125208D01*
X0176226Y0124542D01*
X0176544Y0123918D01*
X0176956Y0123351D01*
X0177451Y0122856D01*
X0178018Y0122444D01*
X0178642Y0122126D01*
X0179308Y0121910D01*
X0180000Y0121800D01*
X0180350Y0121800D01*
X0180350Y0123176D02*
X0180350Y0123176D01*
X0180350Y0125574D02*
X0180350Y0125574D01*
X0183569Y0123176D02*
X0210856Y0123176D01*
X0209321Y0124711D02*
X0209321Y0124711D01*
X0208518Y0125574D02*
X0184748Y0125574D01*
X0184467Y0127973D02*
X0208150Y0127973D01*
X0207411Y0130371D02*
X0183487Y0130371D01*
X0184750Y0132770D02*
X0205325Y0132770D01*
X0206821Y0130961D02*
X0206821Y0130961D01*
X0205250Y0135168D02*
X0186586Y0135168D01*
X0188985Y0137567D02*
X0206161Y0137567D01*
X0213539Y0137567D02*
X0214450Y0137567D01*
X0214450Y0137776D02*
X0214450Y0136224D01*
X0215044Y0134791D01*
X0216141Y0133694D01*
X0217574Y0133100D01*
X0218432Y0133100D01*
X0224450Y0127082D01*
X0224450Y0126224D01*
X0225044Y0124791D01*
X0226141Y0123694D01*
X0227574Y0123100D01*
X0229126Y0123100D01*
X0230559Y0123694D01*
X0231656Y0124791D01*
X0232250Y0126224D01*
X0232250Y0127776D01*
X0231656Y0129209D01*
X0230559Y0130306D01*
X0229126Y0130900D01*
X0228268Y0130900D01*
X0222250Y0136918D01*
X0222250Y0137776D01*
X0221656Y0139209D01*
X0220559Y0140306D01*
X0219126Y0140900D01*
X0217574Y0140900D01*
X0216141Y0140306D01*
X0215044Y0139209D01*
X0214450Y0137776D01*
X0215800Y0139965D02*
X0191384Y0139965D01*
X0193782Y0142364D02*
X0245700Y0142364D01*
X0246847Y0144762D02*
X0196181Y0144762D01*
X0198579Y0147161D02*
X0246871Y0147161D01*
X0244472Y0149559D02*
X0200978Y0149559D01*
X0203376Y0151958D02*
X0242074Y0151958D01*
X0239675Y0154356D02*
X0205775Y0154356D01*
X0208173Y0156755D02*
X0237277Y0156755D01*
X0234878Y0159153D02*
X0210572Y0159153D01*
X0212970Y0161552D02*
X0232480Y0161552D01*
X0230081Y0163950D02*
X0215369Y0163950D01*
X0210130Y0166349D02*
X0185757Y0166349D01*
X0186450Y0163950D02*
X0207732Y0163950D01*
X0205333Y0161552D02*
X0186157Y0161552D01*
X0183759Y0159153D02*
X0202935Y0159153D01*
X0200536Y0156755D02*
X0185351Y0156755D01*
X0186450Y0154356D02*
X0198138Y0154356D01*
X0195739Y0151958D02*
X0186450Y0151958D01*
X0184165Y0149559D02*
X0193341Y0149559D01*
X0190942Y0147161D02*
X0184487Y0147161D01*
X0184662Y0144762D02*
X0188544Y0144762D01*
X0186145Y0142364D02*
X0182866Y0142364D01*
X0183747Y0139965D02*
X0162300Y0139965D01*
X0162239Y0137567D02*
X0181348Y0137567D01*
X0177423Y0135168D02*
X0160336Y0135168D01*
X0157938Y0132770D02*
X0176950Y0132770D01*
X0178213Y0130371D02*
X0163064Y0130371D01*
X0163058Y0130374D02*
X0162392Y0130590D01*
X0161700Y0130700D01*
X0161350Y0130700D01*
X0161350Y0126250D01*
X0161350Y0126250D01*
X0165800Y0126250D01*
X0165800Y0126600D01*
X0165690Y0127292D01*
X0165474Y0127958D01*
X0165156Y0128582D01*
X0164744Y0129149D01*
X0164249Y0129644D01*
X0163682Y0130056D01*
X0163058Y0130374D01*
X0161350Y0130371D02*
X0161350Y0130371D01*
X0161350Y0130700D02*
X0161000Y0130700D01*
X0160308Y0130590D01*
X0159642Y0130374D01*
X0159018Y0130056D01*
X0158451Y0129644D01*
X0157956Y0129149D01*
X0157544Y0128582D01*
X0157226Y0127958D01*
X0157010Y0127292D01*
X0156900Y0126600D01*
X0156900Y0126250D01*
X0161350Y0126250D01*
X0161350Y0126250D01*
X0161350Y0126250D01*
X0161350Y0130700D01*
X0159636Y0130371D02*
X0155539Y0130371D01*
X0157233Y0127973D02*
X0153141Y0127973D01*
X0150742Y0125574D02*
X0156952Y0125574D01*
X0156900Y0125900D02*
X0157010Y0125208D01*
X0157226Y0124542D01*
X0157544Y0123918D01*
X0157956Y0123351D01*
X0158451Y0122856D01*
X0159018Y0122444D01*
X0159642Y0122126D01*
X0160308Y0121910D01*
X0161000Y0121800D01*
X0161350Y0121800D01*
X0161700Y0121800D01*
X0162392Y0121910D01*
X0163058Y0122126D01*
X0163682Y0122444D01*
X0164249Y0122856D01*
X0164744Y0123351D01*
X0165156Y0123918D01*
X0165474Y0124542D01*
X0165690Y0125208D01*
X0165800Y0125900D01*
X0165800Y0126250D01*
X0161350Y0126250D01*
X0161350Y0121800D01*
X0161350Y0126250D01*
X0161350Y0126250D01*
X0156900Y0126250D01*
X0156900Y0125900D01*
X0158131Y0123176D02*
X0148344Y0123176D01*
X0145945Y0120777D02*
X0213255Y0120777D01*
X0216094Y0125574D02*
X0224719Y0125574D01*
X0223559Y0127973D02*
X0213696Y0127973D01*
X0213550Y0130371D02*
X0221161Y0130371D01*
X0218762Y0132770D02*
X0214375Y0132770D01*
X0214450Y0135168D02*
X0214887Y0135168D01*
X0220900Y0139965D02*
X0246222Y0139965D01*
X0246900Y0137567D02*
X0222250Y0137567D01*
X0224000Y0135168D02*
X0246900Y0135168D01*
X0246900Y0132770D02*
X0226399Y0132770D01*
X0230403Y0130371D02*
X0246900Y0130371D01*
X0246900Y0127973D02*
X0232168Y0127973D01*
X0231981Y0125574D02*
X0246900Y0125574D01*
X0246900Y0123176D02*
X0229308Y0123176D01*
X0227392Y0123176D02*
X0218493Y0123176D01*
X0220891Y0120777D02*
X0246900Y0120777D01*
X0246900Y0118379D02*
X0223290Y0118379D01*
X0225350Y0113750D02*
X0225351Y0113250D01*
X0224600Y0113250D01*
X0229950Y0113582D02*
X0230750Y0113582D01*
X0230750Y0113750D02*
X0230750Y0113388D01*
X0230863Y0112673D01*
X0231087Y0111984D01*
X0231416Y0111339D01*
X0231841Y0110753D01*
X0232353Y0110241D01*
X0232939Y0109816D01*
X0233584Y0109487D01*
X0234273Y0109263D01*
X0234988Y0109150D01*
X0235350Y0109150D01*
X0235712Y0109150D01*
X0236427Y0109263D01*
X0237116Y0109487D01*
X0237761Y0109816D01*
X0238347Y0110241D01*
X0238859Y0110753D01*
X0239284Y0111339D01*
X0239613Y0111984D01*
X0239837Y0112673D01*
X0239950Y0113388D01*
X0239950Y0113750D01*
X0239950Y0114112D01*
X0239837Y0114827D01*
X0239613Y0115516D01*
X0239284Y0116161D01*
X0238859Y0116747D01*
X0238347Y0117259D01*
X0237761Y0117684D01*
X0237116Y0118013D01*
X0236427Y0118237D01*
X0235712Y0118350D01*
X0235350Y0118350D01*
X0235350Y0113750D01*
X0239950Y0113750D01*
X0235350Y0113750D01*
X0235350Y0113750D01*
X0235350Y0113750D01*
X0235350Y0109150D01*
X0235350Y0113750D01*
X0235350Y0113750D01*
X0235350Y0113750D01*
X0230750Y0113750D01*
X0230750Y0114112D01*
X0230863Y0114827D01*
X0231087Y0115516D01*
X0231416Y0116161D01*
X0231841Y0116747D01*
X0232353Y0117259D01*
X0232939Y0117684D01*
X0233584Y0118013D01*
X0234273Y0118237D01*
X0234988Y0118350D01*
X0235350Y0118350D01*
X0235350Y0113750D01*
X0230750Y0113750D01*
X0231324Y0115980D02*
X0229950Y0115980D01*
X0229950Y0111183D02*
X0231529Y0111183D01*
X0235350Y0111183D02*
X0235350Y0111183D01*
X0235350Y0113582D02*
X0235350Y0113582D01*
X0235350Y0115980D02*
X0235350Y0115980D01*
X0239376Y0115980D02*
X0246900Y0115980D01*
X0246900Y0113582D02*
X0239950Y0113582D01*
X0239171Y0111183D02*
X0246900Y0111183D01*
X0252300Y0111183D02*
X0253599Y0111183D01*
X0253599Y0111075D02*
X0256424Y0108250D01*
X0253599Y0105425D01*
X0253599Y0101075D01*
X0256675Y0097999D01*
X0261025Y0097999D01*
X0263850Y0100824D01*
X0266675Y0097999D01*
X0268350Y0097999D01*
X0268350Y0094700D01*
X0251563Y0094700D01*
X0250571Y0094289D01*
X0249811Y0093529D01*
X0246832Y0090550D01*
X0244855Y0090550D01*
X0243018Y0089789D01*
X0241611Y0088382D01*
X0240850Y0086545D01*
X0240850Y0078955D01*
X0240850Y0086545D01*
X0240089Y0088382D01*
X0238682Y0089789D01*
X0236845Y0090550D01*
X0234855Y0090550D01*
X0234195Y0090276D01*
X0251129Y0107211D01*
X0251889Y0107971D01*
X0252300Y0108963D01*
X0252300Y0119232D01*
X0254811Y0116721D01*
X0254853Y0116679D01*
X0253599Y0115425D01*
X0253599Y0111075D01*
X0253599Y0113582D02*
X0252300Y0113582D01*
X0252300Y0115980D02*
X0254154Y0115980D01*
X0253153Y0118379D02*
X0252300Y0118379D01*
X0252226Y0108784D02*
X0255889Y0108784D01*
X0254560Y0106386D02*
X0250304Y0106386D01*
X0247906Y0103987D02*
X0253599Y0103987D01*
X0253599Y0101589D02*
X0245507Y0101589D01*
X0243109Y0099190D02*
X0255483Y0099190D01*
X0262217Y0099190D02*
X0265483Y0099190D01*
X0264101Y0103250D02*
X0264101Y0103250D01*
X0268350Y0103250D01*
X0268350Y0103250D01*
X0264101Y0103250D01*
X0268350Y0096792D02*
X0240710Y0096792D01*
X0238312Y0094393D02*
X0250823Y0094393D01*
X0248277Y0091995D02*
X0235913Y0091995D01*
X0238875Y0089596D02*
X0242825Y0089596D01*
X0241121Y0087198D02*
X0240579Y0087198D01*
X0240850Y0084799D02*
X0240850Y0084799D01*
X0240850Y0082401D02*
X0240850Y0082401D01*
X0240850Y0080002D02*
X0240850Y0080002D01*
X0240290Y0077604D02*
X0241410Y0077604D01*
X0250290Y0077604D02*
X0251410Y0077604D01*
X0250850Y0078955D02*
X0250850Y0086545D01*
X0251124Y0087205D01*
X0250737Y0086818D01*
X0250850Y0086545D01*
X0250850Y0078955D01*
X0250850Y0080002D02*
X0250850Y0080002D01*
X0250850Y0082401D02*
X0250850Y0082401D01*
X0250850Y0084799D02*
X0250850Y0084799D01*
X0251116Y0087198D02*
X0251121Y0087198D01*
X0260579Y0087198D02*
X0268350Y0087198D01*
X0268350Y0084799D02*
X0260850Y0084799D01*
X0260850Y0082401D02*
X0268350Y0082401D01*
X0268350Y0080002D02*
X0260850Y0080002D01*
X0260290Y0077604D02*
X0268350Y0077604D01*
X0268350Y0070408D02*
X0197610Y0070408D01*
X0191410Y0077604D02*
X0190266Y0077604D01*
X0190850Y0080002D02*
X0190850Y0080002D01*
X0190850Y0082401D02*
X0190850Y0082401D01*
X0190850Y0084799D02*
X0190850Y0084799D01*
X0185850Y0084799D02*
X0185850Y0084799D01*
X0185850Y0082750D02*
X0185850Y0082750D01*
X0180850Y0082750D01*
X0180850Y0084350D01*
X0180850Y0084350D01*
X0180850Y0079250D01*
X0180899Y0079250D01*
X0180850Y0079556D01*
X0180850Y0082750D01*
X0185850Y0082750D01*
X0185850Y0087198D02*
X0185850Y0087198D01*
X0185850Y0089596D02*
X0185850Y0089596D01*
X0187144Y0091995D02*
X0182000Y0091995D01*
X0181265Y0096150D02*
X0182956Y0096850D01*
X0184250Y0098144D01*
X0184950Y0099835D01*
X0184950Y0101665D01*
X0184250Y0103356D01*
X0182956Y0104650D01*
X0181265Y0105350D01*
X0179435Y0105350D01*
X0177744Y0104650D01*
X0176450Y0103356D01*
X0175750Y0101665D01*
X0175750Y0099835D01*
X0176450Y0098144D01*
X0177744Y0096850D01*
X0179435Y0096150D01*
X0181265Y0096150D01*
X0182815Y0096792D02*
X0197240Y0096792D01*
X0194841Y0099190D02*
X0184683Y0099190D01*
X0184950Y0101589D02*
X0192443Y0101589D01*
X0190044Y0103987D02*
X0183618Y0103987D01*
X0177082Y0103987D02*
X0164618Y0103987D01*
X0165250Y0103356D02*
X0163956Y0104650D01*
X0162265Y0105350D01*
X0160435Y0105350D01*
X0158744Y0104650D01*
X0157450Y0103356D01*
X0156750Y0101665D01*
X0156750Y0099835D01*
X0157450Y0098144D01*
X0158744Y0096850D01*
X0160435Y0096150D01*
X0162265Y0096150D01*
X0163956Y0096850D01*
X0165250Y0098144D01*
X0165950Y0099835D01*
X0165950Y0101665D01*
X0165250Y0103356D01*
X0165950Y0101589D02*
X0175750Y0101589D01*
X0176017Y0099190D02*
X0165683Y0099190D01*
X0163815Y0096792D02*
X0177885Y0096792D01*
X0178377Y0094393D02*
X0189455Y0094393D01*
X0200079Y0101589D02*
X0209943Y0101589D01*
X0211915Y0099190D02*
X0213786Y0099190D01*
X0207785Y0099190D02*
X0202478Y0099190D01*
X0197681Y0103987D02*
X0207544Y0103987D01*
X0203449Y0106386D02*
X0195282Y0106386D01*
X0192884Y0108784D02*
X0201950Y0108784D01*
X0202326Y0111183D02*
X0144235Y0111183D01*
X0143166Y0113582D02*
X0157725Y0113582D01*
X0157577Y0113729D02*
X0158829Y0112477D01*
X0160465Y0111800D01*
X0162235Y0111800D01*
X0163871Y0112477D01*
X0165123Y0113729D01*
X0165800Y0115365D01*
X0165800Y0117135D01*
X0165123Y0118771D01*
X0163871Y0120023D01*
X0162235Y0120700D01*
X0160465Y0120700D01*
X0158829Y0120023D01*
X0157577Y0118771D01*
X0156900Y0117135D01*
X0156900Y0115365D01*
X0157577Y0113729D01*
X0156900Y0115980D02*
X0141148Y0115980D01*
X0143547Y0118379D02*
X0157415Y0118379D01*
X0164975Y0113582D02*
X0176725Y0113582D01*
X0175900Y0115980D02*
X0165800Y0115980D01*
X0165285Y0118379D02*
X0176415Y0118379D01*
X0183975Y0113582D02*
X0205759Y0113582D01*
X0205992Y0115980D02*
X0184800Y0115980D01*
X0177131Y0123176D02*
X0164569Y0123176D01*
X0165748Y0125574D02*
X0175952Y0125574D01*
X0176233Y0127973D02*
X0165467Y0127973D01*
X0161350Y0127973D02*
X0161350Y0127973D01*
X0161350Y0125574D02*
X0161350Y0125574D01*
X0161350Y0123176D02*
X0161350Y0123176D01*
X0153816Y0108784D02*
X0148331Y0108784D01*
X0149750Y0106386D02*
X0151418Y0106386D01*
X0156656Y0103987D02*
X0158082Y0103987D01*
X0156750Y0101589D02*
X0154257Y0101589D01*
X0151859Y0099190D02*
X0157017Y0099190D01*
X0158885Y0096792D02*
X0149460Y0096792D01*
X0147062Y0094393D02*
X0160823Y0094393D01*
X0158277Y0091995D02*
X0012050Y0091995D01*
X0012050Y0094393D02*
X0107138Y0094393D01*
X0104740Y0096792D02*
X0012050Y0096792D01*
X0012050Y0099190D02*
X0070904Y0099190D01*
X0070945Y0099150D02*
X0074755Y0099150D01*
X0077450Y0101845D01*
X0077450Y0105655D01*
X0074755Y0108350D01*
X0070945Y0108350D01*
X0068250Y0105655D01*
X0068250Y0101845D01*
X0070945Y0099150D01*
X0068506Y0101589D02*
X0012050Y0101589D01*
X0012050Y0103987D02*
X0068250Y0103987D01*
X0068981Y0106386D02*
X0012050Y0106386D01*
X0012050Y0108784D02*
X0038500Y0108784D01*
X0039375Y0108550D02*
X0036527Y0109313D01*
X0033973Y0110788D01*
X0031888Y0112873D01*
X0030413Y0115427D01*
X0029650Y0118275D01*
X0029650Y0121225D01*
X0030413Y0124073D01*
X0031888Y0126627D01*
X0033973Y0128712D01*
X0036527Y0130187D01*
X0039375Y0130950D01*
X0042325Y0130950D01*
X0045173Y0130187D01*
X0047727Y0128712D01*
X0049812Y0126627D01*
X0051287Y0124073D01*
X0052050Y0121225D01*
X0052050Y0118275D01*
X0051287Y0115427D01*
X0049812Y0112873D01*
X0047727Y0110788D01*
X0045173Y0109313D01*
X0042325Y0108550D01*
X0039375Y0108550D01*
X0043200Y0108784D02*
X0092747Y0108784D01*
X0095146Y0106386D02*
X0076719Y0106386D01*
X0077450Y0103987D02*
X0097544Y0103987D01*
X0099943Y0101589D02*
X0077194Y0101589D01*
X0074796Y0099190D02*
X0102341Y0099190D01*
X0105181Y0103987D02*
X0108250Y0103987D01*
X0108506Y0101589D02*
X0107579Y0101589D01*
X0109978Y0099190D02*
X0110904Y0099190D01*
X0114796Y0099190D02*
X0138144Y0099190D01*
X0136950Y0101589D02*
X0117194Y0101589D01*
X0117450Y0103987D02*
X0135044Y0103987D01*
X0133182Y0106386D02*
X0118251Y0106386D01*
X0119750Y0108784D02*
X0133150Y0108784D01*
X0133150Y0111183D02*
X0121351Y0111183D01*
X0118512Y0115980D02*
X0093188Y0115980D01*
X0090790Y0118379D02*
X0121390Y0118379D01*
X0119188Y0120777D02*
X0088391Y0120777D01*
X0085993Y0123176D02*
X0118271Y0123176D01*
X0118572Y0125574D02*
X0083594Y0125574D01*
X0081196Y0127973D02*
X0120443Y0127973D01*
X0119489Y0130371D02*
X0078797Y0130371D01*
X0076399Y0132770D02*
X0106095Y0132770D01*
X0105700Y0135168D02*
X0074000Y0135168D01*
X0071602Y0137567D02*
X0106900Y0137567D01*
X0106900Y0139965D02*
X0069203Y0139965D01*
X0066805Y0142364D02*
X0106900Y0142364D01*
X0106900Y0144762D02*
X0065695Y0144762D01*
X0058505Y0144762D02*
X0012050Y0144762D01*
X0012050Y0142364D02*
X0058246Y0142364D01*
X0059869Y0139965D02*
X0012050Y0139965D01*
X0012050Y0137567D02*
X0063965Y0137567D01*
X0066363Y0135168D02*
X0012050Y0135168D01*
X0012050Y0132770D02*
X0068762Y0132770D01*
X0071161Y0130371D02*
X0044485Y0130371D01*
X0048467Y0127973D02*
X0073559Y0127973D01*
X0075958Y0125574D02*
X0050420Y0125574D01*
X0051527Y0123176D02*
X0078356Y0123176D01*
X0080755Y0120777D02*
X0052050Y0120777D01*
X0052050Y0118379D02*
X0083153Y0118379D01*
X0085552Y0115980D02*
X0051435Y0115980D01*
X0050221Y0113582D02*
X0087950Y0113582D01*
X0090349Y0111183D02*
X0048122Y0111183D01*
X0033578Y0111183D02*
X0012050Y0111183D01*
X0012050Y0113582D02*
X0031479Y0113582D01*
X0030265Y0115980D02*
X0012050Y0115980D01*
X0012050Y0118379D02*
X0029650Y0118379D01*
X0029650Y0120777D02*
X0012050Y0120777D01*
X0012050Y0123176D02*
X0030173Y0123176D01*
X0031280Y0125574D02*
X0012050Y0125574D01*
X0012050Y0127973D02*
X0033233Y0127973D01*
X0037215Y0130371D02*
X0012050Y0130371D01*
X0012050Y0147161D02*
X0106900Y0147161D01*
X0106900Y0149559D02*
X0012050Y0149559D01*
X0012050Y0151958D02*
X0106900Y0151958D01*
X0106900Y0154356D02*
X0012050Y0154356D01*
X0012050Y0156755D02*
X0106900Y0156755D01*
X0106900Y0159153D02*
X0012050Y0159153D01*
X0012050Y0161552D02*
X0106900Y0161552D01*
X0106900Y0163950D02*
X0012050Y0163950D01*
X0012050Y0166349D02*
X0106900Y0166349D01*
X0106900Y0168747D02*
X0012050Y0168747D01*
X0012050Y0171146D02*
X0106900Y0171146D01*
X0106900Y0173544D02*
X0012050Y0173544D01*
X0012050Y0175943D02*
X0106900Y0175943D01*
X0106900Y0178341D02*
X0012050Y0178341D01*
X0012050Y0180740D02*
X0088487Y0180740D01*
X0088824Y0180600D02*
X0090376Y0180600D01*
X0091809Y0181194D01*
X0092906Y0182291D01*
X0093500Y0183724D01*
X0093500Y0184582D01*
X0095768Y0186850D01*
X0096626Y0186850D01*
X0098059Y0187444D01*
X0099156Y0188541D01*
X0099750Y0189974D01*
X0099750Y0191526D01*
X0099156Y0192959D01*
X0098059Y0194056D01*
X0096626Y0194650D01*
X0095074Y0194650D01*
X0093641Y0194056D01*
X0092544Y0192959D01*
X0091950Y0191526D01*
X0091950Y0190668D01*
X0089682Y0188400D01*
X0088824Y0188400D01*
X0087391Y0187806D01*
X0086294Y0186709D01*
X0085700Y0185276D01*
X0085700Y0183724D01*
X0086294Y0182291D01*
X0087391Y0181194D01*
X0088824Y0180600D01*
X0090713Y0180740D02*
X0106900Y0180740D01*
X0106900Y0183138D02*
X0093257Y0183138D01*
X0094455Y0185537D02*
X0106900Y0185537D01*
X0106900Y0187935D02*
X0098551Y0187935D01*
X0099750Y0190334D02*
X0106900Y0190334D01*
X0106900Y0192732D02*
X0099250Y0192732D01*
X0098200Y0197529D02*
X0096500Y0197529D01*
X0097350Y0199928D02*
X0097350Y0199928D01*
X0097350Y0202326D02*
X0097350Y0202326D01*
X0097350Y0204725D02*
X0097350Y0204725D01*
X0097317Y0207123D02*
X0097383Y0207123D01*
X0098751Y0209522D02*
X0095949Y0209522D01*
X0088751Y0209522D02*
X0085949Y0209522D01*
X0087317Y0207123D02*
X0087383Y0207123D01*
X0087350Y0204725D02*
X0087350Y0204725D01*
X0087350Y0202326D02*
X0087350Y0202326D01*
X0087350Y0199928D02*
X0087350Y0199928D01*
X0086500Y0197529D02*
X0088200Y0197529D01*
X0092450Y0192732D02*
X0056022Y0192732D01*
X0055496Y0193258D02*
X0056958Y0191796D01*
X0057750Y0189884D01*
X0057750Y0187816D01*
X0056958Y0185904D01*
X0055496Y0184442D01*
X0053584Y0183650D01*
X0045516Y0183650D01*
X0043604Y0184442D01*
X0042142Y0185904D01*
X0042040Y0186150D01*
X0031460Y0186150D01*
X0031358Y0185904D01*
X0029896Y0184442D01*
X0027984Y0183650D01*
X0019916Y0183650D01*
X0018004Y0184442D01*
X0016542Y0185904D01*
X0015750Y0187816D01*
X0015750Y0189884D01*
X0016542Y0191796D01*
X0018004Y0193258D01*
X0019916Y0194050D01*
X0027984Y0194050D01*
X0029896Y0193258D01*
X0031358Y0191796D01*
X0031460Y0191550D01*
X0042040Y0191550D01*
X0042142Y0191796D01*
X0043604Y0193258D01*
X0045516Y0194050D01*
X0053584Y0194050D01*
X0055496Y0193258D01*
X0057564Y0190334D02*
X0091616Y0190334D01*
X0087703Y0187935D02*
X0057750Y0187935D01*
X0056591Y0185537D02*
X0085808Y0185537D01*
X0085943Y0183138D02*
X0012050Y0183138D01*
X0012050Y0185537D02*
X0016909Y0185537D01*
X0015750Y0187935D02*
X0012050Y0187935D01*
X0012050Y0190334D02*
X0015936Y0190334D01*
X0017478Y0192732D02*
X0012050Y0192732D01*
X0012050Y0195131D02*
X0063129Y0195131D01*
X0060637Y0197529D02*
X0012050Y0197529D01*
X0012050Y0199928D02*
X0059444Y0199928D01*
X0058851Y0202326D02*
X0055446Y0202326D01*
X0057392Y0204725D02*
X0058851Y0204725D01*
X0059673Y0207123D02*
X0057740Y0207123D01*
X0056891Y0209522D02*
X0061188Y0209522D01*
X0049550Y0206650D02*
X0049550Y0201450D01*
X0046141Y0201450D01*
X0045332Y0201578D01*
X0044554Y0201831D01*
X0043825Y0202203D01*
X0043162Y0202684D01*
X0042584Y0203262D01*
X0042103Y0203925D01*
X0041731Y0204654D01*
X0041478Y0205432D01*
X0041350Y0206241D01*
X0041350Y0206650D01*
X0049550Y0206650D01*
X0049550Y0204725D02*
X0049550Y0204725D01*
X0049550Y0202326D02*
X0049550Y0202326D01*
X0043654Y0202326D02*
X0029846Y0202326D01*
X0031792Y0204725D02*
X0041708Y0204725D01*
X0041360Y0207123D02*
X0032140Y0207123D01*
X0031291Y0209522D02*
X0042209Y0209522D01*
X0023950Y0206650D02*
X0023950Y0201450D01*
X0020541Y0201450D01*
X0019732Y0201578D01*
X0018954Y0201831D01*
X0018225Y0202203D01*
X0017562Y0202684D01*
X0016984Y0203262D01*
X0016503Y0203925D01*
X0016131Y0204654D01*
X0015878Y0205432D01*
X0015750Y0206241D01*
X0015750Y0206650D01*
X0023950Y0206650D01*
X0023950Y0204725D02*
X0023950Y0204725D01*
X0023950Y0202326D02*
X0023950Y0202326D01*
X0018054Y0202326D02*
X0012050Y0202326D01*
X0012050Y0204725D02*
X0016108Y0204725D01*
X0015760Y0207123D02*
X0012050Y0207123D01*
X0012184Y0209522D02*
X0016609Y0209522D01*
X0030422Y0192732D02*
X0043078Y0192732D01*
X0042509Y0185537D02*
X0030991Y0185537D01*
X0073571Y0195131D02*
X0107663Y0195131D01*
X0108292Y0197529D02*
X0106500Y0197529D01*
X0107350Y0199928D02*
X0107370Y0199928D01*
X0107350Y0202326D02*
X0107350Y0202326D01*
X0107350Y0204725D02*
X0107350Y0204725D01*
X0107317Y0207123D02*
X0107458Y0207123D01*
X0108751Y0209522D02*
X0105949Y0209522D01*
X0115949Y0209522D02*
X0118751Y0209522D01*
X0117383Y0207123D02*
X0117242Y0207123D01*
X0117350Y0204725D02*
X0117350Y0204725D01*
X0117350Y0202326D02*
X0117350Y0202326D01*
X0117330Y0199928D02*
X0117350Y0199928D01*
X0118200Y0197529D02*
X0116408Y0197529D01*
X0078200Y0197529D02*
X0076063Y0197529D01*
X0077256Y0199928D02*
X0077350Y0199928D01*
X0117300Y0163950D02*
X0118244Y0163950D01*
X0118730Y0161552D02*
X0117300Y0161552D01*
X0117300Y0159153D02*
X0121030Y0159153D01*
X0119115Y0156755D02*
X0117300Y0156755D01*
X0117300Y0154356D02*
X0118244Y0154356D01*
X0118562Y0151958D02*
X0117300Y0151958D01*
X0117300Y0149559D02*
X0120301Y0149559D01*
X0119521Y0147161D02*
X0117300Y0147161D01*
X0117300Y0144762D02*
X0118244Y0144762D01*
X0118394Y0142364D02*
X0117300Y0142364D01*
X0118111Y0139965D02*
X0119895Y0139965D01*
X0119927Y0137567D02*
X0118500Y0137567D01*
X0118407Y0135168D02*
X0117034Y0135168D01*
X0118244Y0132770D02*
X0113105Y0132770D01*
X0126350Y0123176D02*
X0126350Y0123176D01*
X0126350Y0120777D02*
X0126350Y0120777D01*
X0116113Y0113582D02*
X0095587Y0113582D01*
X0097985Y0111183D02*
X0112326Y0111183D01*
X0111950Y0108784D02*
X0100384Y0108784D01*
X0102782Y0106386D02*
X0108981Y0106386D01*
X0109139Y0089850D02*
X0107850Y0088561D01*
X0107850Y0081939D01*
X0109139Y0080650D01*
X0115761Y0080650D01*
X0117050Y0081939D01*
X0117050Y0088561D01*
X0115761Y0089850D01*
X0109139Y0089850D01*
X0108885Y0089596D02*
X0103959Y0089596D01*
X0104216Y0089513D02*
X0103527Y0089737D01*
X0102812Y0089850D01*
X0102450Y0089850D01*
X0102450Y0085250D01*
X0107050Y0085250D01*
X0107050Y0085612D01*
X0106937Y0086327D01*
X0106713Y0087016D01*
X0106384Y0087661D01*
X0105959Y0088247D01*
X0105447Y0088759D01*
X0104861Y0089184D01*
X0104216Y0089513D01*
X0102450Y0089596D02*
X0102450Y0089596D01*
X0102450Y0089850D02*
X0102088Y0089850D01*
X0101373Y0089737D01*
X0100684Y0089513D01*
X0100039Y0089184D01*
X0099453Y0088759D01*
X0098941Y0088247D01*
X0098516Y0087661D01*
X0098187Y0087016D01*
X0097963Y0086327D01*
X0097850Y0085612D01*
X0097850Y0085250D01*
X0102450Y0085250D01*
X0102450Y0085250D01*
X0102450Y0085250D01*
X0107050Y0085250D01*
X0107050Y0084888D01*
X0106937Y0084173D01*
X0106713Y0083484D01*
X0106384Y0082839D01*
X0105959Y0082253D01*
X0105447Y0081741D01*
X0104861Y0081316D01*
X0104216Y0080987D01*
X0103527Y0080763D01*
X0102812Y0080650D01*
X0102450Y0080650D01*
X0102450Y0085250D01*
X0102450Y0085250D01*
X0102450Y0085250D01*
X0102450Y0089850D01*
X0100941Y0089596D02*
X0012050Y0089596D01*
X0012050Y0087198D02*
X0098280Y0087198D01*
X0097850Y0085250D02*
X0097850Y0084888D01*
X0097963Y0084173D01*
X0098187Y0083484D01*
X0098516Y0082839D01*
X0098941Y0082253D01*
X0099453Y0081741D01*
X0100039Y0081316D01*
X0100684Y0080987D01*
X0101373Y0080763D01*
X0102088Y0080650D01*
X0102450Y0080650D01*
X0102450Y0085250D01*
X0097850Y0085250D01*
X0097864Y0084799D02*
X0091847Y0084799D01*
X0091881Y0084785D02*
X0089914Y0085600D01*
X0087786Y0085600D01*
X0085819Y0084785D01*
X0084314Y0083281D01*
X0083500Y0081314D01*
X0083500Y0079186D01*
X0084314Y0077219D01*
X0085819Y0075714D01*
X0087786Y0074900D01*
X0089914Y0074900D01*
X0091881Y0075714D01*
X0093385Y0077219D01*
X0094200Y0079186D01*
X0094200Y0081314D01*
X0093385Y0083281D01*
X0091881Y0084785D01*
X0093750Y0082401D02*
X0098834Y0082401D01*
X0102450Y0082401D02*
X0102450Y0082401D01*
X0102450Y0084799D02*
X0102450Y0084799D01*
X0102450Y0087198D02*
X0102450Y0087198D01*
X0106620Y0087198D02*
X0107850Y0087198D01*
X0107850Y0084799D02*
X0107036Y0084799D01*
X0107850Y0082401D02*
X0106066Y0082401D01*
X0117050Y0082401D02*
X0120850Y0082401D01*
X0120850Y0084799D02*
X0117050Y0084799D01*
X0117050Y0087198D02*
X0121121Y0087198D01*
X0122825Y0089596D02*
X0116015Y0089596D01*
X0120850Y0080002D02*
X0094200Y0080002D01*
X0093545Y0077604D02*
X0121410Y0077604D01*
X0124239Y0075205D02*
X0090651Y0075205D01*
X0087049Y0075205D02*
X0077371Y0075205D01*
X0077066Y0074900D02*
X0080200Y0078034D01*
X0080200Y0080250D01*
X0080200Y0082466D01*
X0077066Y0085600D01*
X0074850Y0085600D01*
X0074850Y0080250D01*
X0080200Y0080250D01*
X0074850Y0080250D01*
X0074850Y0080250D01*
X0074850Y0080250D01*
X0074850Y0074900D01*
X0077066Y0074900D01*
X0074850Y0074900D02*
X0074850Y0080250D01*
X0074850Y0080250D01*
X0074850Y0080250D01*
X0069500Y0080250D01*
X0069500Y0082466D01*
X0072634Y0085600D01*
X0074850Y0085600D01*
X0074850Y0080250D01*
X0069500Y0080250D01*
X0069500Y0078034D01*
X0072634Y0074900D01*
X0074850Y0074900D01*
X0074850Y0075205D02*
X0074850Y0075205D01*
X0072329Y0075205D02*
X0012050Y0075205D01*
X0012050Y0072807D02*
X0107481Y0072807D01*
X0106950Y0070408D02*
X0012050Y0070408D01*
X0012050Y0068010D02*
X0027032Y0068010D01*
X0027734Y0068713D02*
X0026187Y0067165D01*
X0025350Y0065144D01*
X0025350Y0056356D01*
X0026187Y0054334D01*
X0027734Y0052787D01*
X0029756Y0051950D01*
X0031944Y0051950D01*
X0033965Y0052787D01*
X0035513Y0054334D01*
X0035850Y0055149D01*
X0036146Y0054567D01*
X0036655Y0053867D01*
X0037267Y0053255D01*
X0037967Y0052746D01*
X0038739Y0052353D01*
X0039562Y0052085D01*
X0040417Y0051950D01*
X0040850Y0051950D01*
X0041283Y0051950D01*
X0042138Y0052085D01*
X0042961Y0052353D01*
X0043733Y0052746D01*
X0044433Y0053255D01*
X0045045Y0053867D01*
X0045554Y0054567D01*
X0045850Y0055149D01*
X0046187Y0054334D01*
X0047734Y0052787D01*
X0049756Y0051950D01*
X0051944Y0051950D01*
X0053965Y0052787D01*
X0055513Y0054334D01*
X0056350Y0056356D01*
X0056350Y0065144D01*
X0055513Y0067165D01*
X0053965Y0068713D01*
X0051944Y0069550D01*
X0049756Y0069550D01*
X0047734Y0068713D01*
X0046187Y0067165D01*
X0045850Y0066351D01*
X0045554Y0066933D01*
X0045045Y0067633D01*
X0044433Y0068245D01*
X0043733Y0068754D01*
X0042961Y0069147D01*
X0042138Y0069415D01*
X0041283Y0069550D01*
X0040850Y0069550D01*
X0040850Y0060750D01*
X0040850Y0060750D01*
X0040850Y0051950D01*
X0040850Y0060750D01*
X0040850Y0060750D01*
X0040850Y0069550D01*
X0040417Y0069550D01*
X0039562Y0069415D01*
X0038739Y0069147D01*
X0037967Y0068754D01*
X0037267Y0068245D01*
X0036655Y0067633D01*
X0036146Y0066933D01*
X0035850Y0066351D01*
X0035513Y0067165D01*
X0033965Y0068713D01*
X0031944Y0069550D01*
X0029756Y0069550D01*
X0027734Y0068713D01*
X0025544Y0065611D02*
X0012050Y0065611D01*
X0012050Y0063213D02*
X0025350Y0063213D01*
X0025350Y0060814D02*
X0012050Y0060814D01*
X0012050Y0058416D02*
X0025350Y0058416D01*
X0025490Y0056017D02*
X0012050Y0056017D01*
X0012050Y0053619D02*
X0026903Y0053619D01*
X0034797Y0053619D02*
X0036903Y0053619D01*
X0040850Y0053619D02*
X0040850Y0053619D01*
X0040850Y0056017D02*
X0040850Y0056017D01*
X0040850Y0058416D02*
X0040850Y0058416D01*
X0040850Y0060814D02*
X0040850Y0060814D01*
X0040850Y0063213D02*
X0040850Y0063213D01*
X0040850Y0065611D02*
X0040850Y0065611D01*
X0040850Y0068010D02*
X0040850Y0068010D01*
X0044668Y0068010D02*
X0047032Y0068010D01*
X0054668Y0068010D02*
X0108075Y0068010D01*
X0107465Y0065700D02*
X0105829Y0065023D01*
X0104577Y0063771D01*
X0103900Y0062135D01*
X0103900Y0060365D01*
X0104577Y0058729D01*
X0105829Y0057477D01*
X0107465Y0056800D01*
X0109235Y0056800D01*
X0110871Y0057477D01*
X0112123Y0058729D01*
X0112800Y0060365D01*
X0112800Y0062135D01*
X0112123Y0063771D01*
X0110871Y0065023D01*
X0109235Y0065700D01*
X0107465Y0065700D01*
X0107251Y0065611D02*
X0056156Y0065611D01*
X0056350Y0063213D02*
X0104346Y0063213D01*
X0103900Y0060814D02*
X0056350Y0060814D01*
X0056350Y0058416D02*
X0104891Y0058416D01*
X0106642Y0055374D02*
X0106018Y0055056D01*
X0105451Y0054644D01*
X0104956Y0054149D01*
X0104544Y0053582D01*
X0104226Y0052958D01*
X0104010Y0052292D01*
X0103900Y0051600D01*
X0103900Y0051250D01*
X0108350Y0051250D01*
X0108350Y0051250D01*
X0108350Y0055700D01*
X0108700Y0055700D01*
X0109392Y0055590D01*
X0110058Y0055374D01*
X0110682Y0055056D01*
X0111249Y0054644D01*
X0111744Y0054149D01*
X0112156Y0053582D01*
X0112474Y0052958D01*
X0112690Y0052292D01*
X0112800Y0051600D01*
X0112800Y0051250D01*
X0108350Y0051250D01*
X0108350Y0051250D01*
X0108350Y0051250D01*
X0108350Y0055700D01*
X0108000Y0055700D01*
X0107308Y0055590D01*
X0106642Y0055374D01*
X0108350Y0053619D02*
X0108350Y0053619D01*
X0108350Y0051250D02*
X0103900Y0051250D01*
X0103900Y0050900D01*
X0104010Y0050208D01*
X0104226Y0049542D01*
X0104544Y0048918D01*
X0104956Y0048351D01*
X0105451Y0047856D01*
X0106018Y0047444D01*
X0106642Y0047126D01*
X0107308Y0046910D01*
X0108000Y0046800D01*
X0108350Y0046800D01*
X0108700Y0046800D01*
X0109392Y0046910D01*
X0110058Y0047126D01*
X0110682Y0047444D01*
X0111249Y0047856D01*
X0111744Y0048351D01*
X0112156Y0048918D01*
X0112474Y0049542D01*
X0112690Y0050208D01*
X0112800Y0050900D01*
X0112800Y0051250D01*
X0108350Y0051250D01*
X0108350Y0046800D01*
X0108350Y0051250D01*
X0108350Y0051250D01*
X0108350Y0051220D02*
X0108350Y0051220D01*
X0108350Y0048822D02*
X0108350Y0048822D01*
X0104614Y0048822D02*
X0094700Y0048822D01*
X0094700Y0046423D02*
X0122306Y0046423D01*
X0120905Y0048822D02*
X0112086Y0048822D01*
X0112800Y0051220D02*
X0120850Y0051220D01*
X0120850Y0053619D02*
X0112129Y0053619D01*
X0111809Y0058416D02*
X0117669Y0058416D01*
X0116950Y0060814D02*
X0112800Y0060814D01*
X0112354Y0063213D02*
X0114569Y0063213D01*
X0112170Y0065611D02*
X0109449Y0065611D01*
X0115010Y0070408D02*
X0120700Y0070408D01*
X0121231Y0072807D02*
X0114219Y0072807D01*
X0117409Y0068010D02*
X0121825Y0068010D01*
X0121900Y0065611D02*
X0119807Y0065611D01*
X0127300Y0065611D02*
X0141893Y0065611D01*
X0144291Y0068010D02*
X0127375Y0068010D01*
X0128500Y0070408D02*
X0144571Y0070408D01*
X0142164Y0072807D02*
X0127969Y0072807D01*
X0127461Y0075205D02*
X0134239Y0075205D01*
X0137461Y0075205D02*
X0142087Y0075205D01*
X0141410Y0077604D02*
X0140290Y0077604D01*
X0140850Y0080002D02*
X0140850Y0080002D01*
X0140850Y0082401D02*
X0140850Y0082401D01*
X0140850Y0084799D02*
X0140850Y0084799D01*
X0140579Y0087198D02*
X0141121Y0087198D01*
X0142825Y0089596D02*
X0138875Y0089596D01*
X0132825Y0089596D02*
X0128875Y0089596D01*
X0130579Y0087198D02*
X0131121Y0087198D01*
X0130850Y0084799D02*
X0130850Y0084799D01*
X0130850Y0082401D02*
X0130850Y0082401D01*
X0130850Y0080002D02*
X0130850Y0080002D01*
X0130290Y0077604D02*
X0131410Y0077604D01*
X0127300Y0063213D02*
X0137797Y0063213D01*
X0136950Y0060814D02*
X0128228Y0060814D01*
X0130055Y0058416D02*
X0131645Y0058416D01*
X0130850Y0056017D02*
X0130850Y0056017D01*
X0130850Y0053619D02*
X0130850Y0053619D01*
X0130850Y0051220D02*
X0130850Y0051220D01*
X0130795Y0048822D02*
X0130905Y0048822D01*
X0132306Y0046423D02*
X0129394Y0046423D01*
X0139394Y0046423D02*
X0142306Y0046423D01*
X0140905Y0048822D02*
X0140795Y0048822D01*
X0140850Y0051220D02*
X0140850Y0051220D01*
X0140850Y0053619D02*
X0140850Y0053619D01*
X0140850Y0056017D02*
X0140850Y0056017D01*
X0149757Y0044025D02*
X0094191Y0044025D01*
X0092446Y0051220D02*
X0103900Y0051220D01*
X0104571Y0053619D02*
X0054797Y0053619D01*
X0056210Y0056017D02*
X0120850Y0056017D01*
X0150290Y0077604D02*
X0151410Y0077604D01*
X0150850Y0080002D02*
X0150850Y0080002D01*
X0150850Y0082401D02*
X0150850Y0082401D01*
X0150850Y0084799D02*
X0150850Y0084799D01*
X0150579Y0087198D02*
X0151121Y0087198D01*
X0152825Y0089596D02*
X0148875Y0089596D01*
X0180850Y0082401D02*
X0180850Y0082401D01*
X0180850Y0080002D02*
X0180850Y0080002D01*
X0190938Y0058416D02*
X0191752Y0058416D01*
X0190862Y0056017D02*
X0190850Y0056017D01*
X0195850Y0056017D02*
X0195850Y0056017D01*
X0195850Y0058416D02*
X0195850Y0058416D01*
X0199948Y0058416D02*
X0201645Y0058416D01*
X0200850Y0056017D02*
X0200838Y0056017D01*
X0200850Y0053619D02*
X0200850Y0053619D01*
X0200850Y0052750D02*
X0195850Y0052750D01*
X0195850Y0044950D01*
X0196244Y0044950D01*
X0197021Y0045073D01*
X0197769Y0045316D01*
X0198471Y0045674D01*
X0199107Y0046136D01*
X0199664Y0046693D01*
X0200126Y0047329D01*
X0200484Y0048031D01*
X0200727Y0048779D01*
X0200850Y0049556D01*
X0200850Y0052750D01*
X0200850Y0051220D02*
X0200850Y0051220D01*
X0200905Y0048822D02*
X0200734Y0048822D01*
X0199394Y0046423D02*
X0202306Y0046423D01*
X0209394Y0046423D02*
X0212306Y0046423D01*
X0210905Y0048822D02*
X0210795Y0048822D01*
X0210850Y0051220D02*
X0210850Y0051220D01*
X0210850Y0053619D02*
X0210850Y0053619D01*
X0210850Y0056017D02*
X0210850Y0056017D01*
X0210055Y0058416D02*
X0211645Y0058416D01*
X0210387Y0063213D02*
X0268350Y0063213D01*
X0268350Y0065611D02*
X0211050Y0065611D01*
X0210064Y0068010D02*
X0268350Y0068010D01*
X0251645Y0058416D02*
X0250055Y0058416D01*
X0250850Y0056017D02*
X0250850Y0056017D01*
X0250850Y0053619D02*
X0250850Y0053619D01*
X0250850Y0051220D02*
X0250850Y0051220D01*
X0250795Y0048822D02*
X0250905Y0048822D01*
X0252306Y0046423D02*
X0249394Y0046423D01*
X0242306Y0046423D02*
X0239394Y0046423D01*
X0240795Y0048822D02*
X0240905Y0048822D01*
X0240850Y0051220D02*
X0240850Y0051220D01*
X0240850Y0053619D02*
X0240850Y0053619D01*
X0240850Y0056017D02*
X0240850Y0056017D01*
X0240055Y0058416D02*
X0241645Y0058416D01*
X0231645Y0058416D02*
X0230055Y0058416D01*
X0230850Y0056017D02*
X0230850Y0056017D01*
X0230850Y0053619D02*
X0230850Y0053619D01*
X0230850Y0051220D02*
X0230850Y0051220D01*
X0230795Y0048822D02*
X0230905Y0048822D01*
X0232306Y0046423D02*
X0229394Y0046423D01*
X0222306Y0046423D02*
X0219394Y0046423D01*
X0220795Y0048822D02*
X0220905Y0048822D01*
X0220850Y0051220D02*
X0220850Y0051220D01*
X0220850Y0053619D02*
X0220850Y0053619D01*
X0220850Y0056017D02*
X0220850Y0056017D01*
X0220055Y0058416D02*
X0221645Y0058416D01*
X0221410Y0077604D02*
X0220290Y0077604D01*
X0220850Y0080002D02*
X0220850Y0080002D01*
X0220850Y0082401D02*
X0220850Y0082401D01*
X0220850Y0084799D02*
X0220850Y0084799D01*
X0220579Y0087198D02*
X0221121Y0087198D01*
X0222825Y0089596D02*
X0218875Y0089596D01*
X0211121Y0087198D02*
X0210579Y0087198D01*
X0210850Y0084799D02*
X0210850Y0084799D01*
X0210850Y0082401D02*
X0210850Y0082401D01*
X0210850Y0080002D02*
X0210850Y0080002D01*
X0210290Y0077604D02*
X0211410Y0077604D01*
X0230290Y0077604D02*
X0231410Y0077604D01*
X0230850Y0078955D02*
X0230850Y0086545D01*
X0231124Y0087205D01*
X0230737Y0086818D01*
X0230850Y0086545D01*
X0230850Y0078955D01*
X0230850Y0080002D02*
X0230850Y0080002D01*
X0230850Y0082401D02*
X0230850Y0082401D01*
X0230850Y0084799D02*
X0230850Y0084799D01*
X0231116Y0087198D02*
X0231121Y0087198D01*
X0195850Y0053619D02*
X0195850Y0053619D01*
X0195850Y0052750D02*
X0195850Y0052750D01*
X0195850Y0052750D01*
X0195850Y0044950D01*
X0195456Y0044950D01*
X0194679Y0045073D01*
X0193931Y0045316D01*
X0193229Y0045674D01*
X0192593Y0046136D01*
X0192036Y0046693D01*
X0191574Y0047329D01*
X0191216Y0048031D01*
X0190973Y0048779D01*
X0190850Y0049556D01*
X0190850Y0052750D01*
X0195850Y0052750D01*
X0195850Y0051220D02*
X0195850Y0051220D01*
X0195850Y0048822D02*
X0195850Y0048822D01*
X0195850Y0046423D02*
X0195850Y0046423D01*
X0192306Y0046423D02*
X0189394Y0046423D01*
X0190795Y0048822D02*
X0190966Y0048822D01*
X0190850Y0051220D02*
X0190850Y0051220D01*
X0190850Y0053619D02*
X0190850Y0053619D01*
X0192267Y0041626D02*
X0263749Y0041626D01*
X0260894Y0039228D02*
X0193762Y0039228D01*
X0193578Y0036829D02*
X0259551Y0036829D01*
X0235269Y0020040D02*
X0231431Y0020040D01*
X0233103Y0017641D02*
X0233597Y0017641D01*
X0233350Y0017045D02*
X0233350Y0009455D01*
X0232589Y0007618D01*
X0231921Y0006950D01*
X0234779Y0006950D01*
X0234111Y0007618D01*
X0233350Y0009455D01*
X0233350Y0017045D01*
X0233350Y0015243D02*
X0233350Y0015243D01*
X0233350Y0012844D02*
X0233350Y0012844D01*
X0233350Y0010446D02*
X0233350Y0010446D01*
X0232767Y0008047D02*
X0233933Y0008047D01*
X0224779Y0006950D02*
X0221921Y0006950D01*
X0222589Y0007618D01*
X0223350Y0009455D01*
X0223350Y0017045D01*
X0223350Y0009455D01*
X0224111Y0007618D01*
X0224779Y0006950D01*
X0223933Y0008047D02*
X0222767Y0008047D01*
X0223350Y0010446D02*
X0223350Y0010446D01*
X0223350Y0012844D02*
X0223350Y0012844D01*
X0223350Y0015243D02*
X0223350Y0015243D01*
X0223103Y0017641D02*
X0223597Y0017641D01*
X0225269Y0020040D02*
X0221431Y0020040D01*
X0215269Y0020040D02*
X0211431Y0020040D01*
X0213103Y0017641D02*
X0213597Y0017641D01*
X0213350Y0017045D02*
X0213350Y0009455D01*
X0212589Y0007618D01*
X0211921Y0006950D01*
X0214779Y0006950D01*
X0214111Y0007618D01*
X0213350Y0009455D01*
X0213350Y0017045D01*
X0213350Y0015243D02*
X0213350Y0015243D01*
X0213350Y0012844D02*
X0213350Y0012844D01*
X0213350Y0010446D02*
X0213350Y0010446D01*
X0212767Y0008047D02*
X0213933Y0008047D01*
X0113933Y0008047D02*
X0071477Y0008047D01*
X0072470Y0010446D02*
X0113350Y0010446D01*
X0113350Y0012844D02*
X0072849Y0012844D01*
X0068400Y0022438D02*
X0065991Y0022438D01*
X0068567Y0024837D02*
X0048210Y0024837D01*
X0048818Y0027235D02*
X0040676Y0027235D01*
X0040824Y0029634D02*
X0046420Y0029634D01*
X0044276Y0032032D02*
X0040824Y0032032D01*
X0040824Y0034431D02*
X0044276Y0034431D01*
X0044276Y0036829D02*
X0040824Y0036829D01*
X0040824Y0039228D02*
X0044276Y0039228D01*
X0045779Y0041626D02*
X0040824Y0041626D01*
X0040824Y0044025D02*
X0048178Y0044025D01*
X0046903Y0053619D02*
X0044797Y0053619D01*
X0060522Y0044025D02*
X0070688Y0044025D01*
X0070000Y0046423D02*
X0012050Y0046423D01*
X0012050Y0044025D02*
X0020676Y0044025D01*
X0020676Y0041626D02*
X0012050Y0041626D01*
X0012050Y0039228D02*
X0020676Y0039228D01*
X0020676Y0036829D02*
X0012050Y0036829D01*
X0012050Y0034431D02*
X0020676Y0034431D01*
X0020676Y0032032D02*
X0012050Y0032032D01*
X0012050Y0029634D02*
X0020676Y0029634D01*
X0020824Y0027235D02*
X0012050Y0027235D01*
X0012050Y0024837D02*
X0036890Y0024837D01*
X0034491Y0022438D02*
X0012050Y0022438D01*
X0012050Y0020040D02*
X0032476Y0020040D01*
X0032476Y0017641D02*
X0012050Y0017641D01*
X0012050Y0015243D02*
X0032476Y0015243D01*
X0032476Y0012844D02*
X0012050Y0012844D01*
X0012050Y0010446D02*
X0034108Y0010446D01*
X0036506Y0008047D02*
X0012050Y0008047D01*
X0042470Y0022438D02*
X0042630Y0022438D01*
X0042630Y0024837D02*
X0042470Y0024837D01*
X0050609Y0022438D02*
X0060709Y0022438D01*
X0056706Y0020040D02*
X0052624Y0020040D01*
X0052624Y0017641D02*
X0054887Y0017641D01*
X0053893Y0015243D02*
X0052624Y0015243D01*
X0052624Y0012844D02*
X0053851Y0012844D01*
X0054230Y0010446D02*
X0050992Y0010446D01*
X0048594Y0008047D02*
X0055223Y0008047D01*
X0059882Y0027235D02*
X0069921Y0027235D01*
X0070417Y0048822D02*
X0012050Y0048822D01*
X0012050Y0051220D02*
X0072254Y0051220D01*
X0037032Y0068010D02*
X0034668Y0068010D01*
X0012050Y0077604D02*
X0069930Y0077604D01*
X0069500Y0080002D02*
X0012050Y0080002D01*
X0012050Y0082401D02*
X0069500Y0082401D01*
X0071833Y0084799D02*
X0012050Y0084799D01*
X0074850Y0084799D02*
X0074850Y0084799D01*
X0074850Y0082401D02*
X0074850Y0082401D01*
X0074850Y0080002D02*
X0074850Y0080002D01*
X0074850Y0077604D02*
X0074850Y0077604D01*
X0079770Y0077604D02*
X0084155Y0077604D01*
X0083500Y0080002D02*
X0080200Y0080002D01*
X0080200Y0082401D02*
X0083950Y0082401D01*
X0085853Y0084799D02*
X0077867Y0084799D01*
X0167228Y0149559D02*
X0179535Y0149559D01*
X0177250Y0151958D02*
X0169626Y0151958D01*
X0172025Y0154356D02*
X0177250Y0154356D01*
X0178349Y0156755D02*
X0174423Y0156755D01*
X0176822Y0159153D02*
X0179941Y0159153D01*
X0177543Y0161552D02*
X0177300Y0161552D01*
X0177300Y0166349D02*
X0177943Y0166349D01*
X0177300Y0168747D02*
X0211950Y0168747D01*
X0219284Y0166349D02*
X0227683Y0166349D01*
X0225284Y0168747D02*
X0219750Y0168747D01*
X0216750Y0175943D02*
X0251300Y0175943D01*
X0251300Y0176582D02*
X0251300Y0156715D01*
X0250694Y0156109D01*
X0250100Y0154676D01*
X0250100Y0153124D01*
X0250694Y0151691D01*
X0251791Y0150594D01*
X0253224Y0150000D01*
X0254776Y0150000D01*
X0256209Y0150594D01*
X0257306Y0151691D01*
X0257900Y0153124D01*
X0257900Y0154676D01*
X0257306Y0156109D01*
X0256700Y0156715D01*
X0256700Y0178237D01*
X0256289Y0179229D01*
X0241150Y0194368D01*
X0241150Y0196198D01*
X0241182Y0196211D01*
X0242589Y0197618D01*
X0243350Y0199455D01*
X0244111Y0197618D01*
X0245518Y0196211D01*
X0247355Y0195450D01*
X0249345Y0195450D01*
X0251182Y0196211D01*
X0252589Y0197618D01*
X0253350Y0199455D01*
X0254111Y0197618D01*
X0255518Y0196211D01*
X0257355Y0195450D01*
X0259345Y0195450D01*
X0261182Y0196211D01*
X0262589Y0197618D01*
X0263350Y0199455D01*
X0263350Y0207017D01*
X0264650Y0205717D01*
X0264650Y0161514D01*
X0265213Y0160154D01*
X0266254Y0159113D01*
X0266254Y0159113D01*
X0268350Y0157017D01*
X0268350Y0152749D01*
X0266460Y0152749D01*
X0262969Y0151303D01*
X0260297Y0148631D01*
X0258851Y0145140D01*
X0258851Y0141360D01*
X0260297Y0137869D01*
X0262969Y0135197D01*
X0266460Y0133751D01*
X0268350Y0133751D01*
X0268350Y0130638D01*
X0268200Y0130276D01*
X0268200Y0128724D01*
X0268292Y0128501D01*
X0266675Y0128501D01*
X0263850Y0125676D01*
X0261025Y0128501D01*
X0256675Y0128501D01*
X0256050Y0127876D01*
X0256050Y0145037D01*
X0255639Y0146029D01*
X0254879Y0146789D01*
X0227379Y0174289D01*
X0226387Y0174700D01*
X0206968Y0174700D01*
X0183500Y0198168D01*
X0183500Y0199026D01*
X0182906Y0200459D01*
X0181809Y0201556D01*
X0180376Y0202150D01*
X0178824Y0202150D01*
X0177391Y0201556D01*
X0177350Y0201515D01*
X0177350Y0207045D01*
X0176589Y0208882D01*
X0175921Y0209550D01*
X0184779Y0209550D01*
X0184111Y0208882D01*
X0183350Y0207045D01*
X0183350Y0199455D01*
X0184111Y0197618D01*
X0185518Y0196211D01*
X0187355Y0195450D01*
X0189345Y0195450D01*
X0191182Y0196211D01*
X0192589Y0197618D01*
X0193350Y0199455D01*
X0194111Y0197618D01*
X0195518Y0196211D01*
X0197355Y0195450D01*
X0199345Y0195450D01*
X0201182Y0196211D01*
X0202589Y0197618D01*
X0203350Y0199455D01*
X0204111Y0197618D01*
X0205450Y0196279D01*
X0205450Y0193413D01*
X0205861Y0192421D01*
X0206621Y0191661D01*
X0213050Y0185232D01*
X0213050Y0182565D01*
X0212444Y0181959D01*
X0211850Y0180526D01*
X0211850Y0178974D01*
X0212444Y0177541D01*
X0213541Y0176444D01*
X0214974Y0175850D01*
X0216526Y0175850D01*
X0217959Y0176444D01*
X0219056Y0177541D01*
X0219650Y0178974D01*
X0219650Y0180526D01*
X0219056Y0181959D01*
X0218450Y0182565D01*
X0218450Y0186887D01*
X0218039Y0187879D01*
X0210850Y0195068D01*
X0210850Y0196074D01*
X0211182Y0196211D01*
X0212589Y0197618D01*
X0213350Y0199455D01*
X0214111Y0197618D01*
X0215518Y0196211D01*
X0217355Y0195450D01*
X0219345Y0195450D01*
X0221182Y0196211D01*
X0222589Y0197618D01*
X0223350Y0199455D01*
X0224111Y0197618D01*
X0225518Y0196211D01*
X0227355Y0195450D01*
X0229345Y0195450D01*
X0231182Y0196211D01*
X0232589Y0197618D01*
X0233350Y0199455D01*
X0234111Y0197618D01*
X0235518Y0196211D01*
X0235750Y0196115D01*
X0235750Y0192713D01*
X0236161Y0191721D01*
X0236921Y0190961D01*
X0251300Y0176582D01*
X0249540Y0178341D02*
X0219388Y0178341D01*
X0219561Y0180740D02*
X0247142Y0180740D01*
X0244743Y0183138D02*
X0218450Y0183138D01*
X0218450Y0185537D02*
X0242345Y0185537D01*
X0239946Y0187935D02*
X0217983Y0187935D01*
X0215584Y0190334D02*
X0237548Y0190334D01*
X0235750Y0192732D02*
X0213186Y0192732D01*
X0210850Y0195131D02*
X0235750Y0195131D01*
X0234200Y0197529D02*
X0232500Y0197529D01*
X0233350Y0199455D02*
X0233350Y0207045D01*
X0234111Y0208882D01*
X0234779Y0209550D01*
X0231921Y0209550D01*
X0232589Y0208882D01*
X0233350Y0207045D01*
X0233350Y0199455D01*
X0233350Y0199928D02*
X0233350Y0199928D01*
X0233350Y0202326D02*
X0233350Y0202326D01*
X0233350Y0204725D02*
X0233350Y0204725D01*
X0233317Y0207123D02*
X0233383Y0207123D01*
X0234751Y0209522D02*
X0231949Y0209522D01*
X0224779Y0209550D02*
X0224111Y0208882D01*
X0223350Y0207045D01*
X0223350Y0199455D01*
X0223350Y0207045D01*
X0222589Y0208882D01*
X0221921Y0209550D01*
X0224779Y0209550D01*
X0224751Y0209522D02*
X0221949Y0209522D01*
X0223317Y0207123D02*
X0223383Y0207123D01*
X0223350Y0204725D02*
X0223350Y0204725D01*
X0223350Y0202326D02*
X0223350Y0202326D01*
X0223350Y0199928D02*
X0223350Y0199928D01*
X0222500Y0197529D02*
X0224200Y0197529D01*
X0214200Y0197529D02*
X0212500Y0197529D01*
X0213350Y0199455D02*
X0213350Y0207045D01*
X0214111Y0208882D01*
X0214779Y0209550D01*
X0211921Y0209550D01*
X0212589Y0208882D01*
X0213350Y0207045D01*
X0213350Y0199455D01*
X0213350Y0199928D02*
X0213350Y0199928D01*
X0213350Y0202326D02*
X0213350Y0202326D01*
X0213350Y0204725D02*
X0213350Y0204725D01*
X0213317Y0207123D02*
X0213383Y0207123D01*
X0214751Y0209522D02*
X0211949Y0209522D01*
X0204779Y0209550D02*
X0204111Y0208882D01*
X0203350Y0207045D01*
X0203350Y0199455D01*
X0203350Y0207045D01*
X0202589Y0208882D01*
X0201921Y0209550D01*
X0204779Y0209550D01*
X0204751Y0209522D02*
X0201949Y0209522D01*
X0203317Y0207123D02*
X0203383Y0207123D01*
X0203350Y0204725D02*
X0203350Y0204725D01*
X0203350Y0202326D02*
X0203350Y0202326D01*
X0203350Y0199928D02*
X0203350Y0199928D01*
X0202500Y0197529D02*
X0204200Y0197529D01*
X0205450Y0195131D02*
X0186537Y0195131D01*
X0184200Y0197529D02*
X0184139Y0197529D01*
X0183350Y0199928D02*
X0183126Y0199928D01*
X0183350Y0202326D02*
X0177350Y0202326D01*
X0177350Y0204725D02*
X0183350Y0204725D01*
X0183383Y0207123D02*
X0177317Y0207123D01*
X0175949Y0209522D02*
X0184751Y0209522D01*
X0191921Y0209550D02*
X0192589Y0208882D01*
X0193350Y0207045D01*
X0193350Y0199455D01*
X0193350Y0207045D01*
X0194111Y0208882D01*
X0194779Y0209550D01*
X0191921Y0209550D01*
X0191949Y0209522D02*
X0194751Y0209522D01*
X0193383Y0207123D02*
X0193317Y0207123D01*
X0193350Y0204725D02*
X0193350Y0204725D01*
X0193350Y0202326D02*
X0193350Y0202326D01*
X0193350Y0199928D02*
X0193350Y0199928D01*
X0192500Y0197529D02*
X0194200Y0197529D01*
X0188936Y0192732D02*
X0205732Y0192732D01*
X0207948Y0190334D02*
X0191334Y0190334D01*
X0193733Y0187935D02*
X0210346Y0187935D01*
X0212745Y0185537D02*
X0196131Y0185537D01*
X0198530Y0183138D02*
X0213050Y0183138D01*
X0211939Y0180740D02*
X0200929Y0180740D01*
X0203327Y0178341D02*
X0212112Y0178341D01*
X0214750Y0175943D02*
X0205726Y0175943D01*
X0202886Y0171146D02*
X0185751Y0171146D01*
X0186450Y0173544D02*
X0200487Y0173544D01*
X0198089Y0175943D02*
X0186163Y0175943D01*
X0183764Y0178341D02*
X0195690Y0178341D01*
X0193292Y0180740D02*
X0177300Y0180740D01*
X0177300Y0178341D02*
X0179936Y0178341D01*
X0181850Y0178341D02*
X0181850Y0178341D01*
X0181850Y0175943D02*
X0181850Y0175943D01*
X0181850Y0173544D02*
X0181850Y0173544D01*
X0181850Y0171146D02*
X0181850Y0171146D01*
X0177949Y0171146D02*
X0177300Y0171146D01*
X0177300Y0175943D02*
X0177537Y0175943D01*
X0177300Y0183138D02*
X0190893Y0183138D01*
X0188495Y0185537D02*
X0177300Y0185537D01*
X0181051Y0187935D02*
X0186096Y0187935D01*
X0183698Y0190334D02*
X0182250Y0190334D01*
X0228124Y0173544D02*
X0251300Y0173544D01*
X0251300Y0171146D02*
X0230523Y0171146D01*
X0232921Y0168747D02*
X0251300Y0168747D01*
X0251300Y0166349D02*
X0235320Y0166349D01*
X0237718Y0163950D02*
X0251300Y0163950D01*
X0251300Y0161552D02*
X0240117Y0161552D01*
X0242515Y0159153D02*
X0251300Y0159153D01*
X0251300Y0156755D02*
X0244914Y0156755D01*
X0247312Y0154356D02*
X0250100Y0154356D01*
X0249711Y0151958D02*
X0250583Y0151958D01*
X0252109Y0149559D02*
X0261225Y0149559D01*
X0259688Y0147161D02*
X0254508Y0147161D01*
X0256050Y0144762D02*
X0258851Y0144762D01*
X0258851Y0142364D02*
X0256050Y0142364D01*
X0256050Y0139965D02*
X0259429Y0139965D01*
X0260599Y0137567D02*
X0256050Y0137567D01*
X0256050Y0135168D02*
X0263039Y0135168D01*
X0268350Y0132770D02*
X0256050Y0132770D01*
X0256050Y0130371D02*
X0268240Y0130371D01*
X0266146Y0127973D02*
X0261554Y0127973D01*
X0256146Y0127973D02*
X0256050Y0127973D01*
X0257417Y0151958D02*
X0264550Y0151958D01*
X0268350Y0154356D02*
X0257900Y0154356D01*
X0256700Y0156755D02*
X0268350Y0156755D01*
X0266214Y0159153D02*
X0256700Y0159153D01*
X0256700Y0161552D02*
X0264650Y0161552D01*
X0264650Y0163950D02*
X0256700Y0163950D01*
X0256700Y0166349D02*
X0264650Y0166349D01*
X0264650Y0168747D02*
X0256700Y0168747D01*
X0256700Y0171146D02*
X0264650Y0171146D01*
X0264650Y0173544D02*
X0256700Y0173544D01*
X0256700Y0175943D02*
X0264650Y0175943D01*
X0264650Y0178341D02*
X0256657Y0178341D01*
X0254779Y0180740D02*
X0264650Y0180740D01*
X0264650Y0183138D02*
X0252380Y0183138D01*
X0249981Y0185537D02*
X0264650Y0185537D01*
X0264650Y0187935D02*
X0247583Y0187935D01*
X0245184Y0190334D02*
X0264650Y0190334D01*
X0264650Y0192732D02*
X0242786Y0192732D01*
X0241150Y0195131D02*
X0264650Y0195131D01*
X0264650Y0197529D02*
X0262500Y0197529D01*
X0263350Y0199928D02*
X0264650Y0199928D01*
X0264650Y0202326D02*
X0263350Y0202326D01*
X0263350Y0204725D02*
X0264650Y0204725D01*
X0254779Y0209550D02*
X0254111Y0208882D01*
X0253350Y0207045D01*
X0253350Y0199455D01*
X0253350Y0207045D01*
X0252589Y0208882D01*
X0251921Y0209550D01*
X0254779Y0209550D01*
X0254751Y0209522D02*
X0251949Y0209522D01*
X0253317Y0207123D02*
X0253383Y0207123D01*
X0253350Y0204725D02*
X0253350Y0204725D01*
X0253350Y0202326D02*
X0253350Y0202326D01*
X0253350Y0199928D02*
X0253350Y0199928D01*
X0252500Y0197529D02*
X0254200Y0197529D01*
X0244200Y0197529D02*
X0242500Y0197529D01*
X0243350Y0199455D02*
X0243350Y0207045D01*
X0244111Y0208882D01*
X0244779Y0209550D01*
X0241921Y0209550D01*
X0242589Y0208882D01*
X0243350Y0207045D01*
X0243350Y0199455D01*
X0243350Y0199928D02*
X0243350Y0199928D01*
X0243350Y0202326D02*
X0243350Y0202326D01*
X0243350Y0204725D02*
X0243350Y0204725D01*
X0243317Y0207123D02*
X0243383Y0207123D01*
X0244751Y0209522D02*
X0241949Y0209522D01*
D29*
X0268350Y0103250D02*
X0268850Y0103250D01*
X0268350Y0103250D02*
X0265850Y0100750D01*
X0264600Y0100750D01*
X0263850Y0100824D01*
D30*
X0058850Y0100750D03*
X0058850Y0089750D03*
X0040850Y0089750D03*
X0040850Y0100750D03*
X0022850Y0100750D03*
X0022850Y0089750D03*
X0027350Y0113750D03*
X0022350Y0133250D03*
X0040850Y0133250D03*
X0059350Y0133250D03*
X0054850Y0113750D03*
D31*
X0181450Y0075450D03*
X0207250Y0065450D03*
X0223150Y0167650D03*
X0220550Y0184950D03*
X0237250Y0184350D03*
D32*
X0176750Y0074000D02*
X0184600Y0065750D01*
X0185850Y0064850D01*
D33*
X0185850Y0064850D03*
X0176750Y0074000D03*
D34*
X0191650Y0063000D03*
X0179600Y0044500D03*
X0164600Y0028250D03*
X0155850Y0060750D03*
X0150850Y0070750D03*
X0145850Y0074100D03*
X0162100Y0072150D03*
X0140850Y0060750D03*
X0124600Y0070750D03*
X0120850Y0060750D03*
X0110850Y0070750D03*
X0140850Y0102000D03*
X0145850Y0105750D03*
X0139600Y0112000D03*
X0115850Y0109500D03*
X0109600Y0134500D03*
X0114600Y0138250D03*
X0150850Y0148250D03*
X0164600Y0144500D03*
X0180850Y0145750D03*
X0180850Y0133250D03*
X0209600Y0114500D03*
X0205850Y0109500D03*
X0217100Y0097000D03*
X0222100Y0102000D03*
X0203350Y0094500D03*
X0190850Y0090750D03*
X0180850Y0088250D03*
X0228350Y0127000D03*
X0218350Y0137000D03*
X0249600Y0142000D03*
X0254000Y0153900D03*
X0272100Y0129500D03*
X0215850Y0168250D03*
X0215750Y0179750D03*
X0179600Y0198250D03*
X0178350Y0190750D03*
X0163850Y0189000D03*
X0157100Y0188000D03*
X0157100Y0193250D03*
X0150100Y0190750D03*
X0147100Y0187000D03*
X0153350Y0177000D03*
X0118350Y0168250D03*
X0117100Y0189500D03*
X0095850Y0190750D03*
X0089600Y0184500D03*
X0062100Y0143250D03*
M02*
