%
M48
M72
T01C0.01969
T02C0.02200
T03C0.02362
T04C0.02400
T05C0.02500
T06C0.03200
T07C0.03346
T08C0.03740
T09C0.03937
T10C0.04000
T11C0.04100
T12C0.04400
T13C0.05118
T14C0.12598
T15C0.13000
%
T01
X181450Y75450
X207250Y65450
X223150Y167650
X220550Y184950
X237250Y184350
T02
X215750Y179750
X215850Y168250
X254000Y153900
X249600Y142000
X272100Y129500
X228350Y127000
X218350Y137000
X209600Y114500
X205850Y109500
X217100Y97000
X222100Y102000
X203350Y94500
X190850Y90750
X180850Y88250
X162100Y72150
X150850Y70750
X145850Y74100
X140850Y60750
X155850Y60750
X179600Y44500
X164600Y28250
X120850Y60750
X124600Y70750
X110850Y70750
X140850Y102000
X145850Y105750
X139600Y112000
X115850Y109500
X109600Y134500
X114600Y138250
X150850Y148250
X164600Y144500
X180850Y145750
X180850Y133250
X153350Y177000
X147100Y187000
X150100Y190750
X157100Y193250
X157100Y188000
X163850Y189000
X178350Y190750
X179600Y198250
X118350Y168250
X117100Y189500
X95850Y190750
X89600Y184500
X62100Y143250
X191650Y63000
T03
X58850Y89750
X58850Y100750
X54850Y113750
X40850Y100750
X40850Y89750
X22850Y89750
X22850Y100750
X27350Y113750
X22350Y133250
X40850Y133250
X59350Y133250
T04
X176750Y74000
X185850Y64850
T05
X189350Y38250
X189350Y28250
X176350Y28250
X176350Y38250
X108350Y51250
X108350Y61250
X161350Y116250
X161350Y126250
X154850Y141250
X144850Y141250
X180350Y126250
X180350Y116250
T06
X180350Y100750
X161350Y100750
X112850Y103750
X112450Y85250
X102450Y85250
X88850Y80250
X74850Y80250
X72850Y103750
X141850Y153750
X141850Y163750
X141850Y173750
X181850Y173750
X181850Y163750
X181850Y153750
X209850Y134750
X225350Y113750
X235350Y113750
X209850Y94750
X166850Y36750
X126850Y36750
X89350Y46750
X75350Y46750
T07
X118350Y13250
X128350Y13250
X138350Y13250
X148350Y13250
X158350Y13250
X168350Y13250
X178350Y13250
X188350Y13250
X208350Y13250
X218350Y13250
X228350Y13250
X238350Y13250
X248350Y13250
X258350Y13250
X255850Y52750
X245850Y52750
X235850Y52750
X225850Y52750
X215850Y52750
X205850Y52750
X195850Y52750
X185850Y52750
X175850Y52750
X165850Y52750
X155850Y52750
X145850Y52750
X135850Y52750
X125850Y52750
X125850Y82750
X135850Y82750
X145850Y82750
X155850Y82750
X165850Y82750
X175850Y82750
X185850Y82750
X195850Y82750
X205850Y82750
X215850Y82750
X225850Y82750
X235850Y82750
X245850Y82750
X255850Y82750
X258350Y203250
X248350Y203250
X238350Y203250
X228350Y203250
X218350Y203250
X208350Y203250
X198350Y203250
X188350Y203250
X172350Y203250
X162350Y203250
X152350Y203250
X142350Y203250
X132350Y203250
X122350Y203250
X112350Y203250
X102350Y203250
X92350Y203250
X82350Y203250
T08
X258850Y123250
X268850Y123250
X268850Y113250
X258850Y113250
X258850Y103250
X268850Y103250
T09
X126350Y123750
X126350Y133750
X126350Y143750
X126350Y153750
X126350Y163750
X126350Y173750
T10
X49550Y188850
X49550Y206650
X23950Y206650
X23950Y188850
T11
X74350Y23250
X109350Y23250
T12
X50850Y60750
X40850Y60750
X30850Y60750
T13
X39550Y16250
X42550Y16250
X45550Y16250
X54350Y32950
X54350Y35950
X54350Y38950
X30750Y38950
X30750Y35950
X30750Y32950
T14
X63350Y13250
X268350Y33250
X268350Y143250
X68350Y203250
T15
X40850Y119750
M30
