G75*
%MOIN*%
%OFA0B0*%
%FSLAX25Y25*%
%IPPOS*%
%LPD*%
%AMOC8*
5,1,8,0,0,1.08239X$1,22.5*
%
%ADD10C,0.01000*%
%ADD11C,0.00000*%
%ADD12C,0.12598*%
%ADD13C,0.05600*%
%ADD14OC8,0.06102*%
%ADD15OC8,0.15748*%
%ADD16R,0.15748X0.15748*%
%ADD17C,0.07677*%
%ADD18C,0.06600*%
%ADD19C,0.13000*%
%ADD20OC8,0.04800*%
%ADD21C,0.04800*%
%ADD22C,0.04500*%
%ADD23OC8,0.06300*%
%ADD24C,0.06300*%
%ADD25C,0.05906*%
%ADD26C,0.07500*%
%ADD27R,0.04800X0.04800*%
%ADD28C,0.06000*%
D10*
X0008350Y0007187D02*
X0008350Y0209313D01*
X0008352Y0209437D01*
X0008358Y0209560D01*
X0008367Y0209684D01*
X0008381Y0209806D01*
X0008398Y0209929D01*
X0008420Y0210051D01*
X0008445Y0210172D01*
X0008474Y0210292D01*
X0008506Y0210411D01*
X0008543Y0210530D01*
X0008583Y0210647D01*
X0008626Y0210762D01*
X0008674Y0210877D01*
X0008725Y0210989D01*
X0008779Y0211100D01*
X0008837Y0211210D01*
X0008898Y0211317D01*
X0008963Y0211423D01*
X0009031Y0211526D01*
X0009102Y0211627D01*
X0009176Y0211726D01*
X0009253Y0211823D01*
X0009334Y0211917D01*
X0009417Y0212008D01*
X0009503Y0212097D01*
X0009592Y0212183D01*
X0009683Y0212266D01*
X0009777Y0212347D01*
X0009874Y0212424D01*
X0009973Y0212498D01*
X0010074Y0212569D01*
X0010177Y0212637D01*
X0010283Y0212702D01*
X0010390Y0212763D01*
X0010500Y0212821D01*
X0010611Y0212875D01*
X0010723Y0212926D01*
X0010838Y0212974D01*
X0010953Y0213017D01*
X0011070Y0213057D01*
X0011189Y0213094D01*
X0011308Y0213126D01*
X0011428Y0213155D01*
X0011549Y0213180D01*
X0011671Y0213202D01*
X0011794Y0213219D01*
X0011916Y0213233D01*
X0012040Y0213242D01*
X0012163Y0213248D01*
X0012287Y0213250D01*
X0262350Y0213250D01*
X0268350Y0207250D01*
X0268350Y0162250D01*
X0278350Y0152250D01*
X0278350Y0023250D01*
X0268350Y0013250D01*
X0268350Y0007187D01*
X0268348Y0007063D01*
X0268342Y0006940D01*
X0268333Y0006816D01*
X0268319Y0006694D01*
X0268302Y0006571D01*
X0268280Y0006449D01*
X0268255Y0006328D01*
X0268226Y0006208D01*
X0268194Y0006089D01*
X0268157Y0005970D01*
X0268117Y0005853D01*
X0268074Y0005738D01*
X0268026Y0005623D01*
X0267975Y0005511D01*
X0267921Y0005400D01*
X0267863Y0005290D01*
X0267802Y0005183D01*
X0267737Y0005077D01*
X0267669Y0004974D01*
X0267598Y0004873D01*
X0267524Y0004774D01*
X0267447Y0004677D01*
X0267366Y0004583D01*
X0267283Y0004492D01*
X0267197Y0004403D01*
X0267108Y0004317D01*
X0267017Y0004234D01*
X0266923Y0004153D01*
X0266826Y0004076D01*
X0266727Y0004002D01*
X0266626Y0003931D01*
X0266523Y0003863D01*
X0266417Y0003798D01*
X0266310Y0003737D01*
X0266200Y0003679D01*
X0266089Y0003625D01*
X0265977Y0003574D01*
X0265862Y0003526D01*
X0265747Y0003483D01*
X0265630Y0003443D01*
X0265511Y0003406D01*
X0265392Y0003374D01*
X0265272Y0003345D01*
X0265151Y0003320D01*
X0265029Y0003298D01*
X0264906Y0003281D01*
X0264784Y0003267D01*
X0264660Y0003258D01*
X0264537Y0003252D01*
X0264413Y0003250D01*
X0012287Y0003250D01*
X0012163Y0003252D01*
X0012040Y0003258D01*
X0011916Y0003267D01*
X0011794Y0003281D01*
X0011671Y0003298D01*
X0011549Y0003320D01*
X0011428Y0003345D01*
X0011308Y0003374D01*
X0011189Y0003406D01*
X0011070Y0003443D01*
X0010953Y0003483D01*
X0010838Y0003526D01*
X0010723Y0003574D01*
X0010611Y0003625D01*
X0010500Y0003679D01*
X0010390Y0003737D01*
X0010283Y0003798D01*
X0010177Y0003863D01*
X0010074Y0003931D01*
X0009973Y0004002D01*
X0009874Y0004076D01*
X0009777Y0004153D01*
X0009683Y0004234D01*
X0009592Y0004317D01*
X0009503Y0004403D01*
X0009417Y0004492D01*
X0009334Y0004583D01*
X0009253Y0004677D01*
X0009176Y0004774D01*
X0009102Y0004873D01*
X0009031Y0004974D01*
X0008963Y0005077D01*
X0008898Y0005183D01*
X0008837Y0005290D01*
X0008779Y0005400D01*
X0008725Y0005511D01*
X0008674Y0005623D01*
X0008626Y0005738D01*
X0008583Y0005853D01*
X0008543Y0005970D01*
X0008506Y0006089D01*
X0008474Y0006208D01*
X0008445Y0006328D01*
X0008420Y0006449D01*
X0008398Y0006571D01*
X0008381Y0006694D01*
X0008367Y0006816D01*
X0008358Y0006940D01*
X0008352Y0007063D01*
X0008350Y0007187D01*
D11*
X0057051Y0013250D02*
X0057053Y0013408D01*
X0057059Y0013566D01*
X0057069Y0013724D01*
X0057083Y0013882D01*
X0057101Y0014039D01*
X0057122Y0014196D01*
X0057148Y0014352D01*
X0057178Y0014508D01*
X0057211Y0014663D01*
X0057249Y0014816D01*
X0057290Y0014969D01*
X0057335Y0015121D01*
X0057384Y0015272D01*
X0057437Y0015421D01*
X0057493Y0015569D01*
X0057553Y0015715D01*
X0057617Y0015860D01*
X0057685Y0016003D01*
X0057756Y0016145D01*
X0057830Y0016285D01*
X0057908Y0016422D01*
X0057990Y0016558D01*
X0058074Y0016692D01*
X0058163Y0016823D01*
X0058254Y0016952D01*
X0058349Y0017079D01*
X0058446Y0017204D01*
X0058547Y0017326D01*
X0058651Y0017445D01*
X0058758Y0017562D01*
X0058868Y0017676D01*
X0058981Y0017787D01*
X0059096Y0017896D01*
X0059214Y0018001D01*
X0059335Y0018103D01*
X0059458Y0018203D01*
X0059584Y0018299D01*
X0059712Y0018392D01*
X0059842Y0018482D01*
X0059975Y0018568D01*
X0060110Y0018652D01*
X0060246Y0018731D01*
X0060385Y0018808D01*
X0060526Y0018880D01*
X0060668Y0018950D01*
X0060812Y0019015D01*
X0060958Y0019077D01*
X0061105Y0019135D01*
X0061254Y0019190D01*
X0061404Y0019241D01*
X0061555Y0019288D01*
X0061707Y0019331D01*
X0061860Y0019370D01*
X0062015Y0019406D01*
X0062170Y0019437D01*
X0062326Y0019465D01*
X0062482Y0019489D01*
X0062639Y0019509D01*
X0062797Y0019525D01*
X0062954Y0019537D01*
X0063113Y0019545D01*
X0063271Y0019549D01*
X0063429Y0019549D01*
X0063587Y0019545D01*
X0063746Y0019537D01*
X0063903Y0019525D01*
X0064061Y0019509D01*
X0064218Y0019489D01*
X0064374Y0019465D01*
X0064530Y0019437D01*
X0064685Y0019406D01*
X0064840Y0019370D01*
X0064993Y0019331D01*
X0065145Y0019288D01*
X0065296Y0019241D01*
X0065446Y0019190D01*
X0065595Y0019135D01*
X0065742Y0019077D01*
X0065888Y0019015D01*
X0066032Y0018950D01*
X0066174Y0018880D01*
X0066315Y0018808D01*
X0066454Y0018731D01*
X0066590Y0018652D01*
X0066725Y0018568D01*
X0066858Y0018482D01*
X0066988Y0018392D01*
X0067116Y0018299D01*
X0067242Y0018203D01*
X0067365Y0018103D01*
X0067486Y0018001D01*
X0067604Y0017896D01*
X0067719Y0017787D01*
X0067832Y0017676D01*
X0067942Y0017562D01*
X0068049Y0017445D01*
X0068153Y0017326D01*
X0068254Y0017204D01*
X0068351Y0017079D01*
X0068446Y0016952D01*
X0068537Y0016823D01*
X0068626Y0016692D01*
X0068710Y0016558D01*
X0068792Y0016422D01*
X0068870Y0016285D01*
X0068944Y0016145D01*
X0069015Y0016003D01*
X0069083Y0015860D01*
X0069147Y0015715D01*
X0069207Y0015569D01*
X0069263Y0015421D01*
X0069316Y0015272D01*
X0069365Y0015121D01*
X0069410Y0014969D01*
X0069451Y0014816D01*
X0069489Y0014663D01*
X0069522Y0014508D01*
X0069552Y0014352D01*
X0069578Y0014196D01*
X0069599Y0014039D01*
X0069617Y0013882D01*
X0069631Y0013724D01*
X0069641Y0013566D01*
X0069647Y0013408D01*
X0069649Y0013250D01*
X0069647Y0013092D01*
X0069641Y0012934D01*
X0069631Y0012776D01*
X0069617Y0012618D01*
X0069599Y0012461D01*
X0069578Y0012304D01*
X0069552Y0012148D01*
X0069522Y0011992D01*
X0069489Y0011837D01*
X0069451Y0011684D01*
X0069410Y0011531D01*
X0069365Y0011379D01*
X0069316Y0011228D01*
X0069263Y0011079D01*
X0069207Y0010931D01*
X0069147Y0010785D01*
X0069083Y0010640D01*
X0069015Y0010497D01*
X0068944Y0010355D01*
X0068870Y0010215D01*
X0068792Y0010078D01*
X0068710Y0009942D01*
X0068626Y0009808D01*
X0068537Y0009677D01*
X0068446Y0009548D01*
X0068351Y0009421D01*
X0068254Y0009296D01*
X0068153Y0009174D01*
X0068049Y0009055D01*
X0067942Y0008938D01*
X0067832Y0008824D01*
X0067719Y0008713D01*
X0067604Y0008604D01*
X0067486Y0008499D01*
X0067365Y0008397D01*
X0067242Y0008297D01*
X0067116Y0008201D01*
X0066988Y0008108D01*
X0066858Y0008018D01*
X0066725Y0007932D01*
X0066590Y0007848D01*
X0066454Y0007769D01*
X0066315Y0007692D01*
X0066174Y0007620D01*
X0066032Y0007550D01*
X0065888Y0007485D01*
X0065742Y0007423D01*
X0065595Y0007365D01*
X0065446Y0007310D01*
X0065296Y0007259D01*
X0065145Y0007212D01*
X0064993Y0007169D01*
X0064840Y0007130D01*
X0064685Y0007094D01*
X0064530Y0007063D01*
X0064374Y0007035D01*
X0064218Y0007011D01*
X0064061Y0006991D01*
X0063903Y0006975D01*
X0063746Y0006963D01*
X0063587Y0006955D01*
X0063429Y0006951D01*
X0063271Y0006951D01*
X0063113Y0006955D01*
X0062954Y0006963D01*
X0062797Y0006975D01*
X0062639Y0006991D01*
X0062482Y0007011D01*
X0062326Y0007035D01*
X0062170Y0007063D01*
X0062015Y0007094D01*
X0061860Y0007130D01*
X0061707Y0007169D01*
X0061555Y0007212D01*
X0061404Y0007259D01*
X0061254Y0007310D01*
X0061105Y0007365D01*
X0060958Y0007423D01*
X0060812Y0007485D01*
X0060668Y0007550D01*
X0060526Y0007620D01*
X0060385Y0007692D01*
X0060246Y0007769D01*
X0060110Y0007848D01*
X0059975Y0007932D01*
X0059842Y0008018D01*
X0059712Y0008108D01*
X0059584Y0008201D01*
X0059458Y0008297D01*
X0059335Y0008397D01*
X0059214Y0008499D01*
X0059096Y0008604D01*
X0058981Y0008713D01*
X0058868Y0008824D01*
X0058758Y0008938D01*
X0058651Y0009055D01*
X0058547Y0009174D01*
X0058446Y0009296D01*
X0058349Y0009421D01*
X0058254Y0009548D01*
X0058163Y0009677D01*
X0058074Y0009808D01*
X0057990Y0009942D01*
X0057908Y0010078D01*
X0057830Y0010215D01*
X0057756Y0010355D01*
X0057685Y0010497D01*
X0057617Y0010640D01*
X0057553Y0010785D01*
X0057493Y0010931D01*
X0057437Y0011079D01*
X0057384Y0011228D01*
X0057335Y0011379D01*
X0057290Y0011531D01*
X0057249Y0011684D01*
X0057211Y0011837D01*
X0057178Y0011992D01*
X0057148Y0012148D01*
X0057122Y0012304D01*
X0057101Y0012461D01*
X0057083Y0012618D01*
X0057069Y0012776D01*
X0057059Y0012934D01*
X0057053Y0013092D01*
X0057051Y0013250D01*
X0034350Y0119750D02*
X0034352Y0119911D01*
X0034358Y0120071D01*
X0034368Y0120232D01*
X0034382Y0120392D01*
X0034400Y0120552D01*
X0034421Y0120711D01*
X0034447Y0120870D01*
X0034477Y0121028D01*
X0034510Y0121185D01*
X0034548Y0121342D01*
X0034589Y0121497D01*
X0034634Y0121651D01*
X0034683Y0121804D01*
X0034736Y0121956D01*
X0034792Y0122107D01*
X0034853Y0122256D01*
X0034916Y0122404D01*
X0034984Y0122550D01*
X0035055Y0122694D01*
X0035129Y0122836D01*
X0035207Y0122977D01*
X0035289Y0123115D01*
X0035374Y0123252D01*
X0035462Y0123386D01*
X0035554Y0123518D01*
X0035649Y0123648D01*
X0035747Y0123776D01*
X0035848Y0123901D01*
X0035952Y0124023D01*
X0036059Y0124143D01*
X0036169Y0124260D01*
X0036282Y0124375D01*
X0036398Y0124486D01*
X0036517Y0124595D01*
X0036638Y0124700D01*
X0036762Y0124803D01*
X0036888Y0124903D01*
X0037016Y0124999D01*
X0037147Y0125092D01*
X0037281Y0125182D01*
X0037416Y0125269D01*
X0037554Y0125352D01*
X0037693Y0125432D01*
X0037835Y0125508D01*
X0037978Y0125581D01*
X0038123Y0125650D01*
X0038270Y0125716D01*
X0038418Y0125778D01*
X0038568Y0125836D01*
X0038719Y0125891D01*
X0038872Y0125942D01*
X0039026Y0125989D01*
X0039181Y0126032D01*
X0039337Y0126071D01*
X0039493Y0126107D01*
X0039651Y0126138D01*
X0039809Y0126166D01*
X0039968Y0126190D01*
X0040128Y0126210D01*
X0040288Y0126226D01*
X0040448Y0126238D01*
X0040609Y0126246D01*
X0040770Y0126250D01*
X0040930Y0126250D01*
X0041091Y0126246D01*
X0041252Y0126238D01*
X0041412Y0126226D01*
X0041572Y0126210D01*
X0041732Y0126190D01*
X0041891Y0126166D01*
X0042049Y0126138D01*
X0042207Y0126107D01*
X0042363Y0126071D01*
X0042519Y0126032D01*
X0042674Y0125989D01*
X0042828Y0125942D01*
X0042981Y0125891D01*
X0043132Y0125836D01*
X0043282Y0125778D01*
X0043430Y0125716D01*
X0043577Y0125650D01*
X0043722Y0125581D01*
X0043865Y0125508D01*
X0044007Y0125432D01*
X0044146Y0125352D01*
X0044284Y0125269D01*
X0044419Y0125182D01*
X0044553Y0125092D01*
X0044684Y0124999D01*
X0044812Y0124903D01*
X0044938Y0124803D01*
X0045062Y0124700D01*
X0045183Y0124595D01*
X0045302Y0124486D01*
X0045418Y0124375D01*
X0045531Y0124260D01*
X0045641Y0124143D01*
X0045748Y0124023D01*
X0045852Y0123901D01*
X0045953Y0123776D01*
X0046051Y0123648D01*
X0046146Y0123518D01*
X0046238Y0123386D01*
X0046326Y0123252D01*
X0046411Y0123115D01*
X0046493Y0122977D01*
X0046571Y0122836D01*
X0046645Y0122694D01*
X0046716Y0122550D01*
X0046784Y0122404D01*
X0046847Y0122256D01*
X0046908Y0122107D01*
X0046964Y0121956D01*
X0047017Y0121804D01*
X0047066Y0121651D01*
X0047111Y0121497D01*
X0047152Y0121342D01*
X0047190Y0121185D01*
X0047223Y0121028D01*
X0047253Y0120870D01*
X0047279Y0120711D01*
X0047300Y0120552D01*
X0047318Y0120392D01*
X0047332Y0120232D01*
X0047342Y0120071D01*
X0047348Y0119911D01*
X0047350Y0119750D01*
X0047348Y0119589D01*
X0047342Y0119429D01*
X0047332Y0119268D01*
X0047318Y0119108D01*
X0047300Y0118948D01*
X0047279Y0118789D01*
X0047253Y0118630D01*
X0047223Y0118472D01*
X0047190Y0118315D01*
X0047152Y0118158D01*
X0047111Y0118003D01*
X0047066Y0117849D01*
X0047017Y0117696D01*
X0046964Y0117544D01*
X0046908Y0117393D01*
X0046847Y0117244D01*
X0046784Y0117096D01*
X0046716Y0116950D01*
X0046645Y0116806D01*
X0046571Y0116664D01*
X0046493Y0116523D01*
X0046411Y0116385D01*
X0046326Y0116248D01*
X0046238Y0116114D01*
X0046146Y0115982D01*
X0046051Y0115852D01*
X0045953Y0115724D01*
X0045852Y0115599D01*
X0045748Y0115477D01*
X0045641Y0115357D01*
X0045531Y0115240D01*
X0045418Y0115125D01*
X0045302Y0115014D01*
X0045183Y0114905D01*
X0045062Y0114800D01*
X0044938Y0114697D01*
X0044812Y0114597D01*
X0044684Y0114501D01*
X0044553Y0114408D01*
X0044419Y0114318D01*
X0044284Y0114231D01*
X0044146Y0114148D01*
X0044007Y0114068D01*
X0043865Y0113992D01*
X0043722Y0113919D01*
X0043577Y0113850D01*
X0043430Y0113784D01*
X0043282Y0113722D01*
X0043132Y0113664D01*
X0042981Y0113609D01*
X0042828Y0113558D01*
X0042674Y0113511D01*
X0042519Y0113468D01*
X0042363Y0113429D01*
X0042207Y0113393D01*
X0042049Y0113362D01*
X0041891Y0113334D01*
X0041732Y0113310D01*
X0041572Y0113290D01*
X0041412Y0113274D01*
X0041252Y0113262D01*
X0041091Y0113254D01*
X0040930Y0113250D01*
X0040770Y0113250D01*
X0040609Y0113254D01*
X0040448Y0113262D01*
X0040288Y0113274D01*
X0040128Y0113290D01*
X0039968Y0113310D01*
X0039809Y0113334D01*
X0039651Y0113362D01*
X0039493Y0113393D01*
X0039337Y0113429D01*
X0039181Y0113468D01*
X0039026Y0113511D01*
X0038872Y0113558D01*
X0038719Y0113609D01*
X0038568Y0113664D01*
X0038418Y0113722D01*
X0038270Y0113784D01*
X0038123Y0113850D01*
X0037978Y0113919D01*
X0037835Y0113992D01*
X0037693Y0114068D01*
X0037554Y0114148D01*
X0037416Y0114231D01*
X0037281Y0114318D01*
X0037147Y0114408D01*
X0037016Y0114501D01*
X0036888Y0114597D01*
X0036762Y0114697D01*
X0036638Y0114800D01*
X0036517Y0114905D01*
X0036398Y0115014D01*
X0036282Y0115125D01*
X0036169Y0115240D01*
X0036059Y0115357D01*
X0035952Y0115477D01*
X0035848Y0115599D01*
X0035747Y0115724D01*
X0035649Y0115852D01*
X0035554Y0115982D01*
X0035462Y0116114D01*
X0035374Y0116248D01*
X0035289Y0116385D01*
X0035207Y0116523D01*
X0035129Y0116664D01*
X0035055Y0116806D01*
X0034984Y0116950D01*
X0034916Y0117096D01*
X0034853Y0117244D01*
X0034792Y0117393D01*
X0034736Y0117544D01*
X0034683Y0117696D01*
X0034634Y0117849D01*
X0034589Y0118003D01*
X0034548Y0118158D01*
X0034510Y0118315D01*
X0034477Y0118472D01*
X0034447Y0118630D01*
X0034421Y0118789D01*
X0034400Y0118948D01*
X0034382Y0119108D01*
X0034368Y0119268D01*
X0034358Y0119429D01*
X0034352Y0119589D01*
X0034350Y0119750D01*
X0062051Y0203250D02*
X0062053Y0203408D01*
X0062059Y0203566D01*
X0062069Y0203724D01*
X0062083Y0203882D01*
X0062101Y0204039D01*
X0062122Y0204196D01*
X0062148Y0204352D01*
X0062178Y0204508D01*
X0062211Y0204663D01*
X0062249Y0204816D01*
X0062290Y0204969D01*
X0062335Y0205121D01*
X0062384Y0205272D01*
X0062437Y0205421D01*
X0062493Y0205569D01*
X0062553Y0205715D01*
X0062617Y0205860D01*
X0062685Y0206003D01*
X0062756Y0206145D01*
X0062830Y0206285D01*
X0062908Y0206422D01*
X0062990Y0206558D01*
X0063074Y0206692D01*
X0063163Y0206823D01*
X0063254Y0206952D01*
X0063349Y0207079D01*
X0063446Y0207204D01*
X0063547Y0207326D01*
X0063651Y0207445D01*
X0063758Y0207562D01*
X0063868Y0207676D01*
X0063981Y0207787D01*
X0064096Y0207896D01*
X0064214Y0208001D01*
X0064335Y0208103D01*
X0064458Y0208203D01*
X0064584Y0208299D01*
X0064712Y0208392D01*
X0064842Y0208482D01*
X0064975Y0208568D01*
X0065110Y0208652D01*
X0065246Y0208731D01*
X0065385Y0208808D01*
X0065526Y0208880D01*
X0065668Y0208950D01*
X0065812Y0209015D01*
X0065958Y0209077D01*
X0066105Y0209135D01*
X0066254Y0209190D01*
X0066404Y0209241D01*
X0066555Y0209288D01*
X0066707Y0209331D01*
X0066860Y0209370D01*
X0067015Y0209406D01*
X0067170Y0209437D01*
X0067326Y0209465D01*
X0067482Y0209489D01*
X0067639Y0209509D01*
X0067797Y0209525D01*
X0067954Y0209537D01*
X0068113Y0209545D01*
X0068271Y0209549D01*
X0068429Y0209549D01*
X0068587Y0209545D01*
X0068746Y0209537D01*
X0068903Y0209525D01*
X0069061Y0209509D01*
X0069218Y0209489D01*
X0069374Y0209465D01*
X0069530Y0209437D01*
X0069685Y0209406D01*
X0069840Y0209370D01*
X0069993Y0209331D01*
X0070145Y0209288D01*
X0070296Y0209241D01*
X0070446Y0209190D01*
X0070595Y0209135D01*
X0070742Y0209077D01*
X0070888Y0209015D01*
X0071032Y0208950D01*
X0071174Y0208880D01*
X0071315Y0208808D01*
X0071454Y0208731D01*
X0071590Y0208652D01*
X0071725Y0208568D01*
X0071858Y0208482D01*
X0071988Y0208392D01*
X0072116Y0208299D01*
X0072242Y0208203D01*
X0072365Y0208103D01*
X0072486Y0208001D01*
X0072604Y0207896D01*
X0072719Y0207787D01*
X0072832Y0207676D01*
X0072942Y0207562D01*
X0073049Y0207445D01*
X0073153Y0207326D01*
X0073254Y0207204D01*
X0073351Y0207079D01*
X0073446Y0206952D01*
X0073537Y0206823D01*
X0073626Y0206692D01*
X0073710Y0206558D01*
X0073792Y0206422D01*
X0073870Y0206285D01*
X0073944Y0206145D01*
X0074015Y0206003D01*
X0074083Y0205860D01*
X0074147Y0205715D01*
X0074207Y0205569D01*
X0074263Y0205421D01*
X0074316Y0205272D01*
X0074365Y0205121D01*
X0074410Y0204969D01*
X0074451Y0204816D01*
X0074489Y0204663D01*
X0074522Y0204508D01*
X0074552Y0204352D01*
X0074578Y0204196D01*
X0074599Y0204039D01*
X0074617Y0203882D01*
X0074631Y0203724D01*
X0074641Y0203566D01*
X0074647Y0203408D01*
X0074649Y0203250D01*
X0074647Y0203092D01*
X0074641Y0202934D01*
X0074631Y0202776D01*
X0074617Y0202618D01*
X0074599Y0202461D01*
X0074578Y0202304D01*
X0074552Y0202148D01*
X0074522Y0201992D01*
X0074489Y0201837D01*
X0074451Y0201684D01*
X0074410Y0201531D01*
X0074365Y0201379D01*
X0074316Y0201228D01*
X0074263Y0201079D01*
X0074207Y0200931D01*
X0074147Y0200785D01*
X0074083Y0200640D01*
X0074015Y0200497D01*
X0073944Y0200355D01*
X0073870Y0200215D01*
X0073792Y0200078D01*
X0073710Y0199942D01*
X0073626Y0199808D01*
X0073537Y0199677D01*
X0073446Y0199548D01*
X0073351Y0199421D01*
X0073254Y0199296D01*
X0073153Y0199174D01*
X0073049Y0199055D01*
X0072942Y0198938D01*
X0072832Y0198824D01*
X0072719Y0198713D01*
X0072604Y0198604D01*
X0072486Y0198499D01*
X0072365Y0198397D01*
X0072242Y0198297D01*
X0072116Y0198201D01*
X0071988Y0198108D01*
X0071858Y0198018D01*
X0071725Y0197932D01*
X0071590Y0197848D01*
X0071454Y0197769D01*
X0071315Y0197692D01*
X0071174Y0197620D01*
X0071032Y0197550D01*
X0070888Y0197485D01*
X0070742Y0197423D01*
X0070595Y0197365D01*
X0070446Y0197310D01*
X0070296Y0197259D01*
X0070145Y0197212D01*
X0069993Y0197169D01*
X0069840Y0197130D01*
X0069685Y0197094D01*
X0069530Y0197063D01*
X0069374Y0197035D01*
X0069218Y0197011D01*
X0069061Y0196991D01*
X0068903Y0196975D01*
X0068746Y0196963D01*
X0068587Y0196955D01*
X0068429Y0196951D01*
X0068271Y0196951D01*
X0068113Y0196955D01*
X0067954Y0196963D01*
X0067797Y0196975D01*
X0067639Y0196991D01*
X0067482Y0197011D01*
X0067326Y0197035D01*
X0067170Y0197063D01*
X0067015Y0197094D01*
X0066860Y0197130D01*
X0066707Y0197169D01*
X0066555Y0197212D01*
X0066404Y0197259D01*
X0066254Y0197310D01*
X0066105Y0197365D01*
X0065958Y0197423D01*
X0065812Y0197485D01*
X0065668Y0197550D01*
X0065526Y0197620D01*
X0065385Y0197692D01*
X0065246Y0197769D01*
X0065110Y0197848D01*
X0064975Y0197932D01*
X0064842Y0198018D01*
X0064712Y0198108D01*
X0064584Y0198201D01*
X0064458Y0198297D01*
X0064335Y0198397D01*
X0064214Y0198499D01*
X0064096Y0198604D01*
X0063981Y0198713D01*
X0063868Y0198824D01*
X0063758Y0198938D01*
X0063651Y0199055D01*
X0063547Y0199174D01*
X0063446Y0199296D01*
X0063349Y0199421D01*
X0063254Y0199548D01*
X0063163Y0199677D01*
X0063074Y0199808D01*
X0062990Y0199942D01*
X0062908Y0200078D01*
X0062830Y0200215D01*
X0062756Y0200355D01*
X0062685Y0200497D01*
X0062617Y0200640D01*
X0062553Y0200785D01*
X0062493Y0200931D01*
X0062437Y0201079D01*
X0062384Y0201228D01*
X0062335Y0201379D01*
X0062290Y0201531D01*
X0062249Y0201684D01*
X0062211Y0201837D01*
X0062178Y0201992D01*
X0062148Y0202148D01*
X0062122Y0202304D01*
X0062101Y0202461D01*
X0062083Y0202618D01*
X0062069Y0202776D01*
X0062059Y0202934D01*
X0062053Y0203092D01*
X0062051Y0203250D01*
X0262051Y0143250D02*
X0262053Y0143408D01*
X0262059Y0143566D01*
X0262069Y0143724D01*
X0262083Y0143882D01*
X0262101Y0144039D01*
X0262122Y0144196D01*
X0262148Y0144352D01*
X0262178Y0144508D01*
X0262211Y0144663D01*
X0262249Y0144816D01*
X0262290Y0144969D01*
X0262335Y0145121D01*
X0262384Y0145272D01*
X0262437Y0145421D01*
X0262493Y0145569D01*
X0262553Y0145715D01*
X0262617Y0145860D01*
X0262685Y0146003D01*
X0262756Y0146145D01*
X0262830Y0146285D01*
X0262908Y0146422D01*
X0262990Y0146558D01*
X0263074Y0146692D01*
X0263163Y0146823D01*
X0263254Y0146952D01*
X0263349Y0147079D01*
X0263446Y0147204D01*
X0263547Y0147326D01*
X0263651Y0147445D01*
X0263758Y0147562D01*
X0263868Y0147676D01*
X0263981Y0147787D01*
X0264096Y0147896D01*
X0264214Y0148001D01*
X0264335Y0148103D01*
X0264458Y0148203D01*
X0264584Y0148299D01*
X0264712Y0148392D01*
X0264842Y0148482D01*
X0264975Y0148568D01*
X0265110Y0148652D01*
X0265246Y0148731D01*
X0265385Y0148808D01*
X0265526Y0148880D01*
X0265668Y0148950D01*
X0265812Y0149015D01*
X0265958Y0149077D01*
X0266105Y0149135D01*
X0266254Y0149190D01*
X0266404Y0149241D01*
X0266555Y0149288D01*
X0266707Y0149331D01*
X0266860Y0149370D01*
X0267015Y0149406D01*
X0267170Y0149437D01*
X0267326Y0149465D01*
X0267482Y0149489D01*
X0267639Y0149509D01*
X0267797Y0149525D01*
X0267954Y0149537D01*
X0268113Y0149545D01*
X0268271Y0149549D01*
X0268429Y0149549D01*
X0268587Y0149545D01*
X0268746Y0149537D01*
X0268903Y0149525D01*
X0269061Y0149509D01*
X0269218Y0149489D01*
X0269374Y0149465D01*
X0269530Y0149437D01*
X0269685Y0149406D01*
X0269840Y0149370D01*
X0269993Y0149331D01*
X0270145Y0149288D01*
X0270296Y0149241D01*
X0270446Y0149190D01*
X0270595Y0149135D01*
X0270742Y0149077D01*
X0270888Y0149015D01*
X0271032Y0148950D01*
X0271174Y0148880D01*
X0271315Y0148808D01*
X0271454Y0148731D01*
X0271590Y0148652D01*
X0271725Y0148568D01*
X0271858Y0148482D01*
X0271988Y0148392D01*
X0272116Y0148299D01*
X0272242Y0148203D01*
X0272365Y0148103D01*
X0272486Y0148001D01*
X0272604Y0147896D01*
X0272719Y0147787D01*
X0272832Y0147676D01*
X0272942Y0147562D01*
X0273049Y0147445D01*
X0273153Y0147326D01*
X0273254Y0147204D01*
X0273351Y0147079D01*
X0273446Y0146952D01*
X0273537Y0146823D01*
X0273626Y0146692D01*
X0273710Y0146558D01*
X0273792Y0146422D01*
X0273870Y0146285D01*
X0273944Y0146145D01*
X0274015Y0146003D01*
X0274083Y0145860D01*
X0274147Y0145715D01*
X0274207Y0145569D01*
X0274263Y0145421D01*
X0274316Y0145272D01*
X0274365Y0145121D01*
X0274410Y0144969D01*
X0274451Y0144816D01*
X0274489Y0144663D01*
X0274522Y0144508D01*
X0274552Y0144352D01*
X0274578Y0144196D01*
X0274599Y0144039D01*
X0274617Y0143882D01*
X0274631Y0143724D01*
X0274641Y0143566D01*
X0274647Y0143408D01*
X0274649Y0143250D01*
X0274647Y0143092D01*
X0274641Y0142934D01*
X0274631Y0142776D01*
X0274617Y0142618D01*
X0274599Y0142461D01*
X0274578Y0142304D01*
X0274552Y0142148D01*
X0274522Y0141992D01*
X0274489Y0141837D01*
X0274451Y0141684D01*
X0274410Y0141531D01*
X0274365Y0141379D01*
X0274316Y0141228D01*
X0274263Y0141079D01*
X0274207Y0140931D01*
X0274147Y0140785D01*
X0274083Y0140640D01*
X0274015Y0140497D01*
X0273944Y0140355D01*
X0273870Y0140215D01*
X0273792Y0140078D01*
X0273710Y0139942D01*
X0273626Y0139808D01*
X0273537Y0139677D01*
X0273446Y0139548D01*
X0273351Y0139421D01*
X0273254Y0139296D01*
X0273153Y0139174D01*
X0273049Y0139055D01*
X0272942Y0138938D01*
X0272832Y0138824D01*
X0272719Y0138713D01*
X0272604Y0138604D01*
X0272486Y0138499D01*
X0272365Y0138397D01*
X0272242Y0138297D01*
X0272116Y0138201D01*
X0271988Y0138108D01*
X0271858Y0138018D01*
X0271725Y0137932D01*
X0271590Y0137848D01*
X0271454Y0137769D01*
X0271315Y0137692D01*
X0271174Y0137620D01*
X0271032Y0137550D01*
X0270888Y0137485D01*
X0270742Y0137423D01*
X0270595Y0137365D01*
X0270446Y0137310D01*
X0270296Y0137259D01*
X0270145Y0137212D01*
X0269993Y0137169D01*
X0269840Y0137130D01*
X0269685Y0137094D01*
X0269530Y0137063D01*
X0269374Y0137035D01*
X0269218Y0137011D01*
X0269061Y0136991D01*
X0268903Y0136975D01*
X0268746Y0136963D01*
X0268587Y0136955D01*
X0268429Y0136951D01*
X0268271Y0136951D01*
X0268113Y0136955D01*
X0267954Y0136963D01*
X0267797Y0136975D01*
X0267639Y0136991D01*
X0267482Y0137011D01*
X0267326Y0137035D01*
X0267170Y0137063D01*
X0267015Y0137094D01*
X0266860Y0137130D01*
X0266707Y0137169D01*
X0266555Y0137212D01*
X0266404Y0137259D01*
X0266254Y0137310D01*
X0266105Y0137365D01*
X0265958Y0137423D01*
X0265812Y0137485D01*
X0265668Y0137550D01*
X0265526Y0137620D01*
X0265385Y0137692D01*
X0265246Y0137769D01*
X0265110Y0137848D01*
X0264975Y0137932D01*
X0264842Y0138018D01*
X0264712Y0138108D01*
X0264584Y0138201D01*
X0264458Y0138297D01*
X0264335Y0138397D01*
X0264214Y0138499D01*
X0264096Y0138604D01*
X0263981Y0138713D01*
X0263868Y0138824D01*
X0263758Y0138938D01*
X0263651Y0139055D01*
X0263547Y0139174D01*
X0263446Y0139296D01*
X0263349Y0139421D01*
X0263254Y0139548D01*
X0263163Y0139677D01*
X0263074Y0139808D01*
X0262990Y0139942D01*
X0262908Y0140078D01*
X0262830Y0140215D01*
X0262756Y0140355D01*
X0262685Y0140497D01*
X0262617Y0140640D01*
X0262553Y0140785D01*
X0262493Y0140931D01*
X0262437Y0141079D01*
X0262384Y0141228D01*
X0262335Y0141379D01*
X0262290Y0141531D01*
X0262249Y0141684D01*
X0262211Y0141837D01*
X0262178Y0141992D01*
X0262148Y0142148D01*
X0262122Y0142304D01*
X0262101Y0142461D01*
X0262083Y0142618D01*
X0262069Y0142776D01*
X0262059Y0142934D01*
X0262053Y0143092D01*
X0262051Y0143250D01*
X0262051Y0033250D02*
X0262053Y0033408D01*
X0262059Y0033566D01*
X0262069Y0033724D01*
X0262083Y0033882D01*
X0262101Y0034039D01*
X0262122Y0034196D01*
X0262148Y0034352D01*
X0262178Y0034508D01*
X0262211Y0034663D01*
X0262249Y0034816D01*
X0262290Y0034969D01*
X0262335Y0035121D01*
X0262384Y0035272D01*
X0262437Y0035421D01*
X0262493Y0035569D01*
X0262553Y0035715D01*
X0262617Y0035860D01*
X0262685Y0036003D01*
X0262756Y0036145D01*
X0262830Y0036285D01*
X0262908Y0036422D01*
X0262990Y0036558D01*
X0263074Y0036692D01*
X0263163Y0036823D01*
X0263254Y0036952D01*
X0263349Y0037079D01*
X0263446Y0037204D01*
X0263547Y0037326D01*
X0263651Y0037445D01*
X0263758Y0037562D01*
X0263868Y0037676D01*
X0263981Y0037787D01*
X0264096Y0037896D01*
X0264214Y0038001D01*
X0264335Y0038103D01*
X0264458Y0038203D01*
X0264584Y0038299D01*
X0264712Y0038392D01*
X0264842Y0038482D01*
X0264975Y0038568D01*
X0265110Y0038652D01*
X0265246Y0038731D01*
X0265385Y0038808D01*
X0265526Y0038880D01*
X0265668Y0038950D01*
X0265812Y0039015D01*
X0265958Y0039077D01*
X0266105Y0039135D01*
X0266254Y0039190D01*
X0266404Y0039241D01*
X0266555Y0039288D01*
X0266707Y0039331D01*
X0266860Y0039370D01*
X0267015Y0039406D01*
X0267170Y0039437D01*
X0267326Y0039465D01*
X0267482Y0039489D01*
X0267639Y0039509D01*
X0267797Y0039525D01*
X0267954Y0039537D01*
X0268113Y0039545D01*
X0268271Y0039549D01*
X0268429Y0039549D01*
X0268587Y0039545D01*
X0268746Y0039537D01*
X0268903Y0039525D01*
X0269061Y0039509D01*
X0269218Y0039489D01*
X0269374Y0039465D01*
X0269530Y0039437D01*
X0269685Y0039406D01*
X0269840Y0039370D01*
X0269993Y0039331D01*
X0270145Y0039288D01*
X0270296Y0039241D01*
X0270446Y0039190D01*
X0270595Y0039135D01*
X0270742Y0039077D01*
X0270888Y0039015D01*
X0271032Y0038950D01*
X0271174Y0038880D01*
X0271315Y0038808D01*
X0271454Y0038731D01*
X0271590Y0038652D01*
X0271725Y0038568D01*
X0271858Y0038482D01*
X0271988Y0038392D01*
X0272116Y0038299D01*
X0272242Y0038203D01*
X0272365Y0038103D01*
X0272486Y0038001D01*
X0272604Y0037896D01*
X0272719Y0037787D01*
X0272832Y0037676D01*
X0272942Y0037562D01*
X0273049Y0037445D01*
X0273153Y0037326D01*
X0273254Y0037204D01*
X0273351Y0037079D01*
X0273446Y0036952D01*
X0273537Y0036823D01*
X0273626Y0036692D01*
X0273710Y0036558D01*
X0273792Y0036422D01*
X0273870Y0036285D01*
X0273944Y0036145D01*
X0274015Y0036003D01*
X0274083Y0035860D01*
X0274147Y0035715D01*
X0274207Y0035569D01*
X0274263Y0035421D01*
X0274316Y0035272D01*
X0274365Y0035121D01*
X0274410Y0034969D01*
X0274451Y0034816D01*
X0274489Y0034663D01*
X0274522Y0034508D01*
X0274552Y0034352D01*
X0274578Y0034196D01*
X0274599Y0034039D01*
X0274617Y0033882D01*
X0274631Y0033724D01*
X0274641Y0033566D01*
X0274647Y0033408D01*
X0274649Y0033250D01*
X0274647Y0033092D01*
X0274641Y0032934D01*
X0274631Y0032776D01*
X0274617Y0032618D01*
X0274599Y0032461D01*
X0274578Y0032304D01*
X0274552Y0032148D01*
X0274522Y0031992D01*
X0274489Y0031837D01*
X0274451Y0031684D01*
X0274410Y0031531D01*
X0274365Y0031379D01*
X0274316Y0031228D01*
X0274263Y0031079D01*
X0274207Y0030931D01*
X0274147Y0030785D01*
X0274083Y0030640D01*
X0274015Y0030497D01*
X0273944Y0030355D01*
X0273870Y0030215D01*
X0273792Y0030078D01*
X0273710Y0029942D01*
X0273626Y0029808D01*
X0273537Y0029677D01*
X0273446Y0029548D01*
X0273351Y0029421D01*
X0273254Y0029296D01*
X0273153Y0029174D01*
X0273049Y0029055D01*
X0272942Y0028938D01*
X0272832Y0028824D01*
X0272719Y0028713D01*
X0272604Y0028604D01*
X0272486Y0028499D01*
X0272365Y0028397D01*
X0272242Y0028297D01*
X0272116Y0028201D01*
X0271988Y0028108D01*
X0271858Y0028018D01*
X0271725Y0027932D01*
X0271590Y0027848D01*
X0271454Y0027769D01*
X0271315Y0027692D01*
X0271174Y0027620D01*
X0271032Y0027550D01*
X0270888Y0027485D01*
X0270742Y0027423D01*
X0270595Y0027365D01*
X0270446Y0027310D01*
X0270296Y0027259D01*
X0270145Y0027212D01*
X0269993Y0027169D01*
X0269840Y0027130D01*
X0269685Y0027094D01*
X0269530Y0027063D01*
X0269374Y0027035D01*
X0269218Y0027011D01*
X0269061Y0026991D01*
X0268903Y0026975D01*
X0268746Y0026963D01*
X0268587Y0026955D01*
X0268429Y0026951D01*
X0268271Y0026951D01*
X0268113Y0026955D01*
X0267954Y0026963D01*
X0267797Y0026975D01*
X0267639Y0026991D01*
X0267482Y0027011D01*
X0267326Y0027035D01*
X0267170Y0027063D01*
X0267015Y0027094D01*
X0266860Y0027130D01*
X0266707Y0027169D01*
X0266555Y0027212D01*
X0266404Y0027259D01*
X0266254Y0027310D01*
X0266105Y0027365D01*
X0265958Y0027423D01*
X0265812Y0027485D01*
X0265668Y0027550D01*
X0265526Y0027620D01*
X0265385Y0027692D01*
X0265246Y0027769D01*
X0265110Y0027848D01*
X0264975Y0027932D01*
X0264842Y0028018D01*
X0264712Y0028108D01*
X0264584Y0028201D01*
X0264458Y0028297D01*
X0264335Y0028397D01*
X0264214Y0028499D01*
X0264096Y0028604D01*
X0263981Y0028713D01*
X0263868Y0028824D01*
X0263758Y0028938D01*
X0263651Y0029055D01*
X0263547Y0029174D01*
X0263446Y0029296D01*
X0263349Y0029421D01*
X0263254Y0029548D01*
X0263163Y0029677D01*
X0263074Y0029808D01*
X0262990Y0029942D01*
X0262908Y0030078D01*
X0262830Y0030215D01*
X0262756Y0030355D01*
X0262685Y0030497D01*
X0262617Y0030640D01*
X0262553Y0030785D01*
X0262493Y0030931D01*
X0262437Y0031079D01*
X0262384Y0031228D01*
X0262335Y0031379D01*
X0262290Y0031531D01*
X0262249Y0031684D01*
X0262211Y0031837D01*
X0262178Y0031992D01*
X0262148Y0032148D01*
X0262122Y0032304D01*
X0262101Y0032461D01*
X0262083Y0032618D01*
X0262069Y0032776D01*
X0262059Y0032934D01*
X0262053Y0033092D01*
X0262051Y0033250D01*
D12*
X0268350Y0033250D03*
X0268350Y0143250D03*
X0068350Y0203250D03*
X0063350Y0013250D03*
D13*
X0118350Y0010450D02*
X0118350Y0016050D01*
X0128350Y0016050D02*
X0128350Y0010450D01*
X0138350Y0010450D02*
X0138350Y0016050D01*
X0148350Y0016050D02*
X0148350Y0010450D01*
X0158350Y0010450D02*
X0158350Y0016050D01*
X0168350Y0016050D02*
X0168350Y0010450D01*
X0178350Y0010450D02*
X0178350Y0016050D01*
X0188350Y0016050D02*
X0188350Y0010450D01*
X0208350Y0010450D02*
X0208350Y0016050D01*
X0218350Y0016050D02*
X0218350Y0010450D01*
X0228350Y0010450D02*
X0228350Y0016050D01*
X0238350Y0016050D02*
X0238350Y0010450D01*
X0248350Y0010450D02*
X0248350Y0016050D01*
X0258350Y0016050D02*
X0258350Y0010450D01*
X0255850Y0049950D02*
X0255850Y0055550D01*
X0245850Y0055550D02*
X0245850Y0049950D01*
X0235850Y0049950D02*
X0235850Y0055550D01*
X0225850Y0055550D02*
X0225850Y0049950D01*
X0215850Y0049950D02*
X0215850Y0055550D01*
X0205850Y0055550D02*
X0205850Y0049950D01*
X0195850Y0049950D02*
X0195850Y0055550D01*
X0185850Y0055550D02*
X0185850Y0049950D01*
X0175850Y0049950D02*
X0175850Y0055550D01*
X0165850Y0055550D02*
X0165850Y0049950D01*
X0155850Y0049950D02*
X0155850Y0055550D01*
X0145850Y0055550D02*
X0145850Y0049950D01*
X0135850Y0049950D02*
X0135850Y0055550D01*
X0125850Y0055550D02*
X0125850Y0049950D01*
X0125850Y0079950D02*
X0125850Y0085550D01*
X0135850Y0085550D02*
X0135850Y0079950D01*
X0145850Y0079950D02*
X0145850Y0085550D01*
X0155850Y0085550D02*
X0155850Y0079950D01*
X0165850Y0079950D02*
X0165850Y0085550D01*
X0175850Y0085550D02*
X0175850Y0079950D01*
X0185850Y0079950D02*
X0185850Y0085550D01*
X0195850Y0085550D02*
X0195850Y0079950D01*
X0205850Y0079950D02*
X0205850Y0085550D01*
X0215850Y0085550D02*
X0215850Y0079950D01*
X0225850Y0079950D02*
X0225850Y0085550D01*
X0235850Y0085550D02*
X0235850Y0079950D01*
X0245850Y0079950D02*
X0245850Y0085550D01*
X0255850Y0085550D02*
X0255850Y0079950D01*
X0258350Y0200450D02*
X0258350Y0206050D01*
X0248350Y0206050D02*
X0248350Y0200450D01*
X0238350Y0200450D02*
X0238350Y0206050D01*
X0228350Y0206050D02*
X0228350Y0200450D01*
X0218350Y0200450D02*
X0218350Y0206050D01*
X0208350Y0206050D02*
X0208350Y0200450D01*
X0198350Y0200450D02*
X0198350Y0206050D01*
X0188350Y0206050D02*
X0188350Y0200450D01*
X0172350Y0200450D02*
X0172350Y0206050D01*
X0162350Y0206050D02*
X0162350Y0200450D01*
X0152350Y0200450D02*
X0152350Y0206050D01*
X0142350Y0206050D02*
X0142350Y0200450D01*
X0132350Y0200450D02*
X0132350Y0206050D01*
X0122350Y0206050D02*
X0122350Y0200450D01*
X0112350Y0200450D02*
X0112350Y0206050D01*
X0102350Y0206050D02*
X0102350Y0200450D01*
X0092350Y0200450D02*
X0092350Y0206050D01*
X0082350Y0206050D02*
X0082350Y0200450D01*
D14*
X0258850Y0123250D03*
X0268850Y0123250D03*
X0268850Y0113250D03*
X0258850Y0113250D03*
X0258850Y0103250D03*
X0268850Y0103250D03*
D15*
X0054350Y0035950D03*
X0042550Y0016250D03*
D16*
X0030750Y0035950D03*
D17*
X0030750Y0032950D03*
X0030750Y0038950D03*
X0054350Y0038950D03*
X0054350Y0032950D03*
X0045550Y0016250D03*
X0039550Y0016250D03*
D18*
X0040850Y0057450D02*
X0040850Y0064050D01*
X0030850Y0064050D02*
X0030850Y0057450D01*
X0050850Y0057450D02*
X0050850Y0064050D01*
D19*
X0040850Y0119750D03*
D20*
X0072850Y0103750D03*
X0112850Y0103750D03*
X0141850Y0153750D03*
X0141850Y0163750D03*
X0141850Y0173750D03*
X0181850Y0173750D03*
X0181850Y0163750D03*
X0181850Y0153750D03*
X0209850Y0134750D03*
X0209850Y0094750D03*
X0166850Y0036750D03*
X0126850Y0036750D03*
D21*
X0102450Y0085250D03*
X0161350Y0100750D03*
X0180350Y0100750D03*
X0235350Y0113750D03*
D22*
X0180350Y0116250D03*
X0180350Y0126250D03*
X0161350Y0126250D03*
X0161350Y0116250D03*
X0154850Y0141250D03*
X0144850Y0141250D03*
X0108350Y0061250D03*
X0108350Y0051250D03*
X0176350Y0038250D03*
X0176350Y0028250D03*
X0189350Y0028250D03*
X0189350Y0038250D03*
D23*
X0089350Y0046750D03*
X0074850Y0080250D03*
D24*
X0088850Y0080250D03*
X0075350Y0046750D03*
D25*
X0123397Y0123750D02*
X0129303Y0123750D01*
X0129303Y0133750D02*
X0123397Y0133750D01*
X0123397Y0143750D02*
X0129303Y0143750D01*
X0129303Y0153750D02*
X0123397Y0153750D01*
X0123397Y0163750D02*
X0129303Y0163750D01*
X0129303Y0173750D02*
X0123397Y0173750D01*
D26*
X0109350Y0023250D03*
X0074350Y0023250D03*
D27*
X0112450Y0085250D03*
X0225350Y0113750D03*
D28*
X0052550Y0188850D02*
X0046550Y0188850D01*
X0026950Y0188850D02*
X0020950Y0188850D01*
X0020950Y0206650D02*
X0026950Y0206650D01*
X0046550Y0206650D02*
X0052550Y0206650D01*
M02*
